<?xml version="1.0" encoding="utf-8"?>
<!-- Generator: Adobe Illustrator 28.2.0, SVG Export Plug-In . SVG Version: 6.00 Build 0)  -->
<svg version="1.1" id="Layer_1" xmlns="http://www.w3.org/2000/svg" xmlns:xlink="http://www.w3.org/1999/xlink" x="0px" y="0px"
	 viewBox="0 0 500 500" style="enable-background:new 0 0 500 500;" xml:space="preserve">
<style type="text/css">
	.st0{fill-rule:evenodd;clip-rule:evenodd;}
	.st1{fill-rule:evenodd;clip-rule:evenodd;fill:#5E5EAA;}
</style>
<g id="clock">
	<g>
		<path class="st0" d="M486.8,136.6c-5.2-14.3-9.4-27.6-15-37.5c-1.5-2.7-3.7-6.7-4.5-7.5c-2.6-2.7-3.9-5.2-6-7.5
			c-11.4-12.2-28.7-23.9-40.5-33c-5.6-4.3-11.3-9.7-16.5-12c-0.5-0.2-0.9-2.7-1.5-3c-1.2-0.6-3.3,0.6-4.5,0c-0.6-0.3-0.8-2.7-1.5-3
			c-1.3-0.6-3.9-1.3-4.5-1.5c-9.2-3.6-22.4-6.1-30-9c-1.2-0.5-3.5-0.7-6-1.5c-15.9-4.9-32-12.7-48-15c-24.5-3.6-51.6-6.1-76.6-6
			c-0.9,0-1.7,1.5-1.5,1.5c-6.6,0.1-16.3-1.1-24,0c-5.5,0.8-12.6,4.2-19.5,6c-10.7,2.8-21.2,5.6-31.5,7.5c-3.5,0.6-7.2,2.5-10.5,3
			c-8.7,1.4-17.4-0.1-22.5,1.5c-3.5,1.1-11,7.3-13.5,9c-2,1.4-4.4,1.9-6,3c-3.1,2.1-5.9,5.4-9,7.5c-3.6,2.4-8.3,4.2-10.5,6
			c-5.3,4.4-11,11.7-16.5,18c-10.7,12.3-21.6,26.8-30,39c-8.3,12-12.8,20.5-16.5,34.5c-1.2,4.7-3.4,9.2-4.5,13.5
			c-2.6,10-3.1,20-4.5,30c-4.1,28-12.1,49.7-10.5,78.1c1.9,34.9,12.4,71.9,25.5,103.6c6,14.6,13.5,29.3,22.5,42
			c4.8,6.7,12.1,13.1,15,19.5c0.2,0.5,2.6,1,3,1.5c1.2,1.7,1.6,4.2,3,6c1,1.3,3.5,1.7,4.5,3c1.6,2,1.4,4.5,3,6c1.1,1,3.3,2.2,4.5,3
			c5.8,4,10.3,6.9,15,10.5c7,5.4,13.1,11.6,19.5,15c4.4,2.4,9.9,4,15,6c10.6,4.1,20.6,7.8,31.5,10.5c19.1,4.8,36.6,7.8,54.1,10.5
			c13.3,2.1,27.7,4.6,39,4.5c14.7-0.1,31.9-4.2,48-7.5c15.8-3.3,31.8-5.4,45-10.5c1.9-0.8,2.8-2,4.5-3c0.8-0.4,2.2,0.4,3,0
			c0.5-0.2,0.9-2.7,1.5-3c10.7-5.8,23-9.5,31.5-15c3.4-2.2,7-6.3,10.5-9c4.1-3.3,8.4-5.6,12-9c3.3-3.1,5.4-7.2,9-10.5
			c3.9-3.6,8.4-5.5,12-9c3.3-3.2,6-7.1,9-10.5c7.3-8.2,13.9-14.6,19.5-22.5c8-11.3,13.5-22,18-34.5c2.8-7.7,3.8-16.3,6-25.5
			c3.9-16.8,9.8-34.5,12-52.6C503.1,228.7,499.2,170.9,486.8,136.6z M453.7,264.3c9,0,16.9-2.7,18-1.5c4.1,4.1,0.4,20.8-1.5,31.5
			c-4.3,24.2-7.9,37.2-15,57.1c-3.1,8.5-6.1,18.1-10.5,25.5c-0.4,0.6-2.8,1-3,1.5c-3.8,8.5-15.5,19.8-24,28.5
			c-1.7,1.8-2.5,2.9-4.5,4.5c-9.6,7.4-19.4,18.8-30,27c-2.8,2.2-4.8,3.4-7.5,6c-3.3,3.2-14.8,6.6-19.5,9c-5.5,2.8-10,7.1-15,9
			c-2.7,1-9.2,1.4-15,3c-8.1,2.2-17.8,5.3-28.5,7.5c-2.7,0.5-36.4,7.2-40.5,3c-3.7-3.7,1.5-28.9,1.5-33c-0.1-13.7-0.3-22-10.5-22.5
			c-13.2-0.7-10.8,11.1-12,24c-0.8,9.2,0,29.1-3,31.5c-1.6,1.3-28-4.2-34.5-6c-8.8-2.4-19.2-7.7-28.5-12c-8.2-3.7-18.2-7.3-27-12
			c-4.9-2.6-10.9-6.4-16.5-10.5c-5.2-3.8-11.6-9.8-18-15c-1.1-0.9-2-2.2-3-3c-4.8-3.8-11.2-6.4-15-10.5c-2.2-2.4-4.7-7.8-7.5-12
			c-3.8-5.8-8-11.7-12-18c-1.4-2.2-1.8-4-3-6c-9.7-16-21.6-36-30-55.5c-2.2-5.2-6.5-20.6-7.5-30c-1.1-10.3-0.3-25.6,1.5-27
			c4.4-3.7,38.5,1.6,45-3c0.5-0.4-0.4-2.6,0-3c0.4-0.4,2.7,0.5,3,0c2.5-4,1.6-14.4,1.5-15c-3.4-13.7-24-10.5-40.5-10.5
			c-7.7,0-6.7-2.5-4.5-15c0.8-4.6,2.7-9.8,3-12c1.5-9.8,1.5-19.9,3-27c0.9-4,3.5-7.8,4.5-12c2.2-9.1,3.5-28.1,7.5-37.5
			c1.3-3.2,5.7-7.3,9-12c5.3-7.5,10-15,16.5-22.5c16.3-18.9,44.4-34,72.1-43.5c4.5-1.6,10.1-2.9,15-4.5c10.4-3.4,19.5-9.4,27-10.5
			c4.3-0.7,9.8,1.7,15,1.5c5.9-0.2,10.6-1.1,16.5-1.5c27.6-2,66.2,0.6,91.6,6c6.9,1.5,13.6,3.9,21,6c13.3,3.7,20.8,7.6,33,13.5
			c6.4,3.1,13,6.3,19.5,9c2.5,1,4.1,0.7,6,1.5c5.9,2.5,11.4,8.1,18,12c1.8,1,1.7,0.3,3,1.5c1.3,1.2,3.2,1.8,4.5,3
			c0.2,0.2,1.4,1.4,1.5,1.5c0.8,0.5,3.8,0.8,4.5,1.5c1.2,1.3,2.3,5.6,4.5,9c4.2,6.4,9.8,15.6,15,24c2.2,3.7,4.7,7.2,7.5,12
			c2.3,3.9,9.7,13.4,12,19.5c1.6,4.3,0.6,7.8,1.5,12c0.7,3.1,2.7,6.2,3,9c0.7,6.6,1.1,23.8,1.5,36c0.2,5.6,2.4,35.2,0,37.5
			c0,0-5.4-2.3-7.5-3c-13.2-4.1-46-9.4-48.1,6C415.4,264.2,441.1,264.2,453.7,264.3z M258.5,45c-3.5-4.6-12.8-4.6-16.5-3
			c-1.8,0.8-3.4,0.1-4.5,1.5c-4.1,5.1-5.8,23.7-4.5,37.5c1.3,14.5,5.5,26,13.5,25.5c8.5-0.5,10-14.5,12-19.5
			c3.2-8.3,2.1-10.8,1.5-19.5C259.4,58.8,261.2,48.6,258.5,45z M353.1,75.1c-6.1,1.4-7.9,6-12,12c-3.3,4.7-6.2,7.3-6,12
			c0.2,5.7,7,13.3,12,13.5C360.1,113.1,376.6,69.7,353.1,75.1z M94.9,157.7c7.8,4,15,3.5,15-4.5c0-7.9-23.4-21.9-28.5-22.5
			c0,0,0.1,1.5,0,1.5c-8,3.2-6,8-1.5,13.5C84.2,151.1,89.7,155.1,94.9,157.7z M434.2,156.2c1.9-4.2,0.9-12.6,0-13.5
			c-3.1-3.2-5-0.3-9,0c-7,0.5-30.3,13.5-24,24C407,176.6,432.8,159.2,434.2,156.2z M94.9,324.3c-10.5,2.1-22.8,10.3-21,22.5
			c0.9,6.1,6.6,12.2,15,12c7.7-0.1,28.5-18.1,25.5-28.5C111.6,320.8,102.8,322.8,94.9,324.3z M392.1,328.8
			c-16.3,10.3,12.1,21.2,19.5,21c10.8-0.2,11.3-5.3,4.5-13.5C411.4,330.5,399.2,324.4,392.1,328.8z M171.4,387.4
			c-7.1-0.2-19.1,7.4-21,10.5c-9.6,16.1,3.2,26.5,16.5,18c4.5-2.8,14.6-22.5,13.5-25.5C178.5,384.9,176.2,387.5,171.4,387.4z
			 M338.1,394.9c-14,6.3,2.3,23.9,9,27c13.4,6.2,14.5-5.9,12-12C355,399.9,344.4,392.1,338.1,394.9z M161.9,94.5
			c-4.1-10-14.7-17.8-21-15c-14,6.3,2.3,23.9,9,27C163.2,112.7,164.4,100.6,161.9,94.5z"/>
	</g>
</g>
<path class="st1" d="M407.2,248.8c-0.4-3.2,0-9.9-1.5-12c-6.7-9.4-42.7-6-57.1-6c-9.1,0-20.4,0.4-31.5,0c-10.3-0.4-24.1,0.4-30-1.5
	c-2.9-0.9-8.7,1-10.6-0.7c-4.1,3.5-3.8,3.8-7.1,7.1c-3.9,15.6-1.3,20.3,7.1,28.6c3.2-2.7,8.4,1.6,12.1,1.1c2.7-0.4,9.7,2.5,15,3
	c16.5,1.6,29.4,0.9,43.5,0c9.9-0.6,30.8,1.8,46.5,0c4-0.5,13.9-2.6,15-4.5C411.1,259.9,407.6,252.2,407.2,248.8z"/>
<path class="st1" d="M252.9,235.7c0-6.8,12.3-7.4,7.1-14.3c-2.4,0.1-3.4-6-3.5-6.1c-1.7-1-12.1-23.4-13.5-27c-1.6-4.2-1.9-9.4-3-12
	c-1.1-2.8-3.3-6.1-4.5-9c-6-14-13.3-25-18-37.5c-2.6-7.1-5.8-12.4-9-18c-2.1-3.6-2.8-6.2-4.5-10.5c-1.7-4.2-9.3-21.9-12-28.5
	c-2.2-5.4-2.4-9.5-4.5-10.5c-2.9-1.3-11.1-1.1-16.5,1.5c-7.3,3.5-8.1,6.4-4.5,16.5c1.2,3.5,1.6,7.5,3,10.5c2.8,6,8.3,11.6,10.5,16.5
	c2.9,6.5,4.1,15.4,6,19.5c2,4.4,4.4,8.1,6,12c4.8,11.8,10.5,27.6,16.5,39c1.5,2.9,3.6,4.5,4.5,6c6.7,11.7,11.5,26.7,18,37.5
	c2.4,3.9,3.8,4.7,4.4,7C242.8,231.7,247.8,240.7,252.9,235.7z"/>
<path class="st1" d="M283.2,229.6c-2.3-1.4-4.1-3.8-5.9-5.2c-3.1-2.4-6.4-5.2-9-6l-19.6-0.1c-10.2,4.2-10.2,4.2-17.3,11.4
	c0,0.1,0.1,0,0,0c0,0-6.2,7.6-6.6,9.7c-0.7,4.3-0.2,9.3,0,12c1.3,16.4,11.5,28.3,25.5,30c2.9,0.4,6.4,0.3,9,0
	c11.6-1.4,15.7-7.5,25.6-14.6C286.4,255.6,285.4,242.3,283.2,229.6z M257.8,257.4c-3.1,1.1-9.9-0.7-10.5-1.5c-1.3-1.9,1.7-11.3,3-12
	c1.2-0.7,4.6,0.1,6,0c3.6-0.3,5.4-1.1,6,0C264.2,247.2,262.2,255.8,257.8,257.4z"/>
</svg>
