<?xml version="1.0" encoding="utf-8"?>
<!-- Generator: Adobe Illustrator 28.3.0, SVG Export Plug-In . SVG Version: 6.00 Build 0)  -->
<svg version="1.1" id="Layer_1" xmlns="http://www.w3.org/2000/svg" xmlns:xlink="http://www.w3.org/1999/xlink" x="0px" y="0px"
	 viewBox="0 0 40 40" style="enable-background:new 0 0 40 40;" xml:space="preserve">
<style type="text/css">
	.st0{fill-rule:evenodd;clip-rule:evenodd;fill:#39C0C4;}
	.st1{fill-rule:evenodd;clip-rule:evenodd;fill:#6E8940;}
	.st2{fill-rule:evenodd;clip-rule:evenodd;}
</style>
<g>
	<polygon class="st0" points="21.2,15.8 16.4,16.4 16.6,18.5 21.5,18.5 	"/>
	<polygon class="st0" points="28.1,15.3 23.6,15.5 23.1,15.6 23.4,18.3 27.8,18.1 	"/>
	<polygon class="st0" points="34.8,15.3 30.1,15.3 30.3,18.2 34.5,18.2 	"/>
	<polygon class="st1" points="28.2,7.4 22.3,7.7 22.4,9.9 28.1,9.5 	"/>
	<g id="search_x5F_man">
		<g>
			<path class="st2" d="M38.5,9.5c-0.4-0.9-1.1-1.8-1.5-2.5c0,0-0.2-0.1-0.2-0.1c-0.3-0.4-0.5-0.7-0.8-1c-0.6-0.6-1.4-1.6-2-1.9
				c0,0-0.1-0.2-0.1-0.2c-0.5-0.3-0.8-0.5-1.1-0.8c-1.1-0.7-1.7-1.1-2.8-1.6c-0.5-0.2-1-0.3-1.5-0.5c-1-0.3-2.1-0.7-3.1-0.8
				c-0.6-0.1-1.5,0.1-1.7,0.1c-1.3,0.1-2.3,0.4-3.2,0.7c-1,0.3-2.6,0.5-3.5,0.9c-0.4,0.2-0.6,0.4-0.8,0.6c-1.3,1-2.3,2-3.2,3.3
				c-0.2,0.2-0.4,0.6-0.6,0.8c-0.4,0.7-0.6,1.2-0.9,1.9c-0.1,0.3-0.4,0.6-0.5,0.9c-0.1,0.3-0.1,0.6-0.1,0.9c-0.6,3.1,0.1,6.3,1,8.4
				c0.2,0.5,0.4,0.9,0.7,1.4c0.1,0.2,1,1.5,1,1.6c0,0.1-0.7,0.3-0.7,0.3c0,0,0,0.2,0,0.2c-0.1,0.1-0.2,0.1-0.2,0.2
				c-0.3,0.4-0.4,1-0.6,1.1c0,0-0.4,0.1-0.5,0.1c-0.4,0.2-0.5,0.4-0.7,0.6c-0.1,0.1-0.4,0.1-0.5,0.2c-0.5,0.5-0.9,1-1.4,1.5
				c-0.5,0.6-1.2,1.3-1.7,1.7c-0.1,0.1-0.2,0.2-0.3,0.3c-0.3,0.2-0.6,0.4-0.8,0.6c-0.3,0.2-0.5,0.5-0.7,0.7
				c-0.3,0.2-0.6,0.3-0.8,0.6c-0.2,0.2-0.4,0.5-0.6,0.7c-0.1,0.1-0.4,0.1-0.5,0.2c-0.1,0.1-0.1,0.3-0.2,0.5c-0.5,0.5-1,1-1.3,1.5
				c-0.1,0.3-0.2,0.7-0.3,1c-0.2,0.6-0.4,1-0.6,1.4c0,0.1,0,0.2,0,0.2c0,0-0.2,0.1-0.2,0.1c-0.1,0.2-0.2,0.5-0.3,0.7
				c-0.4,0.7-0.8,1.6-0.3,2.2c0.3,0.3,0.6,0.4,0.9,0.7c0.9,0.7,2,1.4,3.6,1.1c0.6-0.1,1.2-0.8,1.6-1.3c0.4-0.5,0.7-1,1.1-1.5
				c1-1.3,2.2-2.3,3.1-3.4c0.3-0.4,0.7-0.7,0.9-1c0.1-0.1,0.1-0.3,0.2-0.5c0.4-0.5,0.8-1,1.1-1.5c0.2-0.3,0.4-0.5,0.6-0.8
				c0.4-0.5,1-0.9,1.3-1.4c0.2-0.2,0.2-0.6,0.3-0.9c0.1-0.2,0.2-0.3,0.2-0.5c0.2-0.6,0.1-0.5,0.5-0.7c0.8-0.3,1.1-1.8,1.8-1.8
				c-0.1,0,0.7,0.3,0.7,0.3c0.2,0.1,0.4,0.2,0.6,0.2c0.2,0.1,0.4,0.2,0.6,0.2c0.8,0.4,1.8,0.6,2.7,0.8c1.5,0.3,3.6,0.4,5.3,0.3
				c1.5-0.1,2.8-0.3,3.9-0.7c0.2-0.1,0.5,0,0.7-0.1c0.2-0.1,0.3-0.3,0.5-0.3c0.2-0.1,0.4,0,0.6-0.1c0.2-0.1,0.3-0.2,0.5-0.3
				c1.3-0.7,2.4-1.5,3.2-2.5c0.2-0.3,0.4-0.6,0.6-0.8c0.1-0.1,0.1-0.2,0.2-0.3c0.1-0.1,0.1-0.2,0.2-0.3c0.2-0.2,0.2-0.4,0.3-0.6
				c0.7-1.3,1.2-2.8,1.4-4.5C39.8,13.3,39.4,11.3,38.5,9.5z M10.6,26.5c0,0,0-0.1,0-0.1c0.2,0.1-0.1,1.1-0.6,1
				C9.8,27.4,10.4,26.5,10.6,26.5z M7.6,29.7c0.5-0.5,0,0.7-0.1,0.1C7.4,29.7,7.5,29.7,7.6,29.7z M13.4,27.1
				c-0.2,0.3-0.3,0.7-0.5,0.9c-0.2,0.3-0.5,0.4-0.7,0.7c-1,1.2-1.9,2.6-2.8,3.8c-0.7,0.8-1.2,1-1.7,1.7c-0.1,0.1-0.1,0.3-0.2,0.5
				c-0.2,0.2-0.5,0.3-0.7,0.6c-0.5,0.6-1,1.6-1.7,2.3c-0.5,0.6-0.6,0.7-1.3,0.2c-0.2-0.1-0.4-0.4-0.5-0.3c0.1-0.2,1-0.2,0.9-0.1
				c0.5-0.2,0.6-0.7,0.3-1.3c-0.2-0.5-0.5-0.5-0.3-0.7c0.3-0.3,1.8,0.4,2.3,0.1c0,0,0.3-0.6,0.3-0.7c0.1-0.4-0.4-0.9-0.3-1.1
				c0,0,0.3,0,0.3,0c0.2-0.1,0.8-0.5,0.9-0.9c0-0.2-0.5-1.1-0.3-1.5c0.1-0.3,0.6,0.2,1,0c0.1-0.1,0.1-0.2,0.2-0.2
				c0.2,0,0.4,0.1,0.6,0c0.5-0.2,0.6-0.3,0.8-0.8c0.2-0.4,0.3-0.2,0.7-0.5c0.3-0.2,0.6-0.7,0.8-1c0.1-0.1,0.2-0.2,0.2-0.2
				c0.1-0.3,0.2-0.8,0.3-1c0.1-0.2,0.8-0.4,0.9-0.7c0-0.1,0.2-0.7,0.1-1c0,0-0.2-0.3-0.1-0.3c0.2-0.1,0.9,0.7,0.9,0.9
				C13.9,26.3,13.6,26.7,13.4,27.1z M15.7,24.2c-0.3,0.5-0.3,0.6-1,0c-0.2-0.2-0.5-0.3-0.6-0.5c0-0.2,0.2-1,0.5-1.1
				c0.2-0.1,0,0,0.3,0.2c0.1,0.1,0.3,0.1,0.5,0.2c0.1,0.1,0.7,0.7,0.7,0.6C16,23.8,15.7,24.2,15.7,24.2z M37.6,16.5
				c-0.1,0.3-0.2,0.6-0.3,0.9c-0.1,0.3-0.1,0.7-0.2,1c-0.3,0.6-0.9,1.5-1.4,2.2c-0.1,0.1,0,0.3-0.1,0.3c-0.8,1-2.1,1.9-3.3,2.5
				c-0.3,0.1-0.4,0.2-0.7,0.3c-1.1,0.4-2.3,0.8-3.9,0.9c-2,0.1-3.8,0-5.7-0.5c-0.6-0.1-1.1-0.3-1.6-0.5c-1-0.4-2.1-1-3-1.6
				c-0.3-0.2-0.6-0.3-0.8-0.5c-0.1-0.1-0.2-0.3-0.3-0.5c-0.1-0.1-0.4-0.1-0.5-0.2c-0.1-0.1,0-0.3-0.1-0.3c-0.1-0.1-0.4-0.3-0.6-0.5
				c-0.1-0.1,0-0.3-0.1-0.3c-0.8-0.8-1.4-2-1.9-3.3c-0.6-1.5-1.1-3.2-0.7-5.6c0.3-1.6,1.1-3.1,2-4.2c0.4-0.5,0.9-1.1,1.6-1.7
				c0.2-0.1,0.4-0.2,0.6-0.3c0.1-0.1,0.2-0.3,0.3-0.5c0.1-0.1,0.4-0.1,0.6-0.2C17.7,4,17.9,3.9,18,3.8c0.3-0.2,0.7-0.5,1-0.7
				c0.3-0.2,0.7-0.5,1-0.6c0.5-0.2,1.1-0.1,1.6-0.2c0.5-0.1,1-0.2,1.7-0.2c0.8-0.1,1.8-0.2,2.5,0c0.2,0.1,0.2,0.3,0.5,0.3
				c0.4,0.1,0.9,0.1,1.3,0.2C28,2.7,28.4,3,28.7,3.1c0.5,0.2,0.9,0.2,1.4,0.5c0.4,0.2,0.8,0.5,1.3,0.8c2.1,1.4,4.3,3.6,5.5,6.3
				c0.1,0.3,0.1,0.5,0.2,0.8c0.1,0.2,0.3,0.4,0.3,0.6c0.2,0.6,0.3,1.4,0.3,2C37.8,14.7,37.7,15.7,37.6,16.5z M27,15
				c-0.3,0-1.5,0.3-1.7,0.2c0,0,0-0.5-0.1-0.7c0-0.6-0.1-0.9-0.1-1.5c0-0.2-0.1-0.6,0-0.7c0.1-0.1,0.7,0,1,0c0.4,0,0.8,0,1,0
				c0.9,0,3.4-0.1,3.7,0.3c0.2,0.2,0.1,1.2,0.1,1.5c0.1,0.3,0.1,0.9,0.5,0.8c0.1,0,0.2-0.1,0.2-0.2c0.2-0.3,0-0.6-0.1-0.8
				c-0.1-0.4,0-0.9-0.1-1.2c-0.1-0.7-0.6-0.9-1.2-1c-1.2-0.1-2.6,0-3.7,0c-0.4,0-1.1,0-1.2-0.1c-0.1-0.1,0-0.7,0-0.8
				c0-0.4-0.1-0.6,0.1-0.7c0.2-0.2,1.8,0.1,2.2-0.2c0.1-0.1,0.2-0.2,0.2-0.2c0.1,0,0.2,0.2,0.2,0.2c0.1,0,0.2,0,0.2,0
				c0.6-0.1,0.1-1.4,0.1-1.8c0-0.3,0.2-0.8,0.1-1c-0.2-0.2-1.4,0-2.1-0.1c-0.2,0-0.5-0.1-0.6-0.1C24.6,7,23,7,22.5,7.1
				c-0.2,0.1-0.3,0-0.5,0.1c-0.1,0.1-0.1,0.9,0,1.5c0,0.2,0.2,0.7,0.2,1c0.1,0.4-0.1,0.3,0.3,0.4c0.4,0.1,0.7,0.1,1.2,0.1
				c0.2,0,0.8-0.1,0.8,0c0,0,0,0.1,0,0.2c0,0.1,0,1.4-0.1,1.4c0,0-0.3,0-0.6,0c-0.3,0-0.4,0.1-0.5,0.1c-0.8,0.1-1.6,0.2-2.4,0.2
				c-0.4,0-0.9,0-1.2,0.1c-0.2,0.1-0.8,0.7-0.9,0.9c-0.1,0.4,0,0.8,0.1,1.2c0,0.6-0.2,1.1,0.2,1.1c0.3,0,0.2-0.4,0.2-0.6
				c0-0.1,0.1-0.2,0.1-0.3c0-0.3-0.1-0.6-0.1-0.8c-0.1-0.5,0.1-0.7,0.4-0.9c0.2-0.1,0.4-0.3,0.6-0.3c0,0,0.6,0.1,0.8,0.1
				c0.4,0,1.1,0,1.8-0.1c0.3,0,0.4-0.1,0.8-0.2c0.2,0,0.8-0.1,0.8,0c0,0.1-0.1,0.3-0.1,0.3c0,0.5,0,0.9,0,1.3c0,0.2,0.1,0.3,0.1,0.5
				c0,0.2,0.1,0.6,0,0.7c0,0-0.4,0-0.8,0.1c-0.3,0.1-0.6,0.2-0.6,0.3c0.1,0.2,0.8,0.1,1.1,0.1c1,0,1.4,0.1,2.3-0.1
				c0.3,0,1-0.2,1.1-0.1c0.1,0.1-0.1,0.2-0.1,0.2c-0.1,0.2-0.1,0.6-0.2,0.8c-0.1,0.4,0,1.1-0.1,1.2c0,0-0.2,0-0.2,0
				c-0.1,0-0.2,0.1-0.2,0.1c-1,0.1-1.8,0.1-2.5,0.2c-0.2,0-0.9,0.2-1,0.1c0,0,0-0.3,0-0.3c0-0.7-0.2-1.3-0.3-1.8
				c0-0.2,0-0.4-0.2-0.5c-0.4,0-0.2,1.4-0.2,1.5c0,0.7-0.1,1,0.1,1.2c0.1,0.1,0.1,0,0.3,0.1c0.2,0.1,0.3,0.2,0.5,0.2
				c0.3,0.1,0.8,0,1.4-0.1c0.5,0,1.1,0,1.5,0c0.2,0,1.5,0,1.5-0.1c0,0,0-0.2,0-0.3c0-0.6,0-1,0.1-1.4c0.1-0.3,0.4-1.3,0.2-1.6
				C28.2,15,27.4,14.9,27,15z M24.6,9.5c-0.4,0.1-1.1,0-1.6,0.1c0,0-0.3,0.1-0.3,0.1c-0.1-0.1,0-0.6,0-0.7c0-0.5-0.1-0.8-0.1-1
				c0,0,0-0.1,0-0.1c0,0,0-0.1,0.1-0.1c0.8,0,1.2,0,2.2,0c0.4,0,0.8,0,1.5,0c0.5,0,1.4,0,1.4,0c0.1,0.1-0.1,0.5-0.1,0.6
				c0,0.2,0.1,0.6,0.1,0.8c0.1,0.5-0.2,0.2-0.6,0.2c-0.3,0-0.8,0.1-1.4,0.1c-0.1,0-0.3,0-0.5,0c-0.1,0-0.2-0.1-0.3-0.1
				C24.9,9.4,24.8,9.4,24.6,9.5z M34.9,15.1c-0.1-0.1-0.2,0-0.3,0c-0.3,0-0.9-0.1-1.2-0.1c-0.4,0-0.9,0-1.3,0.1c-0.3,0-0.7,0-0.9,0
				c-0.2,0-0.8,0.2-0.9,0.2c-0.1,0,0-0.3-0.2-0.2c-0.1,0-0.1,0-0.2,0.1c0,0.1-0.1,0.5-0.1,0.6c0,0.2,0,0.6,0.1,0.9
				c0,0.9,0,1.8,0.2,2c0.2,0.1,0.9,0,1.2,0c0.6,0,1.2,0.1,1.8,0.1c0.4,0,0.8,0.1,1.1,0.1c0.1,0,0.3-0.1,0.3-0.1
				c0.1-0.1,0-0.1,0.1-0.2c0.1,0,0.1,0,0.2-0.1c0.3-0.1,0.1-1.1,0.2-1.6C34.9,16.4,35.1,15.4,34.9,15.1z M34.5,15.5
				c-0.3,0.2-0.1,2.5-0.2,2.6C34.3,18.2,34,18,33.9,18c-0.2,0-0.3,0-0.5-0.1c-0.7-0.1-1.8-0.1-2.5-0.1c-0.4,0-0.4,0-0.4-0.4
				c0-0.5-0.1-1.2-0.2-1.7c0-0.4,0.4-0.1,0.7-0.1c0.4,0,0.9,0,1.4,0c0.8,0,1.4,0.1,1.9-0.1c0,0,0.1-0.1,0.1-0.1
				C34.4,15.5,34.6,15.5,34.5,15.5z M21.6,16.9c-0.1-0.5,0-1.5-0.3-1.6c-0.1,0-0.2,0.1-0.2,0.1c-0.2,0-0.1,0.1-0.2,0.1
				c-0.8,0.1-2.1,0.2-2.9,0.2c-0.4,0-0.7,0.1-1,0.2c-0.5,0.1-0.5,0-0.6,0.3c-0.1,0.3-0.1,0.8-0.1,1.1c0,0.4-0.1,1.3,0.1,1.4
				c0.3,0.3,1.6,0.1,2.2,0.1c0.8,0,1.4,0,2,0c0.3,0,0.6,0,0.8,0c0.7-0.1,0.6-0.5,0.5-1.2C21.7,17.5,21.6,17.2,21.6,16.9z M21.2,18.2
				c-0.1,0.1-0.6,0-0.8,0c-0.4,0-0.9,0.1-1.5,0.1c-0.2,0-0.5-0.1-0.9-0.1c-0.5,0-1.3,0.2-1.2-0.1c0.1-0.2,0.1-0.6,0-1
				c0-0.1-0.1-0.3-0.1-0.3c0-0.1-0.1-0.3-0.1-0.3c0,0,1.6-0.2,1.7-0.2c0.8,0,1.4-0.1,2-0.2c0,0,0.1,0,0.1,0c0,0,0.3-0.2,0.5-0.1
				c0,0,0,0.4,0,0.6c0,0.2,0.1,0.4,0.1,0.5c0,0.3,0.1,0.5,0.1,0.8C21.1,18,21.2,18.2,21.2,18.2z"/>
		</g>
	</g>
</g>
</svg>
