<?xml version="1.0" encoding="utf-8"?>
<!-- Generator: Adobe Illustrator 28.3.0, SVG Export Plug-In . SVG Version: 6.00 Build 0)  -->
<svg version="1.1" id="Layer_1" xmlns="http://www.w3.org/2000/svg" xmlns:xlink="http://www.w3.org/1999/xlink" x="0px" y="0px"
	 viewBox="0 0 40 40" style="enable-background:new 0 0 40 40;" xml:space="preserve">
<style type="text/css">
	.st0{fill-rule:evenodd;clip-rule:evenodd;}
</style>
<g id="diagram08">
	<g>
		<path class="st0" d="M35.4,26.1c-0.3-0.2-0.5-0.4-0.8-0.6c-0.5-0.3-0.7-0.4-1.3-0.6c-0.8-0.3-1.6-0.6-2.4-0.9
			c-1.8-0.6-3.6-0.9-5.5-1.3c-0.6-0.1-1.2-0.3-1.9-0.5c-0.7-0.2-3.4-0.5-3.6-0.9c-0.1-0.2,0.1-1,0.1-1.5c0-0.6,0.1-1.1,0.1-1.5
			c0.1-0.7,0.3-2.1,0.3-2.9c0.3-2.2,0.4-4.7,0.5-6.1c0.1-1.5,0.1-3.5,0.1-4.6c0-0.6-0.2-1.5,0-2c0.5-1-2.2,0.2-2.4-0.1
			c-0.1-0.1,1.4-0.3,1.3-0.5c-0.2-0.3-2.9,0-2.9,0c-3,0.3-5.3,1.4-7.2,2.6C9.8,4.7,9.8,4.8,9.7,4.9C9.5,5,9.3,5,9.1,5.1
			C8.9,5.2,8.8,5.4,8.6,5.6c-0.7,0.5-1.3,1-1.9,1.5c-1.1,1-2.3,2.2-3,3.4c-0.1,0.1-0.2,0.1-0.2,0.2C3.3,11,3.2,11.4,3,11.8
			c0,0-0.2,0.1-0.2,0.1c-0.1,0.1-0.1,0.3-0.1,0.3C2.4,12.7,2.2,13,2,13.5c-0.1,0.2-0.3,0.4-0.3,0.6c-0.1,0.5,0,1.1-0.1,1.5
			c0,0.2-0.3,0.3-0.3,0.5c-0.3,0.5-0.3,0.8-0.5,1.4c-0.1,0.3-0.2,0.6-0.2,0.8c-0.1,0.6,0,1.2-0.1,1.9c-0.1,0.3-0.3,0.6-0.3,0.9
			c-0.2,1.6,0.2,2.5,0.3,3.7c0.1,0.7,0.1,1.4,0.3,2c0.1,0.4,0.5,0.7,0.7,1c0.2,0.4,0.3,0.9,0.5,1.3c0.2,0.4,0.4,0.8,0.6,1.2
			C2.7,30.6,3,31,3.2,31.3c0.1,0.2,0.1,0.4,0.2,0.6c0.1,0.2,0.5,0.6,0.6,0.7c0.2,0.3,0.3,0.6,0.6,0.8c0.5,0.5,1.3,1,1.6,1.5
			c0,0,0,0.2,0,0.2c0,0,0.2,0,0.2,0c3.4,2.9,9.2,3.8,14.2,2.9c0.6-0.1,1.3-0.2,2-0.3c0.3-0.1,0.5-0.3,0.8-0.3
			c1.4-0.5,2.8-0.9,3.8-1.5c0.1,0,0.2,0,0.2,0c0,0,0.1-0.2,0.1-0.2c0.2-0.1,0.4-0.1,0.5-0.1c0.4-0.2,0.7-0.5,1-0.7
			c1.3-0.8,2.8-1.9,3.7-2.9c0.1-0.1,0.1-0.3,0.2-0.5c0.1-0.1,0.3-0.1,0.3-0.2c0.1-0.1,0.1-0.3,0.2-0.5c0.1-0.1,0.2-0.2,0.3-0.3
			c0.1-0.2,0.3-0.5,0.3-0.6c0.4-0.4,0.7-1,0.9-1.5c0.3-0.6,0.8-1.7,0.7-2C35.9,26.2,35.7,26.2,35.4,26.1z M19.1,23.7
			c0,0,0.2-0.4,0.3-0.2C19.6,23.5,18.8,24,19.1,23.7z M17.2,5c0.3,0,0.4-0.1,1-0.1c0.1,0,1-0.1,1,0c0.1,0.1-0.2,1.5-0.2,1.7
			c-0.2,1.2-0.2,2-0.3,3.4c0,0.1,0.1,0.6,0,0.7c-0.2,0.3,0,0.2-0.2,0c-0.1-0.1-0.3-0.1-0.3-0.2c-0.1-0.1-0.1-0.3-0.2-0.5
			c-0.1-0.1-0.3-0.1-0.3-0.2c-0.2-0.3-0.3-0.6-0.5-0.8c-0.2-0.2-0.4-0.4-0.6-0.6c-0.1-0.1-0.1-0.3-0.2-0.5c-0.2-0.3-0.4-0.7-0.7-1
			c-0.2-0.3-1.1-1.2-1-1.4C14.7,5.2,16.5,5.1,17.2,5z M4.1,12.8c0.3-0.4,0.8-1.3,1-1.3c-0.1,0,1.3,2.3,1.4,2.4
			c1,1.6,1.9,2.6,2.8,3.9c0,0,0.2,0.1,0.2,0.1c0.3,0.8,1.1,1.4,1.7,2.2c0.3,0.3,0.3,0.3,0.6,0.7c0.1,0.1,0.4,0.4,0.6,0.6
			c0.1,0.1,0.1,0.3,0.2,0.5c0.1,0.1,1.5,1.3,1,0.2c-0.3-0.6-1-1.2-1.4-1.7c-0.1-0.2-0.1-0.3-0.2-0.5c-0.1-0.1-0.3-0.1-0.3-0.2
			c-0.4-0.5-0.7-1.1-1-1.5c-0.3-0.4-0.5-0.7-0.8-1c0,0-0.2-0.1-0.2-0.1c-0.2-0.5-0.8-1.1-1.2-1.6c-0.1-0.1-0.1-0.3-0.2-0.5
			c0,0-0.2-0.1-0.2-0.1c-0.3-0.8-1-1.4-1.6-2.3c-0.3-0.5-1-1.3-1-1.4c0-0.5,1.1-1.5,1.5-2c0.5-0.5,0.5-0.5,1.3-0.9
			C9.3,7.6,10.7,7,12,6.4c0.6-0.3,1.3-0.6,1.6-0.6c0,0,0.1-0.2,0.2-0.1c0.2,0.1,0.3,0.1,0.3,0.2c0.1,0.1,0,0.1,0.1,0.2
			c0.1,0.1,0.2,0.6,0.5,0.9c0.3,0.5,0.7,1,0.9,1.4c0.7,1,1.4,2,2,2.6c0.2,0.2,1,0.5,1,0.7c0.1,0.3-0.1,1.1-0.2,1.9
			c-0.3,1.8-0.6,3.7-0.7,5.5c0,0.5,0,1.1,0,1.6c0,0.6-0.2,0.8,0,1.5c0.2,0.7,0.3,0.5-0.3,1c-1,0.9-1.9,1.8-3,2.8
			c-0.2,0.2-0.4,0.4-0.6,0.6c-0.2,0.1-0.5,0.5-0.6,0.5c-0.2,0-0.7-0.8-1-1.3c-0.7-0.8-1.4-1.7-2.1-2.6c-0.1-0.1-0.4-0.3-0.5-0.5
			c0-0.1,0-0.2,0-0.2c-0.1-0.1-0.3-0.1-0.3-0.2c-0.1-0.1,0-0.2-0.1-0.3c-0.2-0.2-0.4-0.4-0.6-0.6c-0.6-0.8-1.2-1.8-1.9-2.8
			c0,0-0.2-0.1-0.2-0.1c0-0.1,0-0.2,0-0.2c0,0-0.2-0.1-0.2-0.1c-0.2-0.4-0.9-1.3-0.9-1.5c0-0.4,0.4-0.7,0.8-1
			c0.3-0.3,0.3-0.5-0.3-0.2c-0.4,0.1-0.8,0.8-1,0.6c-0.8-0.6,0.6-1.5,0.8-2.1c0.1-0.3,0.2-0.7,0-0.8c-0.3-0.2-1,0.5-1,0.6
			c-0.2,0.2-0.6,1.1-0.9,0.6C3.3,13.7,3.9,13.2,4.1,12.8z M4.7,17.8c0.2-0.1,0.1,0,0.3,0.3c0.1,0.2,0.2,0.3,0.3,0.5
			c0.6,0.6,0,0.7-0.6,1.4c-0.3,0.3-0.6,1-0.7,1c-0.2,0-0.7-0.6-0.7-0.9c0-0.4,0.9-1.6,1.2-2.1C4.7,17.9,4.5,17.8,4.7,17.8z
			 M2.5,16.2c0-0.2,0.3-1.4,0.5-1.5c0,0,0.3,0.3,0.3,0.3c0,0.1-0.4,0.8-0.6,1c0,0-0.3,0.2-0.2,0.2C2.3,16.3,2.5,16.3,2.5,16.2z
			 M2.8,17.8c0.1-0.1,0.7-1.4,1-1.4c0.8-0.1,0.1,1-0.3,1.6c-0.3,0.4-0.7,1.3-0.8,1.3c-0.2,0-0.5-0.4-0.5-0.8
			C2.3,18.4,2.7,17.9,2.8,17.8z M1.8,19.7C2,19.5,2.2,20.1,2,20.5c0,0-0.3,0.3-0.2,0.3C1.6,20.8,1.6,20,1.8,19.7z M2.3,24
			c0,0.1-0.1,0.4-0.1,0.3c-0.1,0-0.5-0.9-0.5-1.3c0-0.3,0.4-0.6,0.6-1c0.2-0.4,0.3-0.9,0.6-0.9c0.2-0.1,0-0.1,0.3,0.3
			c0.1,0.1,0.3,0.2,0.3,0.3c0,0.1-0.5,1-0.7,1.3C2.7,23.4,2.4,23.7,2.3,24z M2.8,26.8c0,0-0.2-0.3-0.1-0.6c0-0.2,0.4-1,0.6-1.3
			c0.4-0.8,0.8-1.4,0.9-1.6c0.1-0.1,0-0.2,0.1-0.2c0,0,0-0.1,0-0.1c0.1,0.1,1.3,1.2,0.7,1.5c-0.1,0.1-0.1,0.1-0.2,0.1
			c-0.6,0.4-1,0.8-1.4,1.5C3.4,26.2,3.1,26.9,2.8,26.8z M6.8,33.1c-0.2,0-0.5-0.6-0.6-0.7C6,32.1,5.7,32,5.6,31.7
			c-0.1-0.6,0.5-1.2,0.7-1.7c0.2-0.4,0.7-1.7,0.5-2c-0.3-0.3-0.9,0.8-1,1c-0.3,0.4-0.4,0.6-0.7,1.3c-0.2,0.4-0.4,0.2-0.6-0.2
			c-0.3-0.8,0.8-2,1.2-2.8C5.4,27.8,6.2,26.3,6,26c-0.2-0.4-1.1,0.9-1.3,1.2c-0.1,0.2-0.3,0.5-0.5,0.8c-0.1,0.2-0.3,0.5-0.3,0.6
			c0,0,0.1-0.1,0.1-0.1c-0.1,0.1-0.1,0.1-0.1,0.1c-0.2,0.2-0.6,0.1-0.4-0.6c0,0.1,0.3-0.4,0.3-0.5c0.3-0.7,0.4-0.9,0.8-1.5
			c0.2-0.3,0.5-0.7,0.7-1.2c0,0.1,0.2-0.2,0.1-0.2c0.2,0,1.1,1.4,1.3,1.6c0.5,0.7,0.9,1.2,1.3,1.5c0.2,0.1,0.8,0.4,1,0.6
			c0.1,0,0.1,0.3,0.2,0.2c0.3-0.1-0.2-0.3-0.2-0.3C9,28,8.8,27.6,8.6,27.3c-0.1-0.2-0.3-0.3-0.3-0.3c-0.5-0.7-0.9-1.2-1.2-1.6
			c-0.3-0.4-0.7-1.1-1.2-1.7c-0.5-0.6-1.2-1.3-1.2-1.6c0,0,0.4-0.6,0.6-0.9c0.2-0.4,0.5-0.7,0.6-0.8c0.1-0.1,0-0.2,0.1-0.2
			c0.1,0,0-0.1,0.1,0c1.2,1.7,1.7,2.4,3,4.1c1.2,1.5,1.9,2.3,3.6,3c0.5,0.2-0.3,0.7-0.6,0.9c-1.7,1.6-2.9,2.8-4.6,4.4
			C7.3,32.6,7.2,33.1,6.8,33.1z M26.7,34c0,0.1-1,0.5-1.5,0.7c-1.1,0.5-1.9,0.9-3,1.2c-0.7,0.2-1.3,0.2-1.7,0.3
			c-0.4,0.1-0.8,0.4-1,0.5c-1,0.1-2-0.2-3-0.2c-0.3,0-0.7,0.1-1,0.1c-1.2,0-2.9-0.4-4.2-0.8c-0.4-0.1-1.1-0.4-1.7-0.7
			c-0.1-0.1-0.2-0.3-0.3-0.3c-0.2-0.1-0.5-0.2-0.8-0.3c0,0-0.4-0.3-0.3-0.2c0-0.2,1.3-1.4,1.3-1.4c1.1-1.1,1.7-1.6,2.8-2.6
			c0.5-0.4,0.9-1,1.3-1.3c0.3-0.2,0.6-0.4,0.8-0.6c0.2-0.2,0.4-0.5,0.6-0.7c0.4-0.4,0.9-0.7,1.4-1.2c0.7-0.6,1.2-1.3,2-2
			c0.1-0.1,0.6-0.6,0.7-0.6c0,0,0.1-0.2,0.1,0c-0.1,1,0.6,1.2,1.3,2c0.2,0.2,0.3,0.5,0.5,0.7c1.5,1.9,2.4,3.1,4.2,5.1
			c0.3,0.4,1,1,1.2,1.2C26.1,33,26.9,33.6,26.7,34z M33.2,28c-0.1,0.1-0.2,0.3-0.2,0.5c0,0-0.2,0.1-0.2,0.1
			c-0.1,0.3-0.3,0.6-0.6,0.9c-0.7,0.9-1.4,1.7-2.4,2.6c-0.2,0.1-0.5,0.3-0.7,0.5c-0.3,0.3-0.5,0.6-0.9,0.2c0,0-0.2-0.1-0.2-0.1
			c-0.1-0.3-0.3-0.4-0.6-0.7c-1-1.1-1.9-2.3-2.9-3.5c-0.9-1-1.6-1.8-2.3-2.6c-0.1-0.2-0.3-0.3-0.5-0.6c-0.3-0.4-0.7-1-1.2-1.4
			c0,0-0.3-0.1-0.2-0.2c0-0.1,0-0.1,0.1-0.1c1.4,0.3,2.2,0.5,3.4,0.8c0.9,0.2,2,0.4,3.5,0.7c0.6,0.1,1.2,0.2,1.7,0.3
			c0.8,0.2,1.5,0.5,2.3,0.8c0.5,0.2,1,0.4,1.5,0.6C33.7,27.1,33.8,27,33.2,28z M12.1,9.9c0.3,0.4,0.8,0.8,1.2,1.2
			c0.1,0.1,0.1,0.3,0.1,0.3c0.3,0.4,0.7,0.6,0.9,1c0,0.1,0.4,0.4,0.5,0.5c0.3,0.3,0.7,0.5,0.9,0.7c0.2,0.2,0.8,0.6,0.9,0.3
			c0,0.1-0.2-0.3-0.2-0.3c-0.2-0.4-0.7-0.9-0.9-1.2c-0.9-1-1.8-1.9-2.6-2.8c-0.4-0.5-1.4-1.9-1.6-1.5c-0.2,0.4,0.6,1.4,0.7,1.5
			C12.1,9.7,12.1,9.8,12.1,9.9z M16.3,18.9C16.3,18.9,16.3,18.9,16.3,18.9C16.2,18.8,16.3,18.8,16.3,18.9z M15.4,19.4
			c0.2,0.2,1,0.6,1.2,0.5c0.1-0.1-0.1-0.7-0.2-0.9c-0.2-0.4-1-1.3-1.3-1.6c-0.1-0.1-0.2-0.4-0.2-0.5c-0.4-0.5-0.8-0.9-1.2-1.3
			c0,0,0-0.2,0-0.2c-0.1-0.1-0.4-0.4-0.5-0.5c-0.6-0.7-1.1-1.4-1.6-2.1c-0.4-0.5-0.7-1-1-1.4c-0.7-0.9-1.3-2.1-2.3-2.6
			C8,8.8,8,8.7,8,8.8C7.9,8.9,7.8,8.9,7.8,9.2c0.1,0.8,1.2,2.2,1.7,3c0.4,0.5,0.8,1.1,1,1.6c0,0,0.2,0.1,0.2,0.1c0,0.1,0,0.2,0,0.2
			c0,0,0.2,0.1,0.2,0.1c0.4,0.6,0.7,0.9,1,1.4c0.4,0.5,0.7,1,1,1.4C13.8,17.8,14.6,18.7,15.4,19.4z M19.3,27.2c0,0-0.1-0.8-0.3-0.9
			c-0.1-0.1-0.3,0.1-0.3,0.1c-0.2,0.1-0.3,0.4-0.2,0.7C18.5,27.4,19.1,27.6,19.3,27.2z M19.1,28.9c-0.1-0.2-0.9-0.5-1.2-0.1
			c-0.1,0.1-0.1,0.8,0.1,1c0,0,0.2,0,0.2,0c0.1,0.1,0.1,0.3,0.3,0.2C18.8,30,19.1,28.9,19.1,28.9z M15.1,30.3
			c-0.4,0.3,0,1.6,0.6,1.4C16.2,31.5,15.9,29.7,15.1,30.3z M21.6,30.4c-0.3,0.2-0.3,1.3,0,1.4C22.5,32.2,22.6,29.7,21.6,30.4z
			 M19,32.1c0,0,0,0.1,0,0.1c-0.4,0.3-0.4,1.3,0,1.6c0.3,0.3,0.8,0,0.8,0c0.2-0.2,0.3-0.7,0.2-1C19.9,32.4,19.2,32.2,19,32.1z
			 M23.8,32.8c-0.2,0.1-0.3,0.1-0.3,0.2c-0.1,0.4,0,1,0.5,1C24.6,34.1,24.5,32.5,23.8,32.8z M11.8,33.3c-0.5,0-1,0.2-1,0.2
			c-0.4,0.7,0.3,1.4,0.8,1.2c0.4-0.2,0.3-0.7,0.7-0.8c0.1,0,0.2-0.3,0.1-0.5C12.2,33,12.3,33.3,11.8,33.3z M13.8,33.4
			c-0.2,0.2-0.2,1.3,0,1.5c0.2,0.2,0.7,0.2,0.8,0.1c0.3-0.2,0.3-0.7,0.1-1C14.5,33.6,14.1,33.2,13.8,33.4z M40,19.1
			c0-1.8-0.2-2.7-0.5-3.9c-0.2-0.8-0.3-1.4-0.5-2.1c-0.3-1-0.8-1.9-1.2-2.7c-0.2-0.3-0.4-0.6-0.5-0.8c0-0.2,0-0.1,0-0.2
			c0.1-0.6,0.1-0.3-0.2-0.3c-0.3,0-0.4-0.6-0.6-0.8c-0.1-0.2-0.3-0.4-0.5-0.6c-0.2-0.3-0.4-0.7-0.6-0.9c-0.1-0.1-0.3-0.1-0.3-0.2
			c-0.1-0.1,0-0.3-0.1-0.3C35,6.1,34.9,6,34.9,5.9c-0.3-0.4-0.7-0.7-1-1c-0.5-0.5-1-1-1.6-1.4c-0.4-0.3-0.8-0.6-1.3-0.8
			c-0.8-0.4-2.1-0.9-3-1c-0.6-0.1-1.2,0.1-1.3,0.1c-0.2,0-0.1,0.1-0.2,0.1c-0.4,0.3-0.3,0.2-0.6,0c-0.7-0.6-0.7,0.9-0.8,1.6
			c-0.3,2.3-0.5,3.7-0.8,5.8c-0.3,1.9-0.7,3.9-0.9,5.7c-0.1,0.8-0.2,2.1,0,2.4c0,0,0.1,0.3,0.1,0.3c0.1,0.1,0.4,0,0.5,0.1
			c0.1,0.1,0,0.3,0,0.5c0.1,0.5,0.7,0.4,1.4,0.6c0.4,0.1,0.8,0.3,1.2,0.3c0.6,0.1,1.2,0.1,1.9,0.2c0.2,0,0.4,0.2,0.6,0.2
			c1.2,0.2,2.7,0.4,3.7,0.6c0.3,0.1,1.1,0.2,1.3,0.2c0.2,0.1,0.3,0.5,0.6,0.7c0.1,0,0.3,0,0.3,0c0,0,0.2,0.2,0.2,0.2
			c0.7,0.4,3.2,1.2,4.2,0.7c0,0,0.6-0.7,0.7-0.9C40.1,20.7,40,19.9,40,19.1z M32.8,6.5c0.2,0.2,0.5,0.4,0.8,0.7
			c0.1,0.1,0,0.3,0.1,0.3c0,0.1,0.2,0.1,0.2,0.1c0.3,0.4,1.4,2.1,1.4,2.2c0-0.1-0.4,0.3-0.3,0.2c-0.1,0-0.3,0.1-0.3,0.1
			c-0.4,0-0.5-0.5-0.8-0.8c-0.3-0.3-0.7-0.6-1-0.9c-0.3-0.3-0.9-0.8-0.9-1c0-0.4,0.6-0.9,0.8-0.9C32.8,6.5,32.6,6.4,32.8,6.5z
			 M30.7,11c-0.3-0.4-1-0.7-1-1.2c0-0.3,0.5-0.7,0.7-0.9c0.1-0.1,0.6-0.7,0.8-0.7c0.1,0,0.2-0.1,0.3,0c0.1,0.1,2.5,2.5,2.5,2.3
			c0,0.3-0.8,0.6-1,0.8c-0.3,0.2-0.5,0.3-0.8,0.6C32,12,32,12.2,31.8,12.2c-0.2,0-0.5-0.2-0.7-0.5C31,11.5,30.9,11.2,30.7,11z
			 M30.9,13c0,0.1-1.3,1.2-1.5,1.4c0,0-0.1,0.2-0.1,0.2c-0.3,0-0.6-0.7-0.8-0.9c-0.4-0.4-0.6-0.5-1-0.9c-0.6-0.6,0.2-0.8,0.8-1.4
			c0.2-0.2,0.2-0.5,0.5-0.6c0.3-0.1,0.3-0.1,0.6,0.2c0.2,0.2,0.4,0.5,0.7,0.8C30.3,12.2,30.9,12.8,30.9,13z M29.6,4.1
			c0.3,0.1,0.5,0.3,0.9,0.6c0.1,0.1,0.3,0,0.3,0.1c0.1,0.1,1.4,1,1.4,1.2c0,0.2-0.3,0.4-0.6,0.6c-0.6,0.5-0.6,0-1.2-0.6
			c-0.5-0.5-1-0.9-1.5-1.5c-0.3-0.4,0-0.1-0.3-0.5c-0.1-0.1-0.4-0.2-0.3-0.3C28.5,3.4,29.3,3.9,29.6,4.1z M26,2.8
			c0.2-0.3,0.3,0.1,0.5,0.2c0.2,0.1,0.6,0.1,0.7,0.1c-0.1,0,0.5,0,0.6,0.1c0,0-0.1,0.3-0.1,0.3c0,0.6,1,1.4,1.5,2
			c0.2,0.2,0.5,0.5,0.7,0.8c0.3,0.4,0.7,0.8,0.7,0.8c0,0.5-1.2,1.2-1.6,1.6c0,0-0.1,0.2-0.1,0.2c-0.4,0-0.8-0.9-0.9-1
			c-0.2-0.3-0.7-0.6-0.9-0.8c-0.3-0.3-0.7-0.6-0.8-0.9c0,0,0.1-1.8,0-2.8C26.1,3.3,26,2.9,26,2.8z M26,7.9c0,0,0-0.2,0-0.2
			c0.2-0.3,0.5,0.3,0.8,0.6c0.2,0.2,0.6,0.7,0.9,1c0.5,0.6,0.4,0.4-0.1,1c-0.4,0.5-0.5,0.6-0.9,1.2c-0.2,0.2-0.2,0.2-0.6-0.1
			c-0.1-0.1-0.3-0.3-0.3-0.5C25.6,10.2,26,8.8,26,7.9z M38.2,20.8c-0.3,0.3-0.8-0.7-0.8-0.7c-0.6-0.4-3.1-0.9-4.4-1.2
			c-1.1-0.2-1.7-0.3-3.1-0.6c-1.4-0.2-1.6-0.4-3.1-0.6c-0.3,0-1.7-0.1-1.7-0.1c-0.1-0.1,0.2-1.8,0.2-2.4c0-0.4,0.3-1.6,0.3-2.2
			c0.1-0.5-0.2-1,0.2-0.7c0,0,0.3,0.3,0.3,0.3c0.3,0.6,0.9,0.8,1.4,1.4c0.1,0.1,0.1,0.3,0.2,0.5c0.2,0.2,0.8,0.6,0.8,0.9
			c0,0.1-0.3,0.2-0.3,0.2c-0.1,0.1,0,0.3-0.1,0.3c-0.2,0.2-0.6,0.1-0.5,0.5c0.3,0.9,1.3-0.6,1.5-0.6c0.3,0,1,1,1.4,0.9
			c-0.1,0,0.1,0.2,0.1,0.1c-0.1-0.5-0.3-0.6-0.5-0.8c-0.1-0.1,0-0.1-0.1-0.2c0,0.1-0.4-0.4-0.3-0.5c0-0.3,0.6-0.7,0.8-0.9
			c0.1-0.1,0.7-0.8,0.9-0.8c0.5,0,1,1,1.4,1.3c0.1,0,0.8,0.4,0.8,0.6c0,0.3-1.3,1-1.4,1c-0.2,0.1-0.3,0.4-0.5,0.5
			c-0.2,0.1-0.8,0.5-0.6,0.8c0.6,1.1,3.1-1.4,3.5-1.4c0.2,0,0.4,0.1,0.6,0.2c0.1,0.1,0.3,0.4,0.5,0.3c0.1-0.1,0.1-0.2-0.1-0.5
			c0.1,0.1-0.4-0.3-0.3-0.5c0-0.4,0.7-0.9,0.8-0.9c0.1-0.2,0.8-1,0.7-1c-0.2-0.2-1.7,0.5-1.9,0.6c0,0-0.2,0.4-0.3,0.3
			c-0.3,0-0.7-0.6-1.2-1c0,0-0.2-0.1-0.2-0.1c0,0,0-0.2,0-0.2c-0.1-0.1-0.3,0-0.3-0.1c-0.1-0.1-0.1-0.2-0.1-0.2
			c0.1,0.1-0.3-0.4-0.3-0.3c0-0.4,0.9-0.8,1-0.9c0.1-0.1,0.2-0.2,0.2-0.2c0,0,0.9-0.6,0.8-0.6c0.3,0,1,0.8,1.4,1
			c-0.9-0.6,0.4,0.3,0.5,0.2c0.5-0.2-1.3-1.4-1.2-1.7c0,0.1,0.3-0.2,0.2-0.1c0.5-0.3,0.8,0.7,1,1.2c0.4,0.9,0.7,1.5,0.8,1.9
			c0.2,0.6,0.4,1.4,0.6,2.2c0.2,1.2,0.3,2,0.3,3.6C38.2,20,38.3,20.7,38.2,20.8z"/>
	</g>
</g>
</svg>
