<?xml version="1.0" encoding="utf-8"?>
<!-- Generator: Adobe Illustrator 28.3.0, SVG Export Plug-In . SVG Version: 6.00 Build 0)  -->
<svg version="1.1" id="Layer_1" xmlns="http://www.w3.org/2000/svg" xmlns:xlink="http://www.w3.org/1999/xlink" x="0px" y="0px"
	 viewBox="0 0 40 40" style="enable-background:new 0 0 40 40;" xml:space="preserve">
<style type="text/css">
	.st0{fill-rule:evenodd;clip-rule:evenodd;fill:#0E0E0E;}
</style>
<g id="document04">
	<g>
		<path class="st0" d="M36,34.2c-0.4-5.4,0.2-11.6-0.2-16.3c-0.1-1.1-0.5-2.7-0.6-3.6c-0.2-2.8-0.1-6.4,0-8.8
			c0.1-2.1,0.7-4.5-1.5-4.2c-0.6,0.1-0.5,0.2-0.8-0.3c-0.1-0.2-0.2-0.2-0.3-0.3c-0.8-0.7-2.6-0.5-4.4-0.6c-3.3-0.1-8.9,0-11,0.2
			c-1.2,0.1-2.4,0.2-3.8,0.3c-1.1,0.1-2.2,0.3-3.3,0.5c-1.6,0.2-3.8,0-5,0.6C5,1.6,4.9,1.9,4.7,2C4.6,2.1,4.5,2.1,4.4,2.2
			c-0.3,0.1-0.2,0-0.3,0.3c-0.5,1-0.1,3.2,0,4.5c0.1,3.6,0.1,6.4,0.3,9.5c0.4,5.1,0.3,8.2,0.6,14.2c0.1,1.3,0.2,3,0.3,4.7
			c0.1,1.4,0.2,3.8,0.8,4.2c0.2,0.2,1,0.2,1.7,0.3c1.8,0.2,4-0.1,5.4-0.2c1.4-0.1,2.7,0.1,3.9,0c0.5,0,1.1-0.3,1.7-0.3
			c3.2-0.2,5.7-0.1,9.5,0c2.1,0.1,6.6,0.4,7.4-0.5C36.3,38.4,36.1,36,36,34.2z M33.5,37c-0.2,0.2-2.9,0-3.5,0c-3.5,0-6.7-0.1-10,0.2
			c-3.3,0.3-7,0.5-10.9,0.9c-0.7,0.1-1.4,0.3-1.5,0.2c-0.3-0.3,0-1.7,0-2.1c0-0.8-0.2-1.4-0.3-2C7,30.1,7.1,24.5,6.8,20.9
			c-0.2-2.5-0.5-5.4-0.6-8.6C6.1,10.4,6,8.1,5.8,5.8C5.7,5,5.4,3.9,5.5,3.8c0.2-0.2,2.4-0.3,2.9-0.3c3-0.3,6.3-0.5,9.1-0.8
			c2.5-0.2,9.3-0.1,12.2,0c1,0,2.9-0.3,3-0.2c0.2,0.2,0,2.4,0,3c0,3.1-0.3,5.8,0,9.1c0.1,1.2,0.5,2.5,0.6,3.3
			c0.4,4.2-0.2,11.1,0,15.4c0,0.8,0.3,1.5,0.3,2.7C33.6,36.2,33.6,37,33.5,37z M11.2,14.3c0.1,0,0.7-0.3,0.9-0.6
			c0.2-0.2,0.3-0.8,0.5-1.1c0.5-1,0.9-2,1.4-2.6c0.1-0.1,0.3-0.3,0.5-0.6c0.6-1.1,0.7-2.7-1.2-2c-0.5,0.2-0.9,0.9-1.1,1.4
			c0,0-0.3,0.1-0.3,0.2c0,0.1,0,0.2,0,0.3c0,0.1-0.3,0.1-0.3,0.2c-0.2,0.4-0.7,1.9-1.1,2c-0.3,0-0.5-0.4-0.6-0.6
			c-0.3-0.4-0.9-1-1.4-1.1C8.2,9.7,7.6,10,7.6,10c-0.6,1,1.1,2.3,1.4,2.6C9.5,13.2,10.3,14.4,11.2,14.3z M18.3,10
			c0.2,0,0.3,0.5,0.5,0.6c0.6,0.5,1.5,0,2-0.3c0.6-0.3,0.3-0.1,0.8,0.2c1,0.6,2.2-0.9,2.9-0.9c0.1,0,0.5,0.6,0.6,0.6
			c0.9,0.3,1.9-0.4,2.3-0.6c0.1-0.1,0.1-0.3,0.3-0.3c0.1,0,0.3,0.3,0.8,0.3c1.5,0.1,0.9-1.9,0-2.1c-0.4-0.1-0.6,0.1-0.8,0.2
			c-0.7,0.1-1.4,1.1-2,1.1c-0.1,0-0.1-0.4-0.1-0.5C25,7.6,24.3,8,23.6,8.4c-0.4,0.2-0.8,0.8-1.4,0.8c-0.5,0-0.6-0.7-1.2-0.6
			c-0.5,0-1,1-1.5,0.9c0,0,0-0.4,0-0.5c-0.3-1.3-1.6-0.1-2-0.2c0,0-0.1-0.4-0.2-0.5c-1-0.5-1,1.3-0.5,1.8C17.1,10.4,18.1,10,18.3,10
			z M20.6,18.3c0.5,0,1-0.6,1.2-0.6c-0.1,0,0.3,0.3,0.3,0.3c1.2,0.7,2.5-0.7,3-0.8c0.1,0,0.4,0.2,0.6,0.3c0.3,0.1,0.5,0.2,0.9,0.2
			c0.1,0,1-0.7,1.1-0.8c0.2-0.3,0.3-1,0.2-1.2c-0.3-0.6-1.3,0-1.5,0c0,0-0.3-0.3-0.3-0.3c-0.4-0.2-0.8-0.1-1.1,0
			c-0.8,0.2-1.7,1.7-2.3,1.1c-0.2-0.2,0.1-0.2-0.3-0.3c-0.9-0.2-1,0.5-1.5,0.6c-0.2,0-0.1-0.2-0.2-0.3c-0.3-0.4-0.8,0-1.1,0.2
			c-0.5,0.3-0.5,0.4-0.9,0.3c-1.1-0.2-1,1.5-0.6,1.7c0.4,0.2,0.9-0.4,1.8-0.6C20.1,18,20.4,18.3,20.6,18.3z M9.8,20.7
			c0.1,0.1,0.5,0.2,0.6,0.3c0.6,0.6,0.9,1.2,1.7,1.2c0.8,0,1-0.5,1.2-0.9c0,0,0.3-0.1,0.3-0.2c0.2-0.2,0.5-1.2,0.6-1.4
			c0-0.1,0.1-0.5,0.2-0.6c0.3-0.5,1.7-0.8,1.5-1.8c-0.1-0.9-1-0.8-1.5-0.8c-0.2,0-0.9,0.4-1.2,0.8c-0.1,0.1,0,0.3-0.2,0.5
			c-0.1,0.1-0.4,0.1-0.5,0.2c-0.4,0.5-0.3,1.5-0.9,1.5c-0.2,0-1.1-1.2-1.1-1.2c-0.3-0.3-0.5-1-1.4-0.9c-1.1,0.1-0.8,1.2-0.6,1.7
			c0.3,0.6,0.7,0.9,1.1,1.2C9.8,20.4,9.7,20.6,9.8,20.7z M21,26c0.2,0.1,0.7-0.3,0.9-0.3c0.2,0,0.3,0.2,0.5,0.3c1,0.5,1.4-0.6,2-0.6
			c0.2,0,0.3,0.2,0.5,0.3c0.8,0.4,1.1-0.1,1.5-0.3c0.2-0.1,0.6-0.5,0.9-0.5c0.2,0,0.1,0.3,0.3,0.6c0.4,0.5,2.5,0.7,1.8-0.5
			c-0.1-0.1-0.7-0.3-1.1-0.8c-0.1-0.1-0.3-0.7-0.3-0.8c-1.4-0.5-1.8,0.8-2.7,0.9c-0.1,0-0.6-0.7-1.2-0.6c0,0-0.3,0.3-0.3,0.3
			C23,24.6,23,24,22.5,23.9c-0.3-0.1-0.7,0.2-1.2,0.2c-0.2,0-0.3-0.2-0.5-0.3c-0.4-0.2-0.6,0-0.6,0c-0.6,0.2-0.8,0-0.9,0.3
			C19.1,24.7,19.9,25.7,21,26z M13.5,30c0.5-0.1,0.6-0.6,0.9-0.9c0.1-0.1,0-0.1,0.2-0.3c0.2-0.3,0.5-0.4,0.8-0.6
			c0.1-0.1,0.2-0.3,0.3-0.5c0.1-0.1,0.3-0.1,0.5-0.2c0.5-0.4,1.5-1.4,1.4-2.1c-0.1-0.7-0.7-0.9-1.4-0.8c-0.4,0.1-0.6,0.4-0.9,0.6
			c-0.6,0.6-0.8,0.9-1.5,1.5c-0.8,0.7-0.9,0.9-1.2,0.2c-0.1-0.3-0.9-0.8-1.1-0.9c-0.1-0.1-0.2-0.6-0.6-0.8c-0.8-0.4-1.4,0.1-1.4,0.9
			c0.1,0.8,1,1.6,1.4,2C11.3,28.8,12.2,30.2,13.5,30z M29,31.8c-0.4-0.2-0.2-0.8-0.5-0.9c-0.4-0.3-0.8,0-0.9,0
			c-0.5,0-0.7,0.6-1.2,0.6c-0.5,0-0.8-0.4-1.4-0.3c-0.4,0.1-0.7,0.6-1.1,0.6c-0.1,0-0.4-0.2-0.5-0.3c-0.2-0.2,0-0.2-0.6-0.3
			c-0.7-0.1-0.7,0.4-1.2,0.5c-0.5,0-0.6-0.3-0.9-0.2c-0.7,0.2-1.1,0.7-1.1,1.1c0,0.4,0.7,0.3,0.9,0.5c0.4,0.3-0.2,0.6,0.5,0.6
			c1.1,0,1-1.3,1.8-1.2c0,0,0,0.4,0,0.5c0,0.2,0.7,0.6,0.8,0.6c0.5,0.1,1-0.9,1.7-1.1c0,0,0.4,0.3,0.5,0.3c0.9,0.4,1.4-0.5,2-0.5
			c0.4,0.1,0.3,0.4,0.5,0.6c0.7,0.7,2.4,0.2,2-0.9C30.1,31.5,29,31.8,29,31.8z M16.8,31.5c-0.2,0-0.4,0-0.6,0.2
			c-0.5,0.3-2.2,2.5-2.9,2.4c-0.6,0-0.8-1-1.2-1.2c-0.2-0.1-1.4-0.7-1.8-0.3c-0.4,0.4,0.4,1.4,0.5,1.5c0.3,0.3,0.5,0.5,0.8,0.8
			c0.3,0.3,1.3,1.6,2.3,1.5c0.7-0.1,1.2-0.9,1.5-1.4c0.1-0.1,0.2-0.1,0.3-0.2c0.1-0.1,0-0.3,0.2-0.5c0.1-0.1,0.4-0.1,0.5-0.2
			c0.3-0.2,1-0.9,1.1-0.9c0.3-0.3,0.5-0.2,0.8-0.6C18.8,31.3,17.7,31.3,16.8,31.5z"/>
	</g>
</g>
</svg>
