<?xml version="1.0" encoding="utf-8"?>
<!-- Generator: Adobe Illustrator 28.2.0, SVG Export Plug-In . SVG Version: 6.00 Build 0)  -->
<svg version="1.1" id="Layer_1" xmlns="http://www.w3.org/2000/svg" xmlns:xlink="http://www.w3.org/1999/xlink" x="0px" y="0px"
	 viewBox="0 0 126 120" style="enable-background:new 0 0 126 120;" xml:space="preserve">
<style type="text/css">
	.st0{fill:#6D8941;}
	.st1{fill:#0E0E0E;}
	.st2{fill:#FEF7E6;}
</style>
<path class="st0" d="M18.5,88L42,105.5l21.5,6L90,109l25-19.5l7-16.5l2-14.5L122,44l-6-14.5L105.5,16L90,5.5L80,2H67.5l-19,2
	l-13,5.5l-15,12l-9.5,17L9,65L18.5,88z"/>
<path class="st1" d="M65.6,119.9c30.3-1.1,51.8-19.7,56.4-42.7c10.1-26.2-1.4-57-29.8-72.5C81.9-0.9,68.9-0.9,57.6,1.6l-0.1,0
	c-17,0.4-33.6,8.6-44.3,21.8C2.4,36.5-2.1,54.4,0.9,71.1C6.2,99.7,31.5,121.2,65.6,119.9z M19.5,32.3c5.6-10.6,15.8-19.4,27.8-24.1
	c11.8-4.7,30.3-7.6,43.3-0.5c12.4,6.8,22.1,17.1,27.3,29.2c6.5,15.1,5.6,32.7-2.3,46.1c-7.5,12.6-21.3,21.6-37,24.2
	c-19.9,3.3-40.8-4.4-53.1-19.5C12.8,72.2,10.4,49.4,19.5,32.3z"/>
<path class="st2" d="M57.6,81.5c14.5-5.9,23.2-10.9,35.7-20.3c0.9-0.7,0.9-2.2-0.1-2.8C79.6,49.7,71.4,45,55.9,38.7
	c-1.2-0.5-2.5,0.5-2.3,1.7c1.2,13,1.8,26.3,1.7,39.4C55.2,81.1,56.5,81.9,57.6,81.5z"/>
</svg>
