<?xml version="1.0" encoding="utf-8"?>
<!-- Generator: Adobe Illustrator 28.3.0, SVG Export Plug-In . SVG Version: 6.00 Build 0)  -->
<svg version="1.1" id="Layer_1" xmlns="http://www.w3.org/2000/svg" xmlns:xlink="http://www.w3.org/1999/xlink" x="0px" y="0px"
	 viewBox="0 0 40 40" style="enable-background:new 0 0 40 40;" xml:space="preserve">
<style type="text/css">
	.st0{fill-rule:evenodd;clip-rule:evenodd;fill:#C65F55;}
	.st1{fill-rule:evenodd;clip-rule:evenodd;fill:#E3A825;}
	.st2{fill-rule:evenodd;clip-rule:evenodd;fill:#6E8940;}
	.st3{fill-rule:evenodd;clip-rule:evenodd;}
</style>
<polygon class="st0" points="10.7,29.2 4.5,29.2 4.8,39.4 10.2,39.4 "/>
<polygon class="st1" points="24.2,23.4 15.5,23.4 15.9,38.9 23.5,38.9 "/>
<polygon class="st2" points="37.5,13.8 28.7,13.8 29.2,38.4 36.7,38.4 "/>
<g id="diagram09">
	<g>
		<path class="st3" d="M28.7,9.5c0.3,0.4,0.6,0.7,0.7,0.8c0.5,0.6,1.1,1.4,1.8,1.3c1-0.1,1.5-2.4,1.9-3.9c0.4-1.2,0.8-2.3,1.1-3.3
			c0.1-0.4,0.4-0.8,0.5-1.1c0.2-0.6,0.3-1.8,0.2-2.2c0-0.1-0.5-0.8-0.5-0.8c-0.3-0.2-1.3,0-2.1,0c-1.6,0.1-3.7,0.1-5.4,0
			c-1.3-0.1-3.2-0.7-4.2-0.2c-0.3,0.2-0.5,0.2-0.6,0.6c-0.1,0.6,0.9,1.7,1.1,2.2c0.1,0.2,0.1,0.5,0.1,0.6C23.7,4,24,4.2,23.9,4.4
			c0,0-0.9,0.5-1,0.5c-0.4,0.2-0.4,0.5-0.7,0.7C22,5.8,21.7,5.8,21.5,6c-1,0.6-2,1.2-2.8,1.7c-1.2,0.7-2.5,1.1-3.9,1.7
			c-0.5,0.2-1.3,0.3-1.4,0.6c-0.2,0.4,0.1,1.2,0.2,1.7c0.2,0.6,0.4,1.2,0.5,1.4c0.2,1-0.1,1.5,0.4,1.8c0.2,0.1,0.4,0.2,0.6,0.4
			c0.1,0,0.2,0.2,0.2,0.2c0.4,0.1,1.3-0.2,1.9-0.5c0.6-0.2,1.3-0.5,1.7-0.7c0.8-0.4,1.7-0.8,2.4-1.2c0.1-0.1,0.3,0,0.5-0.1
			c0.1-0.1,0.3-0.3,0.4-0.4c0.6-0.3,1.1-0.5,1.6-0.8c0.2-0.2,0.5-0.3,0.7-0.5c0.3-0.2,0.8-0.5,1-0.6c0.3-0.3,1-0.8,1.2-1
			c0,0,0.2,0,0.2,0c0.1-0.1,0.4-0.4,0.5-0.5c0.4-0.3,0.5-0.6,0.7-0.6C28.2,8.6,28.5,9.1,28.7,9.5z M27.1,7.7
			c-0.3,0.1-0.3,0.2-0.5,0.4c0,0-0.6,0.3-0.5,0.4c-0.3-0.1-0.2-1.3-0.6-1.3c-0.4,0-0.4,0.4-0.5,0.7c-0.1,0.4,0.2,0.9,0.1,1.1
			c-0.1,0.4-0.5,0.5-0.8,0.8c0.1-0.1-0.5,0.3-0.5,0.4C23.5,9.9,23.9,8,23,8.2c-0.6,0.1-0.4,0.9-0.4,1.7c0.1,0.8,0.2,0.9-0.2,1.2
			c0,0-0.5,0.3-0.6,0.2c0.1,0-0.1-1.4-0.4-1.6c0,0-0.4-0.2-0.4-0.2c-0.6,0.1-0.4,0.7-0.5,1.6c0,0.3,0.3,0.8-0.1,1.1
			c-0.6,0.4-0.3-0.4-0.5-1.1c-0.2-0.7-0.2-0.8-0.5-0.8c-1.3-0.3-0.3,2.4-0.5,2.7c0,0-0.8,0.4-0.8,0.4c-0.2-0.2,0.4-2.3-0.6-2.2
			c-0.6,0.1-0.5,0.9-0.5,1.2c0,0.4,0,2.1-0.2,1.4c-0.3-0.9,0.5-2.8-0.5-3c-0.5-0.1-0.8,0.4-0.8,0.8c-0.1,0.5-0.1,0.5-0.2,0
			c-0.3-0.8,0-0.7,1-1.1c1.1-0.4,2.3-0.8,3.3-1.3c0.3-0.2,0.6-0.4,1-0.6c0.5-0.3,0.9-0.5,1.4-0.8c0.5-0.3,1.4-0.7,1.8-1.2
			c0.1-0.1,0.1-0.4,0.2-0.5c0.3-0.3,0.7-0.4,0.8-0.7c0.1-0.1-0.1-0.5,0-0.7c0-0.1,0.2-0.1,0.2-0.5c0-0.3-0.2-0.6-0.4-1.1
			c0-0.1-0.5-1.3-0.5-1.3c0.3-0.4,1.4,0.1,1.8,0.1c1.5,0.2,4.6,0.2,6.4,0.1c0.6,0,1.1-0.2,1.2-0.1c0,0-0.3,1-0.4,1.4
			c-0.2,0.6-0.3,1.1-0.4,1.3c-0.1,0.3-0.3,0.6-0.5,1.2C32.3,6,32.3,6,32.1,6.3c0,0.1-0.1,0.7-0.1,0.7c-0.5,0.2,0-0.9-0.7-1
			c-1-0.1-0.6,2.2-0.1,2.7c0,0,0.2,0.8,0,1.1c-0.3,0.3-1.2-1-1.4-1.3c-0.2-0.2-0.4-0.3-0.5-0.5c-0.1-0.4,0-1.8-0.5-1.9
			c-1-0.2-0.2,0.9-0.6,1.3C27.9,7.7,27.5,7.5,27.1,7.7z M38.1,15c-0.1-1.1,0.2-2.2-0.7-2.3c-0.1,0-0.3,0.1-0.2,0.1
			c-1.1-0.2-2.6,0-4.5,0c-1.1,0-3.6-0.2-4.1,0.2c-0.7,0.6-0.4,3.7-0.4,5.8c0,0.9,0,2.1,0,3.1c0,1.1-0.2,2.1-0.2,2.9
			c-0.1,3,0.2,6.2,0.2,9.1c0,1.3,0.4,2.8,0.1,3.6c0,0.1-0.2,0.1-0.2,0.4c0,0.1-0.1,1.2,0,1.3c0,0,0.7,0,1.1,0
			c1.4,0.1,2.6,0.1,3.5,0.1c1.2,0,3.6,0,4.2-0.5c0.4-0.3,0.1-0.5,0.4-1c0.1-0.2,0.3-0.3,0.4-0.4c0.5-0.6,0.1-1.7,0.1-2.7
			c0-1.7,0.2-3.3,0.4-5.6C38.4,25.1,38.3,19.3,38.1,15z M36.5,16.2c-0.2,3.6,0.1,6.3-0.1,10.5c-0.1,2.9-0.8,6.7-0.5,9.8
			c0-0.1,0.3,1.2,0.4,1.1c-0.3,0.4-2.5,0.1-3.1,0.1c-0.5,0-2.8,0.2-3.1-0.1c-0.1-0.1,0-2.7,0-2.8c0.1-0.2,0.5-0.2,0.7-0.4
			c0.5-0.3,0.8-0.5,1.1-1.1c0-0.1,0.4-0.4,0.1-0.6c-0.6-0.6-1.8,0.8-1.9,0.6c0,0,0-0.5,0-1c0-0.3-0.1-0.7,0-0.8
			c-0.1,0.1,0.9-0.2,1.1-0.2c0.2-0.1,0.6-0.6,1-0.8c0.1-0.1,0.3,0,0.4-0.1c0.5-0.5,1-1.1,0.8-1.3c-0.3-0.5-1.3,0.1-1.6,0.4
			c0,0-0.1,0.2-0.1,0.2c-0.2,0.1-0.4,0.2-0.6,0.4c0,0-0.1,0.2-0.1,0.2c-0.1,0-0.2,0-0.2,0c-0.4,0.4-0.7,1.1-0.7,0.1
			c0-0.1-0.3-1-0.1-1.3c0,0,1.1-0.3,1.4-0.5c0.5-0.3,1.1-0.8,1.4-1.4c0,0,0.2-0.4,0.2-0.4c-0.4-1.1-2,0.2-2.5,0.7
			c-0.9,0.8,0.4-0.3-0.4,0.4c-0.1,0.1-0.1,0.3-0.2,0.1c-0.1-0.2-0.1-1.2,0-1.4c0-0.1,0.9-0.6,1-0.7c0.4-0.3,0.6-0.6,0.8-0.8
			c0.2-0.2,1.7-1.4,1.6-1.7c-0.3-0.4-1.2,0.1-1.6,0.4c0,0-0.1,0.2-0.1,0.2c-0.4,0.2-0.9,0.7-1.3,1.1c0,0-0.2,0.4-0.4,0.2
			c-0.1-0.1,0.2-1.7,0.2-1.9c0-0.2-0.1-0.4,0-0.6c0.1-0.2,1.3-1.3,1.6-1.6c0.2-0.2,0.6-0.4,0.8-0.7c0.5-0.7,0.7-1.4-0.5-1
			c-0.6,0.2-1.8,1.6-1.9,1.3c-0.2-0.2,0-1.1,0-1.4c-0.1-1.2-0.1-2.7-0.2-4c0,0.1-0.3-0.9-0.1-1.1c0.1-0.1,2.6,0,2.8,0
			c0.2,0,1.3-0.1,2.2-0.1c0.3,0,2-0.2,2.2,0C36.8,14.1,36.5,15.7,36.5,16.2z M24.4,22.2c-0.1,0-0.2,0.1-0.1,0.1
			c-0.1,0-0.2,0.1-0.2,0.1c-1.2,0.2-2.9,0-4.7,0c-1.6,0-4-0.3-4.5,0.4c-0.4,0.5,0,1.7,0,2.3c0.1,3.7-0.5,7.3-0.4,10.7
			c0,0.9,0,3.1,0.4,3.4c0.4,0.3,1.9,0.1,2.8,0.2c0.8,0.1,1.5,0.3,2.1,0.4c0.7,0.1,1.8,0.1,2.7,0c0.7-0.1,1.2-0.2,1.6-0.5
			c0.6-0.4,0.5-0.3,0.6-1.2c0.1-0.5,0-1,0-1.3c0-0.2,0.1-0.2,0.1-0.5c0.1-4.2,0.5-7.9,0.4-12.2C25,23.1,25.2,22.3,24.4,22.2z
			 M16.1,38c-0.1-0.1,0.1-0.2,0.1-0.1C16.3,38,16.1,38.1,16.1,38z M23.3,28.1c0,0.7,0,1.3,0,1.9c-0.1,2.6-0.4,4-0.5,5.9
			c0,0.4,0.1,2.3,0,2.4c0,0-2.4,0.1-2.5,0c-0.1-0.1,0.5-0.8,0.2-1c-0.2-0.1-0.6,0.1-1,0.2c-0.3,0.1-0.6,0.4-0.7,0.5
			c-0.6,0.1-0.9-0.1-1.3-0.1c-0.1,0-0.5,0-0.5,0c0,0,1.5-1.1,1.6-1.2c0.1-0.1,1.4-1.2,1.2-1.4c-0.4-0.5-1.7,0.5-2.1,0.7
			c-0.3,0.2-0.8,0.6-1.2,1c-0.1,0.1-0.3,0.4-0.4,0.4c-0.3-0.2-0.1-1.6,0.1-1.8c0.1-0.1,0.2-0.1,0.2-0.1c0.1-0.1,0.3-0.2,0.5-0.4
			c0.6-0.5,1.1-1,1.8-1.6c0.2-0.2,0.1,0.1,0.5-0.4c0.6-0.7-0.2-0.5-1-0.1c-0.1,0.1-0.2,0.3-0.4,0.4c-0.4,0.3-0.5,0.4-0.8,0.7
			c-0.1,0.1-0.4,0.2-0.5,0.2c-0.3,0.3-0.5,0.9-0.7,0.7c-0.2-0.2,0.1-2.3,0.1-2.5c0-0.6,0.2-0.2,0.7-0.4c0.3-0.1,0.6-0.5,1.2-1.1
			c0.6-0.6,1-0.9,1.4-1.7c0.4-0.9,0.1-0.8-0.8-0.4c-0.5,0.3-1.1,0.9-1.4,1.3c-0.2,0.3-0.1,0-0.6,0.6c0,0-0.4,0.4-0.2,0.5
			c-0.2-0.1-0.2-1.2,0-1.7c0.1-0.4,0.4-0.4,0.7-0.8c0.2-0.3,0.3-0.9,0.6-1.3c0.2-0.3,0.8-0.6,0.7-1.1c-0.1-0.7-0.9-0.4-1.3,0
			c-0.1,0.1-0.6,0.8-0.5,0.8c-0.3-0.2-0.1-2.5-0.2-3.1c0,0-0.2-0.3-0.1-0.4c0.2-0.2,3.1,0,3.6,0c1.6,0,3-0.2,3.5,0
			c0,0,0.3-0.2,0.4-0.1C24,24.1,23.4,26,23.3,28.1z M11.9,30.7c-0.2-0.7-0.5-1-0.8-1c-0.9,0.2-0.4,4.2-0.6,5.7
			c0,0.1-0.3,0.5-0.4,0.8C9.8,37,10,38.5,9.8,38.6c-0.2,0.2-1.8-0.3-1.7-0.2C8,38.2,8.8,37.8,8,37.7c-0.8-0.1-0.8,0.5-1.2,0.6
			c-0.8,0.2-0.7-0.1-0.5-0.4C6.6,37.6,7,37,7.1,36.8c0.1-0.1,1.3-1.4,1.1-1.6c-0.2-0.2-0.6,0-1,0.2c-0.4,0.3-1.5,2-1.7,1.9
			c0,0,0-0.4-0.1-0.7c-0.1-0.4,0-0.5,0.2-0.7c0.4-0.5,0.9-1.1,1.2-1.6c0.2-0.3,1.9-1.9,1.3-2.2c0,0-0.2,0.2-0.2,0.2
			c-0.1,0-0.2,0-0.2,0c0,0-0.1,0.2-0.1,0.2C7.3,32.9,7,33,6.9,33.1c-0.8,0.6-1.4,2-1.6,1.7c-0.1-0.1,0-1.1,0-1.2
			c0,0,0.4-0.1,0.4-0.1C6,33.3,6,33,6.2,32.8C6.5,32.4,6.8,32,7,31.6c0.2-0.3,0.6-0.9,0.4-1.1c-0.6-0.6-1.3,0.7-1.4,0.8
			c-0.2,0.3-0.5,0.9-0.7,0.7c-0.1-0.1-0.1-0.9-0.1-1.1c0-0.2-0.4-0.9-0.2-1.1c0.1-0.1,0.9-0.1,1.4-0.1c1.1,0,4.3,0.3,4.5-0.1
			c0.4-0.7-0.7-1-1.4-1.1c-1-0.1-3.5,0.1-4,0.1c-0.3,0-1.3,0-1.6,0.4C3.3,29.7,3.9,31.2,4,32c0.1,1.4-0.1,3.3,0,4.5
			c0.1,0.6,0.4,1.2,0.2,1.7c0,0.1-0.2,0.2-0.2,0.2c0,0,0.5,1.4,0.5,1.3c0.4,0.3,1.9,0,2.3,0c1.6,0.1,3.7,0.8,4.3-0.4
			c0.1-0.2,0.1-0.5,0.2-0.7c0.2-0.5,0.4-1,0.5-1.3c0.1-0.7,0-1.5,0-2.3c0-1,0-2,0-2.7C11.8,31,12,31.2,11.9,30.7z M31.3,35.3
			c-0.2,0-0.3,0.1-0.5,0.1c0.1,0-0.5,0.2-0.5,0.1c-0.4,0.6,0.6,1,0.7,1c0.3,0,1.5-0.9,1.1-1.3C32,35,31.7,35.2,31.3,35.3z M4.6,22.8
			c0.1,0.1,0,0.7,0,1c0,0.4,0.3,1.4,0.6,1.4c0.1,0,0.3-0.7,0.4-1.2c0.1-0.6,0.1-1.2,0.2-1.4c0.1-0.1,0.7-0.2,0.9-0.1
			c0.1,0.1,0,1.1,0.1,1.4c0.1,0.3,0.3,0.8,0.4,0.8c0,0,0.1-0.2,0.1-0.2c0.1-0.3,0.1-0.4,0.2-0.7c0.1-0.4,0.1-0.7,0.2-1.1
			c0-0.2,0-0.7,0.1-0.7c0,0,0.3,0,0.4-0.1c0.4-0.1,0.5-0.2,0.8-0.4c0.3-0.3,0.5-0.5,0.7-0.8C9.9,20.4,10,20,10,19.5
			c0.1-1-0.2-1.6-0.5-2.1c-0.2-0.4-0.5-0.8-0.8-1.1c0,0-0.7-0.3-0.8-0.4c-0.1-0.2,0-0.8,0-1.3c0-0.4,0.1-0.8,0.1-1.2
			c0-0.4-0.1-1.2,0-1.3c0.1-0.1,0.4,0,0.6,0c0.5-0.1,1-0.2,1.1-0.6c0.1-0.3-0.1-0.7-0.2-0.8c-0.1-0.1-0.7-0.6-0.8-0.6
			C8.5,10,8.1,10.1,8,9.9C7.9,9.8,8,9.1,8,8.7c0-0.2,0.1-1.2,0-1.3C7.8,7.3,6.8,8.5,7.7,7.6C7.4,7.8,7.4,8.5,7.4,8.8
			c-0.1,0.6-0.2,1.4-0.5,1.6c-0.1,0.1-0.6,0-0.6,0c-0.1-0.1-0.1-0.6-0.1-1.2c0-0.5,0-1,0-1.3c0-0.1,0-0.4-0.1-0.4
			c0,0-0.3-0.1-0.4-0.1c0,0,0-0.1-0.1,0c0,0,0,0.1,0,0.1c-0.1,0.4-0.2,1.3-0.2,2c0,0.3,0.1,0.7,0,0.9c0,0.1-0.7,0.5-0.9,0.6
			c-0.1,0.1-0.2,0.1-0.3,0.1c0,0,0,0.1-0.1,0.1c0,0-0.1,0-0.1,0c0,0,0,0.1-0.1,0.1c-0.1,0.1-0.3,0.1-0.4,0.2c-0.3,0.2-0.8,0.7-0.9,1
			c0,0-0.1,0-0.1,0.1C2.3,13,2.2,13.5,2.1,14c0,0.2-0.1,0.5-0.1,0.7c0.1,0.5,1,1.1,1.4,1.4c0.1,0.1,0.3,0.1,0.4,0.2
			c0.1,0.1,0.2,0.2,0.4,0.3c0.3,0.2,0.7,0.3,0.8,0.6C5,17,5,17.4,4.9,17.5c-0.2,1,0.1,3.2-0.6,3.5c-0.2,0.1-0.7-0.1-1.1-0.1
			c-0.3,0-0.6,0-0.7,0c-0.2,0-0.6,0.2-0.7,0.4c-0.1,0.3,0.1,0.8,0.1,0.9c0,0,0.3,0.2,0.3,0.2c0.1,0.1,0.3,0.2,0.4,0.2
			c0.5,0.1,1.1,0.2,1.5,0.2C4.2,22.8,4.5,22.7,4.6,22.8z M7.9,18.1c0.2-0.3,0.7,1,0.5,1.5c-0.1,0.2,0,0.1-0.2,0.2
			c-0.5,0.4-0.3-0.4-0.3-0.8C7.9,18.9,7.8,18.2,7.9,18.1z M6.1,14.2c0-0.7,0.2-1.5,0.2-1.9c0,0,0-0.1,0-0.1c0,0,0.4-0.2,0.6-0.1
			c0.1,0,0,0.4-0.1,0.6c-0.1,0.9,0,1.8-0.1,2.7c0,0-0.1,0.3-0.1,0.2c-0.2,0.1-0.5-0.3-0.6-0.5C6,14.7,6.1,14.4,6.1,14.2z M5.8,20.2
			C5.9,19.3,6,18.3,6,17.4c0,0,0-0.1,0-0.1c0,0,0-0.1,0-0.1c0.8-0.1,0.8,1,0.7,1.9c0,0.7-0.2,1.5-0.2,1.6c0,0-0.3,0-0.4,0.1
			C5.6,20.9,5.7,20.8,5.8,20.2z M4.7,14.8c-0.1-0.1-0.3-0.1-0.4-0.2C4,14.5,3.7,14.1,3.7,14c0-0.1,0.2-0.3,0.3-0.4
			c0.2-0.3,0.2-0.4,0.6-0.7c0.1-0.1,0.3-0.2,0.3-0.2c0.1,0,0.2-0.1,0.3,0.1c0,0.1,0.1,0.2,0.1,0.2c0.1,0.3-0.2,1.1-0.2,1.4
			C5,15.1,5.3,15.1,4.7,14.8z"/>
	</g>
</g>
</svg>
