<?xml version="1.0" encoding="utf-8"?>
<!-- Generator: Adobe Illustrator 28.3.0, SVG Export Plug-In . SVG Version: 6.00 Build 0)  -->
<svg version="1.1" id="Layer_1" xmlns="http://www.w3.org/2000/svg" xmlns:xlink="http://www.w3.org/1999/xlink" x="0px" y="0px"
	 viewBox="0 0 40 40" style="enable-background:new 0 0 40 40;" xml:space="preserve">
<style type="text/css">
	.st0{fill-rule:evenodd;clip-rule:evenodd;}
</style>
<g id="credit_x5F_card">
	<g>
		<path class="st0" d="M39.9,25.6c-0.1-2.1,0.1-3.9-0.1-5.5c-0.1-0.6-0.1-1.2-0.3-1.7c-0.2-0.7-1.2-1.7-1.5-2.1
			c-0.2-0.2-0.1-0.4-0.3-0.6c-0.1-0.1-0.3-0.2-0.4-0.3c-0.5-0.4-0.4-0.4-1.1-0.6c-1-0.2-1.7,0-2.6,0c-1.1,0-2.5,0.1-3.5-0.3
			c-0.4-0.2-0.9-0.7-1.2-1.1c-0.1-0.1-0.3,0-0.4-0.1c-0.1-0.2,0-0.4-0.1-0.6c-0.2-0.2-0.5-0.4-0.7-0.6c-0.9-0.7-2-0.8-2.9-1.4
			c-0.2-0.1-0.4-0.5-0.7-0.7c-0.1,0-0.2,0-0.3,0c-0.2-0.1-0.4-0.5-0.6-0.6c-0.2-0.2-0.5-0.5-0.7-0.7C22.3,8.9,22,9,21.9,8.9
			c-0.3-0.1-0.5-0.3-0.7-0.4c0,0-0.1-0.2-0.1-0.3c-0.3-0.2-0.6-0.4-0.8-0.6c-0.2-0.1-0.4-0.2-0.6-0.3c-0.3-0.2-0.4-0.5-0.7-0.7
			c-0.1,0-0.2,0-0.3,0c0,0-0.1-0.2-0.1-0.3C18,6.1,17.5,6,17,5.7c-0.9-0.5-1.9-1-2.8-1.5c-1.4-0.8-2.8-1.6-4-1.8
			c-0.1,0-0.2,0.1-0.3,0.1c-1.7,0.1-2.2,0.8-3,2.2C6.2,5.9,5.7,6.8,5.3,7.5C5,7.8,4.9,8.1,4.7,8.5C4.2,9.3,3.5,10.1,3,10.8
			c-0.1,0.2-0.1,0.5-0.3,0.7c-0.1,0.2-0.5,0.4-0.6,0.6c-0.1,0.1,0,0.3,0,0.4c0,0.1-0.3,0.2-0.3,0.3c-0.1,0.3-0.2,0.5-0.3,0.8
			C1.5,14,1.2,14.4,1,15c-0.1,0.2-0.1,0.6-0.1,0.8c-0.1,0.3-0.3,0.5-0.4,0.7C0.1,17.2,0,17.8,0,18.2c0.1,1,1.3,1.6,1.8,2.1
			s1,0.9,1.5,1.4C4,22.2,4.5,23,5.4,23c0.5,0,0.3-0.5,0.6,0c0.1,0.2,0,0.9,0,1.4c-0.2,2.6,0,5.9,0.4,8.4c0.2,1.7,0.2,2.2,0.8,3
			c0.1,0.1,0.2,0.3,0.3,0.4c0.4,0.4,0.9,0.7,1.7,1c1.7,0.6,2.7,0.4,4.7,0.3c1,0,2.1,0,3.2,0c4.2,0,8.6-0.1,12.5-0.3
			c2.4-0.1,5.1-0.1,6.5-0.4c0.8-0.2,2.2-1.1,2.5-1.5c0.2-0.3,0.3-0.4,0.4-0.6c0.1-0.1,0.2-0.2,0.3-0.3c0.8-1.4,0.7-3,0.8-5.3
			C40,28.1,39.9,26.9,39.9,25.6z M9.4,4c0.1,0,0.3,0,0.4,0c0.7-0.1,2.2,0.5,3,1C12.9,5,13,5.3,13,5.3c0.9,0.4,2.1,1,3,1.5
			c1,0.5,2.1,1.2,3,1.9c0.2,0.2,0.4,0.4,0.7,0.6c0.6,0.4,1.5,1,2.2,1.5c0.2,0.2,0.5,0.4,0.7,0.6c0.4,0.4,1,0.8,1.7,1.1
			c1.3,0.7,1.1,0.3,2.2,1.1c0.1,0.1,0.2,0.1,0.3,0.1c0.1,0.1,0,0.2,0.1,0.3c0,0,0.4,0.5,0.4,0.4c-0.2,0.3-1.1,0-1.8,0
			c-1.4-0.1-3.7,0.3-4.4,0C20.9,14.3,21,14,21,13.8c-0.2-0.6-1.2-0.9-1.9-1.4c-0.3-0.2-0.5-0.4-0.8-0.6c-0.3-0.1-0.7-0.1-1-0.3
			c-0.2-0.1-0.4-0.5-0.7-0.7c-0.5-0.3-1.1-0.5-1.7-0.8c-0.3-0.2-0.6-0.4-1-0.7c-0.1,0-0.4-0.3-0.6-0.4c-1.2-0.8-2.5-1.5-4-2.4
			c-0.1-0.1-1.5-0.8-1.5-1C7.9,5.6,8.9,4.2,9.4,4z M19.5,14.3c0,0.4-1.1,0.4-1.2,0.3c-0.1-0.1,0.3-0.4,0.4-0.4
			c0.2-0.1,0.1-0.1,0.4,0C19.2,14.2,19.5,14.2,19.5,14.3z M16.5,14c0-0.1-0.1-0.2,0.1-0.2v-0.1c0.3,0.1,0.6,0.7,0.4,1
			s-1,0.2-1.1,0.1C15.8,14.5,16.4,14,16.5,14z M15.9,12.6c-0.1-0.1,0.2-0.2,0.3-0.1C16.3,12.5,16,12.7,15.9,12.6z M12.9,10.3
			c0,0.2-0.4,0.1-0.4,0C12.4,10,12.9,10.2,12.9,10.3z M11.1,10.3c-0.5,0.9-0.7-1-0.4-1.4V8.8c0.1,0,0.8,0.3,0.8,0.4
			C11.6,9.5,11.2,10,11.1,10.3z M11.4,11.9c0,0.2-0.1,0.1-0.1,0C11.2,11.8,11.4,11.8,11.4,11.9z M9.7,8.5c0,0-0.2,0.3-0.1,0.3
			c-0.3,0-0.4-0.4-0.3-0.6C9.5,7.9,9.9,8.1,9.7,8.5z M9.4,10.8c0-0.1,0.2-0.2,0.3-0.1C9.8,10.8,9.4,11.1,9.4,10.8z M8.6,8.2
			c-0.1,0-0.2-0.4-0.1-0.6C8.7,7.1,8.8,8.2,8.6,8.2z M6,8.7c0,0,1,0.2,1.2-0.1c0-0.1,0-0.3,0.1-0.3V8.2c0.4,0.2,0.1,0.6,0.1,0.7
			C7.5,9.8,8,10.2,7.1,9.7C7,9.6,7,9.7,6.9,9.6C7,9.6,5.7,9.1,6,8.7z M7.2,17.9c-0.1,0.2-0.1,0.7-0.3,1.1c-0.1,0.2-0.3,0.6-0.4,1
			c-0.1,0.5-0.3,1.1-0.4,1.7c-0.1,0.9-0.1,0.5-0.7,0c-0.2-0.2-0.5-0.4-0.7-0.6c-0.5-0.4-0.9-1-1.2-1.2c-0.1-0.1-0.3,0-0.4-0.1
			c-0.2-0.1-0.4-0.5-0.7-0.7C2.3,19,2.1,19.1,2,19s-0.6-0.5-0.7-0.7c-0.1-0.5,0.3-1.2,0.6-1.8c0.4-1,1-2.1,1.5-3
			c0.1-0.3,0.1-0.6,0.3-0.8C3.9,12,4.1,12,4.4,11.4c0.1-0.2,0-0.2,0.1-0.3c0.2-0.2,0.4-0.9,0.7-1C5.6,10,5.6,10,6.1,10.3
			c0.2,0.1,0.4,0.2,0.6,0.3C6.8,10.7,7,10.9,7.1,11c0.2,0.1,0.4,0,0.6,0.1c1.2,0.7,2.4,1.6,3.9,2.5c0.2,0.1,0.7,0.4,1,0.5
			c-0.1-0.1,1.7,0.7,0.7,0.8c-0.1,0-0.3,0-0.4,0c-1,0.3-0.4,0.4-0.8,0.6c-0.5,0.2-0.9,0-1.8,0.3c-0.3,0.1-1.5,0.9-1.7,0.8
			c-0.1,0-0.1-0.2-0.1-0.3c-0.1-0.1-0.7-0.1-0.8-0.3c-0.1-0.2,0-0.9-0.4-1.1c-0.4-0.2-0.6,0.5-1.1,0.1c-0.1-0.1-0.1-0.3-0.3-0.3
			c-0.2,0-0.6,0.2-0.8,0.4c-0.1,0.1-0.2,0.5-0.4,0.7C4.5,16,4,15.7,3.9,16.1C3.7,16.6,4,16.7,4,17.2v0.4c0.1,0.4,0,0.1,0.3-0.1
			c0.1-0.1,0.4-0.1,0.6-0.3c0.1-0.1,0.4-1.6,0.7-1c0.1,0.1-0.1,0.3,0,0.4C5.6,16.7,5.9,17,6,17c0.4,0.2,0.4-0.5,1-0.4
			c-0.1,0,0.1,0.3,0.1,0.3c0.1,0,0.2,0,0.3,0C8.1,17.2,7.5,17.3,7.2,17.9z M38.3,31.6c0,0.1-0.3,0.2-0.3,0.3
			c-0.2,0.5-0.2,0.6-0.7,1.1c-0.4,0.5-1.1,1.1-1.8,1.4c-0.7,0.3-1.7,0.3-2.5,0.4c-1.3,0.2-2.4,0.6-4.2,0.4c-0.4,0-0.9-0.3-1.2-0.3
			c-0.1,0-0.4-0.1-0.6,0c-0.3,0.1-0.2,0.5-0.8,0.6c-0.2,0-0.6-0.1-1-0.1c-2.2-0.1-5.3-0.1-7.7,0c-0.9,0-1.8,0.3-2.6,0.3
			s-2-0.1-3.2-0.3c-1-0.1-2.4-0.3-2.8-0.7c-0.4-0.3-0.8-1.8-1-2.5c-0.6-2.1-0.7-4-0.4-6.6c0.1-0.7,0.3-1.4,0.6-2.2
			c0.1-0.5,0.4-1.1,0.4-1.4c0-0.5-0.1-0.4-0.3-0.7C8,21,8,21.3,8.1,20.9c0-0.5,0.5-1.2,1-1.7C9.3,19,9.6,19,9.9,18.8
			c0.3-0.2,0.5-0.5,0.7-0.6c1-0.4,3.2-0.3,4.7-0.6c0.3-0.1,0.8-0.1,1.1-0.1c1-0.2,1.8-0.7,3-0.8c1-0.1,2.1,0,3,0
			c1.3,0,2.8,0.4,4-0.1l0.1-0.3c1.2-0.3,2.7,0.2,3.9,0.1c1.5,0,2.7-0.1,4.1,0c0.5,0,1.1-0.1,1.4,0c0.4,0.1,1.1,1,1.4,1.4
			c0.1,0.1,0.1,0.3,0.1,0.4c0.2,0.3,0.5,0.5,0.6,0.6c0.1,0.2,0,0.8,0.1,1.4C38.7,22.8,39.3,28.9,38.3,31.6z M12.4,14.1L12.4,14.1
			C12.7,14.3,12.7,14.2,12.4,14.1z M30.4,30.7c-0.2,0-0.5-0.6-1-0.7c-0.2,0-0.4,0.1-0.6,0.1c-0.5,0.2-0.4,0.2-0.8,0
			c-0.6-0.3-0.7,0.3-1.1,0.3c-0.2,0-0.4-0.4-0.6-0.4c-0.3-0.1-0.7-0.1-1.1-0.1c-0.7-0.2-1-0.4-1.4-0.1c-0.5,0.4-0.5,0.9-0.4,1.2
			c0.1,0.3,0.7,0,0.8,0.1c0,0,0.2,0.6,0.1,0.6c0.1,0.3,0.2,0.6,0.7,0.4c0.5-0.2,0.3-1.1,0.6-1.1c0.9-0.1,0.5,0.9,0.8,1
			c0.7,0.2,0.8-0.8,1.2-0.8c0.1,0,0.1,0.4,0.1,0.4c0.5,0.9,1.1-0.5,1.5-0.6c0.4,0-0.1,0.3,0.3,0.6l0.6,0.3c0.2,0,0.6-0.2,0.8-0.3
			c0.4-0.1,0.8-0.1,1.1-0.1c0.9-0.2,0.1-1.3,0.1-1.2C31.7,29.8,30.5,30.7,30.4,30.7z M21.2,30.3c-0.9,0-0.3,0.6-1.1,0.6
			c-0.2,0-0.2-0.4-0.7-0.4c-0.2,0-0.4,0.1-0.6,0c-0.7-0.3-0.7-1-1.7-0.6c-0.3,0.2-0.4,1.4-1.1,1.5c-0.1,0-0.4-0.5-1-0.7
			c-0.7-0.2-0.5,0.3-1,0.3c-0.2,0-0.2-0.2-0.3-0.3c-0.4-0.3-0.7,0-1,0.1c-0.6,0.3-0.5,0.2-0.8-0.1c-0.2-0.2-0.2-0.3-0.6-0.3
			c-0.6,0-0.9,0.9-1.2,0.7c-0.1,0,0-0.6,0-0.7c0-0.2-0.3-0.5-0.4-0.4c-0.3,0.2-0.4,2.1-0.1,2.4c0.7,0.5,1.4-0.9,1.4-1
			c0.6-0.6,0.6,0,0.7,0.4c0.5,1.5,1.1-0.5,1.7-0.4c0.3,0,0.1,0.3,0.3,0.4c0.7,0.8,0.7-0.3,1.2-0.4c0.3,0,0.8,0.7,1.2,0.7
			c0.2,0,0.7,0,0.8-0.1c0.4-0.3,0.2-1.1,0.7-1.1c0.4,0,0.7,1,1,1.1c0.1,0.1,0.5-0.1,0.8,0l0.4,0.3c0.7-0.1,1.1-1.3,1.2-0.6
			c0.1,0.2,0.1,0,0.3,0.1C22.5,32.5,22.3,30.4,21.2,30.3z M35.8,20.3c-0.2-0.1-0.3,0.1-0.8,0.2c-0.3,0-0.3,0-0.8-0.1
			c-0.6,0-0.7,0.1-0.8-0.1c-0.1-0.1-0.1-0.2-0.1-0.8c0-0.5,0-0.8-0.1-0.9s-0.3-0.2-1.4-0.2c-0.5,0-0.5,0-0.9,0
			c-1.1,0-1.4-0.1-1.6,0.1c-0.1,0.1,0,0.1-0.1,0.7c0,0.8-0.1,0.9-0.2,1c-0.1,0-0.2,0.2-0.7,0c-1.8-0.1-2,0.1-2,0.1
			c-0.1,0.2-0.1,0.4,0.1,0.9c0.1,0.3,0.2,0.4,0.2,0.7c0.3,0.9,0,1.4,0.3,1.6c0.2,0.1,0.4,0,0.8-0.1c0.5-0.1,0.9,0,1.2,0.1
			c0,0.3,0,0.6,0,1c0.1,0.9,0.2,1,0.2,1c0.2,0.2,0.5,0,1.3-0.1s0.7,0.1,1.4,0c0.8-0.1,1.7-0.3,1.7-0.4l0,0c-0.1-0.1-0.2-0.4-0.3-0.7
			c0-0.2-0.1-0.6,0.1-0.9c0.2-0.3,0.9-0.1,1-0.1c0.6-0.1,0.5,0,1-0.1c0.1,0,0.4-0.1,0.5-0.4c0.1-0.2,0-0.5-0.1-0.8
			C35.7,21,36.1,20.4,35.8,20.3z"/>
	</g>
</g>
</svg>
