<?xml version="1.0" encoding="UTF-8"?><svg id="Layer_1" xmlns="http://www.w3.org/2000/svg" viewBox="0 0 973.87 973.86"><defs><style>.cls-1{fill:#174ca1;fill-rule:evenodd;}</style></defs><path class="cls-1" d="M826.51,865.66c-76.34,67.26-176.34,108.2-285.47,108.2H0v-108.2H826.51Zm-513.8-108.22H0v-108.2H312.71v108.2Zm647.37-108.2c-9.98,38.35-25.1,74.69-44.6,108.2h-278.16v-108.2h322.76Zm-647.37-108.22H0v-108.2H312.71v108.2Zm661.16-108.2v108.2h-336.55v-108.2h336.55ZM420.91,216.41h494.56c19.51,33.52,34.63,69.85,44.6,108.21h-430.97v432.83h-108.2V324.62H0v-108.21H420.91ZM0,0H541.03c109.13,0,209.13,40.94,285.47,108.21H0V0Z"/></svg>