<?xml version="1.0" encoding="utf-8"?>
<!-- Generator: Adobe Illustrator 26.3.1, SVG Export Plug-In . SVG Version: 6.00 Build 0)  -->
<svg version="1.1" id="Layer_1" xmlns="http://www.w3.org/2000/svg" xmlns:xlink="http://www.w3.org/1999/xlink" x="0px" y="0px"
	 viewBox="0 0 500 500" style="enable-background:new 0 0 500 500;" xml:space="preserve">
<style type="text/css">
	.st0{fill:#FFFFFF;}
	.st1{fill:#C55F55;}
	.st2{fill:#6D883F;}
	.st3{fill:#E2A724;}
</style>
<circle class="st0" cx="250" cy="250" r="245.38"/>
<g>
	<path class="st1" d="M428.98,100.71c-16.34-19.56-35.81-36.41-57.67-49.75c-46.72,58.11-73.57,135.6-73.57,135.6L428.98,100.71z"/>
	<path class="st1" d="M482.7,236.28c-0.7-11.93-2.29-23.61-4.71-34.99l-54.87,48.78C432.47,243.63,464.1,238.7,482.7,236.28z"/>
	<path class="st2" d="M259.45,191.07c-14.51-8.1-51.14-41.05-87.09-74.89v127.45c15.02,17.27,63.07,99.85,63.07,99.85
		C230.17,287.92,259.45,191.07,259.45,191.07z"/>
	<path class="st1" d="M47.98,133.84C28.25,168.06,16.9,207.73,16.9,250.08c0,2.3,0.11,4.58,0.17,6.87l147.02,37.73
		C157.12,264.43,81.62,173.32,47.98,133.84z"/>
	<path class="st3" d="M463.49,156.38c-6.82-15.5-15.26-30.12-25.13-43.64l-93.31,67.07C407.28,171.97,444.87,162.21,463.49,156.38z"
		/>
	<path class="st1" d="M218.43,19.15c-31.36,4.25-60.72,14.72-86.83,30.15c48.8,51.05,111.33,92.22,111.33,92.22
		C236.73,130.77,226.43,70.83,218.43,19.15z"/>
	<path class="st3" d="M143.83,202.33l9.77-103.94c-14.39-13.74-27.99-26.91-39.21-37.85C95.7,73.93,79.08,90,65.09,108.21
		C108.37,152.74,143.83,202.33,143.83,202.33z"/>
	<path class="st2" d="M209.77,378.12c-8.16-16.85-15.63-34.64-15.63-34.64c-32.9-20.94-134.46-47.12-174.36-56.9
		c15.38,97.79,91.57,175.33,188.64,192.83c0.72-1.37,1.42-2.74,2.09-4.11C225.45,444.7,224.61,408.79,209.77,378.12z"/>
	<path class="st3" d="M275.22,152.78c5.11-19.82,60.83-91.32,77.27-112.12c-30.93-15.16-65.69-23.7-102.46-23.7
		c-3.85,0-7.67,0.11-11.47,0.29L275.22,152.78z"/>
	<path class="st3" d="M370.57,295.43c45.41,19.56,79.92,21.4,103.85,17.78c5.48-19.51,8.51-40.04,8.68-61.26
		C392.01,268.65,370.57,295.43,370.57,295.43z"/>
	<path class="st2" d="M466.49,336.59c-60.5-2.09-123.7-17.89-123.7-17.89c-16.52-2.25-66.82,42.04-66.82,42.04
		c3.13,51.08,14.26,88.45,29.88,115.67C379.21,458.38,438.87,405.64,466.49,336.59z"/>
	<path class="st2" d="M274.47,303.69c95.12-29.77,157.57-84.23,195.79-130.06c-0.18-0.52-0.34-1.04-0.53-1.56l-155.47,34.77
		C257.95,216.6,274.47,303.69,274.47,303.69z"/>
</g>
</svg>
