<?xml version="1.0" encoding="UTF-8"?><svg id="a" xmlns="http://www.w3.org/2000/svg" viewBox="0 0 376.57 84.65"><defs><style>.b{fill:#c55f55;}.c{fill:#5e5da8;}.d{fill:#fff;}.e{fill:#404041;}.f{fill:#e2a724;}.g{fill:#6d883f;}</style></defs><g><circle class="d" cx="42.33" cy="42.33" r="42.33"/><g><path class="b" d="M73.2,16.58c-2.82-3.37-6.18-6.28-9.95-8.58-8.06,10.02-12.69,23.39-12.69,23.39l22.64-14.81Z"/><path class="b" d="M82.46,39.96c-.12-2.06-.39-4.07-.81-6.04l-9.46,8.41c1.61-1.11,7.07-1.96,10.28-2.38Z"/><path class="g" d="M43.96,32.16c-2.5-1.4-8.82-7.08-15.02-12.92v21.98c2.59,2.98,10.88,17.22,10.88,17.22-.91-9.58,4.14-26.29,4.14-26.29Z"/><path class="b" d="M7.48,22.29c-3.4,5.9-5.36,12.75-5.36,20.05,0,.4,.02,.79,.03,1.19l25.36,6.51c-1.2-5.22-14.23-20.93-20.03-27.74Z"/><path class="f" d="M79.15,26.18c-1.18-2.67-2.63-5.2-4.33-7.53l-16.1,11.57c10.74-1.35,17.22-3.04,20.43-4.04Z"/><path class="b" d="M36.88,2.51c-5.41,.73-10.47,2.54-14.98,5.2,8.42,8.81,19.2,15.91,19.2,15.91-1.07-1.85-2.85-12.19-4.23-21.11Z"/><path class="f" d="M24.01,34.1l1.68-17.93c-2.48-2.37-4.83-4.64-6.76-6.53-3.22,2.31-6.09,5.08-8.5,8.22,7.46,7.68,13.58,16.23,13.58,16.23Z"/><path class="g" d="M35.39,64.42c-1.41-2.91-2.7-5.97-2.7-5.97-5.68-3.61-23.19-8.13-30.08-9.81,2.65,16.87,15.79,30.24,32.54,33.26,.13-.24,.24-.47,.36-.71,2.58-5.28,2.44-11.47-.13-16.76Z"/><path class="f" d="M46.68,25.56c.88-3.42,10.49-15.75,13.33-19.34-5.33-2.62-11.33-4.09-17.67-4.09-.66,0-1.32,.02-1.98,.05l6.32,23.38Z"/><path class="f" d="M63.12,50.16c7.83,3.37,13.78,3.69,17.91,3.07,.95-3.37,1.47-6.91,1.5-10.57-15.71,2.88-19.41,7.5-19.41,7.5Z"/><path class="g" d="M79.67,57.26c-10.44-.36-21.34-3.08-21.34-3.08-2.85-.39-11.53,7.25-11.53,7.25,.54,8.81,2.46,15.26,5.15,19.95,12.65-3.11,22.94-12.21,27.71-24.12Z"/><path class="g" d="M46.55,51.59c16.41-5.14,27.18-14.53,33.77-22.43-.03-.09-.06-.18-.09-.27l-26.82,6c-9.71,1.68-6.86,16.71-6.86,16.71Z"/></g></g><g><path class="e" d="M108.99,39.81c-2.16-.22-3.82-.61-4.97-1.17-1.15-.55-1.94-1.21-2.37-1.98-.43-.76-.64-1.56-.64-2.39,0-1.64,.69-2.85,2.08-3.64s3.11-1.17,5.16-1.15c1.17,0,2.18,.16,3.04,.48,.86,.32,1.61,.76,2.25,1.31,.64,.56,1.18,1.23,1.62,2.04,.3,.53,.76,.89,1.37,1.08,.61,.19,1.18,.12,1.71-.21,.47-.31,.74-.73,.81-1.27,.07-.54-.09-1.12-.48-1.73-.69-1.14-1.51-2.12-2.46-2.96-.94-.83-2.05-1.48-3.31-1.96-1.26-.47-2.74-.71-4.43-.71-2.16,0-4.13,.33-5.89,1-1.76,.67-3.16,1.64-4.18,2.91-1.03,1.28-1.54,2.83-1.54,4.66,0,2.5,.98,4.59,2.96,6.29s4.68,2.71,8.12,3.04c2.64,.28,4.53,1,5.68,2.16,1.15,1.17,1.73,2.48,1.73,3.95,0,1.17-.35,2.14-1.04,2.93-.69,.79-1.6,1.39-2.73,1.81-1.12,.42-2.35,.62-3.68,.62-1.19,0-2.33-.18-3.41-.54-1.08-.36-2.01-.83-2.77-1.41-.76-.58-1.31-1.22-1.65-1.92-.25-.53-.62-.92-1.1-1.19-.49-.26-.98-.34-1.48-.23-.69,.14-1.19,.46-1.48,.96-.29,.5-.3,1.04-.02,1.62,.55,1.3,1.43,2.45,2.62,3.45,1.19,1,2.59,1.78,4.21,2.33,1.61,.55,3.3,.83,5.08,.83,1.5,0,2.95-.19,4.35-.58s2.65-.98,3.75-1.77c1.1-.79,1.97-1.77,2.62-2.93,.65-1.17,.98-2.54,.98-4.12,0-2.75-.92-4.96-2.77-6.64-1.85-1.68-4.42-2.68-7.72-3.02Z"/><path class="e" d="M147.58,25.94c-.61,0-1.12,.2-1.54,.6-.42,.4-.62,.92-.62,1.56v19.44c0,1.5-.38,2.82-1.14,3.97-.76,1.15-1.82,2.05-3.16,2.71-1.35,.65-2.89,.98-4.64,.98s-3.41-.33-4.81-.98c-1.4-.65-2.5-1.55-3.29-2.71-.79-1.15-1.19-2.48-1.19-3.97V28.11c0-.64-.2-1.16-.6-1.56-.4-.4-.92-.6-1.56-.6s-1.12,.2-1.54,.6c-.42,.4-.62,.92-.62,1.56v19.44c0,2.25,.57,4.25,1.73,5.99,1.15,1.75,2.75,3.12,4.81,4.1,2.05,.98,4.41,1.48,7.08,1.48s4.87-.49,6.87-1.48c2-.98,3.56-2.35,4.68-4.1,1.12-1.75,1.69-3.75,1.69-5.99V28.11c0-.64-.19-1.16-.58-1.56-.39-.4-.9-.6-1.54-.6Z"/><path class="e" d="M169.8,27.32c-1.61-.92-3.46-1.37-5.54-1.37h-8.33c-.61,0-1.12,.2-1.54,.6-.42,.4-.62,.92-.62,1.56v28.18c0,.61,.21,1.12,.62,1.54,.42,.42,.93,.62,1.54,.62s1.16-.21,1.56-.62c.4-.42,.6-.93,.6-1.54v-9.12h6.16c2.08,0,3.93-.44,5.54-1.33,1.61-.89,2.86-2.12,3.77-3.7,.9-1.58,1.35-3.39,1.35-5.41s-.45-3.98-1.35-5.6c-.9-1.62-2.16-2.89-3.77-3.81Zm.13,12.74c-.56,.97-1.32,1.74-2.29,2.29-.97,.56-2.1,.83-3.37,.83h-6.16v-13.24h6.16c1.28,0,2.4,.29,3.37,.87,.97,.58,1.73,1.38,2.29,2.39,.55,1.01,.83,2.19,.83,3.52,0,1.25-.28,2.36-.83,3.33Z"/><path class="e" d="M194.52,27.32c-1.61-.92-3.46-1.37-5.54-1.37h-8.33c-.61,0-1.12,.2-1.54,.6-.42,.4-.62,.92-.62,1.56v28.18c0,.61,.21,1.12,.62,1.54,.42,.42,.93,.62,1.54,.62s1.16-.21,1.56-.62c.4-.42,.6-.93,.6-1.54v-9.12h6.16c2.08,0,3.93-.44,5.54-1.33,1.61-.89,2.86-2.12,3.77-3.7,.9-1.58,1.35-3.39,1.35-5.41s-.45-3.98-1.35-5.6c-.9-1.62-2.16-2.89-3.77-3.81Zm.13,12.74c-.56,.97-1.32,1.74-2.29,2.29-.97,.56-2.1,.83-3.37,.83h-6.16v-13.24h6.16c1.28,0,2.4,.29,3.37,.87,.97,.58,1.73,1.38,2.29,2.39,.55,1.01,.83,2.19,.83,3.52,0,1.25-.28,2.36-.83,3.33Z"/><path class="e" d="M230.99,30.21c-1.47-1.48-3.21-2.64-5.22-3.46-2.01-.82-4.24-1.23-6.68-1.23s-4.68,.41-6.7,1.23c-2.03,.82-3.77,1.97-5.22,3.46-1.46,1.48-2.59,3.24-3.39,5.27-.81,2.03-1.21,4.26-1.21,6.7s.4,4.68,1.21,6.72c.81,2.04,1.94,3.8,3.39,5.29s3.2,2.64,5.22,3.45c2.03,.82,4.26,1.23,6.7,1.23s4.67-.41,6.68-1.23c2.01-.82,3.75-1.97,5.22-3.45,1.47-1.48,2.61-3.25,3.41-5.29,.81-2.04,1.21-4.28,1.21-6.72s-.4-4.68-1.21-6.7c-.81-2.03-1.94-3.78-3.41-5.27Zm-.44,17c-.6,1.55-1.45,2.91-2.56,4.06-1.11,1.15-2.42,2.05-3.93,2.71-1.51,.65-3.17,.98-4.98,.98s-3.46-.33-4.97-.98c-1.51-.65-2.82-1.55-3.91-2.71-1.1-1.15-1.95-2.5-2.56-4.06-.61-1.55-.92-3.23-.92-5.04s.3-3.48,.92-5.04c.61-1.55,1.46-2.91,2.56-4.06,1.1-1.15,2.4-2.05,3.91-2.69,1.51-.64,3.17-.96,4.97-.96s3.46,.32,4.98,.96c1.51,.64,2.82,1.53,3.93,2.69,1.11,1.15,1.96,2.5,2.56,4.06,.6,1.55,.9,3.23,.9,5.04s-.3,3.48-.9,5.04Z"/><path class="e" d="M254.4,44.88c.15-.07,.31-.12,.46-.2,1.61-.83,2.86-1.98,3.77-3.45,.9-1.47,1.35-3.15,1.35-5.04,0-2.03-.45-3.8-1.35-5.33-.9-1.53-2.16-2.73-3.77-3.6-1.61-.87-3.46-1.31-5.54-1.31h-7.49c-.61,0-1.12,.2-1.54,.6-.42,.4-.62,.92-.62,1.56v28.18c0,.61,.21,1.12,.62,1.54,.42,.42,.93,.62,1.54,.62s1.16-.21,1.56-.62c.4-.42,.6-.93,.6-1.54v-10.36h5.33c.26,0,.5-.03,.75-.04l7.16,11.53c.22,.36,.49,.62,.81,.79,.32,.17,.67,.25,1.06,.25,.89,0,1.51-.35,1.87-1.06,.36-.71,.29-1.46-.21-2.27l-6.37-10.25Zm-10.41-2.95v-11.99h5.33c1.28,0,2.4,.26,3.37,.79,.97,.53,1.73,1.26,2.29,2.21s.83,2.03,.83,3.25c0,1.11-.28,2.1-.83,2.98-.56,.87-1.32,1.55-2.29,2.04-.97,.49-2.1,.73-3.37,.73h-5.33Z"/><path class="e" d="M285.66,25.94h-22.27c-.58,0-1.06,.19-1.44,.56-.37,.37-.56,.85-.56,1.44s.19,1.06,.56,1.44c.37,.37,.85,.56,1.44,.56h8.99v26.35c0,.61,.21,1.12,.62,1.54,.42,.42,.93,.62,1.54,.62s1.12-.21,1.54-.62c.42-.42,.62-.93,.62-1.54V29.94h8.95c.58,0,1.06-.19,1.44-.56,.37-.37,.56-.85,.56-1.44s-.19-1.06-.56-1.44c-.37-.37-.85-.56-1.44-.56Z"/><path class="c" d="M296.81,26.82c-.25-.58-.65-.87-1.21-.87-.58,0-.99,.29-1.21,.87l-12.61,29.85c-.19,.36-.19,.75,.02,1.17,.21,.42,.58,.62,1.1,.62,.28,0,.51-.06,.71-.19,.19-.12,.35-.33,.46-.6l3.08-7.37h16.93l3.09,7.37c.14,.28,.3,.48,.48,.6,.18,.13,.41,.19,.69,.19,.47,0,.83-.2,1.08-.6,.25-.4,.26-.8,.04-1.19l-12.65-29.85Zm-8.72,21.23l7.51-17.97,7.54,17.97h-15.05Z"/><path class="c" d="M327.45,40.76c1.36-.61,2.46-1.52,3.31-2.73,.85-1.21,1.27-2.62,1.27-4.22,0-1.53-.39-2.88-1.17-4.06-.78-1.18-1.8-2.11-3.08-2.79-1.28-.68-2.69-1.02-4.25-1.02h-10.2c-.36,0-.66,.11-.89,.33-.24,.22-.35,.53-.35,.92v30.01c0,.42,.15,.73,.46,.94,.3,.21,.69,.31,1.17,.31h10.45c1.86,0,3.51-.4,4.95-1.21,1.44-.8,2.57-1.92,3.39-3.35,.82-1.43,1.23-3.06,1.23-4.89,0-2.14-.58-3.91-1.73-5.33-1.15-1.42-2.67-2.39-4.56-2.91Zm-12.86-12.32h8.95c1.75,0,3.18,.47,4.31,1.39,1.12,.93,1.69,2.26,1.69,3.98s-.56,3.2-1.69,4.27c-1.12,1.07-2.56,1.6-4.31,1.6h-8.95v-11.24Zm15.74,24.17c-.61,1.04-1.44,1.86-2.5,2.46-1.05,.6-2.28,.89-3.66,.89h-9.57v-13.78h9.57c1.39,0,2.61,.29,3.66,.87,1.05,.58,1.89,1.39,2.5,2.41,.61,1.03,.92,2.21,.92,3.54s-.31,2.56-.92,3.6Z"/><path class="c" d="M353.11,56.21h-13.16V27.19c0-.36-.12-.66-.35-.89-.24-.24-.54-.35-.9-.35-.33,0-.62,.12-.87,.35-.25,.24-.37,.53-.37,.89v30.01c0,.36,.13,.66,.37,.9,.25,.24,.54,.35,.87,.35h14.41c.39,0,.69-.1,.92-.31,.22-.21,.33-.48,.33-.81s-.11-.6-.33-.81-.53-.31-.92-.31Z"/><path class="c" d="M375.33,55.96h-14.83v-12.49h13.78c.36,0,.66-.12,.9-.37,.23-.25,.35-.55,.35-.92s-.12-.66-.35-.89c-.24-.24-.54-.35-.9-.35h-13.78v-12.49h14.83c.33,0,.62-.12,.87-.37,.25-.25,.37-.54,.37-.87,0-.36-.13-.66-.37-.89-.25-.24-.54-.35-.87-.35h-16.07c-.36,0-.66,.12-.89,.35-.24,.24-.35,.53-.35,.89v30.01c0,.36,.12,.66,.35,.9,.23,.24,.53,.35,.89,.35h16.07c.33,0,.62-.12,.87-.35,.25-.24,.37-.53,.37-.9,0-.33-.13-.62-.37-.87s-.54-.37-.87-.37Z"/></g></svg>