<?xml version="1.0" encoding="UTF-8"?>
<svg id="Layer_1" data-name="Layer 1" xmlns="http://www.w3.org/2000/svg" version="1.1" viewBox="0 0 543.7 128.1">
  <defs>
    <style>
      .cls-1 {
        fill: #c55f55;
      }

      .cls-1, .cls-2, .cls-3, .cls-4, .cls-5, .cls-6 {
        stroke-width: 0px;
      }

      .cls-2 {
        fill: #404041;
      }

      .cls-3 {
        fill: #5c5cb8;
      }

      .cls-4 {
        fill: #6d883f;
      }

      .cls-5 {
        fill: #e2a724;
      }

      .cls-6 {
        fill: #fff;
      }
    </style>
  </defs>
  <g>
    <circle class="cls-6" cx="72" cy="63.1" r="58.4"/>
    <g>
      <path class="cls-1" d="M114.6,27.6c-3.9-4.7-8.5-8.7-13.7-11.8-11.1,13.8-17.5,32.3-17.5,32.3l31.2-20.4Z"/>
      <path class="cls-1" d="M127.4,59.9c-.2-2.8-.5-5.6-1.1-8.3l-13.1,11.6c2.2-1.5,9.8-2.7,14.2-3.3Z"/>
      <path class="cls-4" d="M74.3,49.1c-3.5-1.9-12.2-9.8-20.7-17.8v30.3c3.6,4.1,15,23.8,15,23.8-1.3-13.2,5.7-36.3,5.7-36.3Z"/>
      <path class="cls-1" d="M23.9,35.5c-4.7,8.1-7.4,17.6-7.4,27.7s0,1.1,0,1.6l35,9c-1.7-7.2-19.6-28.9-27.6-38.3Z"/>
      <path class="cls-5" d="M122.8,40.8c-1.6-3.7-3.6-7.2-6-10.4l-22.2,16c14.8-1.9,23.8-4.2,28.2-5.6Z"/>
      <path class="cls-1" d="M64.5,8.2c-7.5,1-14.5,3.5-20.7,7.2,11.6,12.2,26.5,22,26.5,22-1.5-2.6-3.9-16.8-5.8-29.1Z"/>
      <path class="cls-5" d="M46.8,51.8l2.3-24.7c-3.4-3.3-6.7-6.4-9.3-9-4.4,3.2-8.4,7-11.7,11.3,10.3,10.6,18.7,22.4,18.7,22.4Z"/>
      <path class="cls-4" d="M62.4,93.6c-1.9-4-3.7-8.2-3.7-8.2-7.8-5-32-11.2-41.5-13.5,3.7,23.3,21.8,41.7,44.9,45.9.2-.3.3-.7.5-1,3.6-7.3,3.4-15.8-.2-23.1Z"/>
      <path class="cls-5" d="M78,40c1.2-4.7,14.5-21.7,18.4-26.7-7.4-3.6-15.6-5.6-24.4-5.6s-1.8,0-2.7,0l8.7,32.3Z"/>
      <path class="cls-5" d="M100.7,73.9c10.8,4.7,19,5.1,24.7,4.2,1.3-4.6,2-9.5,2.1-14.6-21.7,4-26.8,10.3-26.8,10.3Z"/>
      <path class="cls-4" d="M123.6,83.7c-14.4-.5-29.4-4.3-29.4-4.3-3.9-.5-15.9,10-15.9,10,.7,12.2,3.4,21.1,7.1,27.5,17.5-4.3,31.7-16.8,38.2-33.3Z"/>
      <path class="cls-4" d="M77.8,75.9c22.6-7.1,37.5-20,46.6-31,0-.1,0-.2-.1-.4l-37,8.3c-13.4,2.3-9.5,23.1-9.5,23.1Z"/>
    </g>
  </g>
  <g>
    <g>
      <path class="cls-2" d="M144.4,80.6c1.7-1.1,3.2-2,4.8-2.9,1.8-1.1,2.4-.8,3.3,1.3.5,1.2,1,2.4,1.6,3.5,1.2,2.5,3.4,4.4,6.1,5.3,3.2.9,6.5-.8,7.7-3.8,1-2.6.8-5.6-.7-8-1.9-2.8-4.1-5.5-6.4-8-4.3-4.7-9.3-8.8-12.7-14.3-2.8-4.3-3.1-9.8-.7-14.4,2-3.9,5.6-6.6,9.9-7.3,1.3-.3,2.7-.5,4-.6,5.3-.2,10.3,2.4,13.3,6.8,2.8,3.5,2.7,3.8-.8,6.6-.8.7-1.6,1.3-2.6,2.1-.7-.8-1.3-1.5-2-2.2-1.1-1.2-2.4-2.4-3.7-3.4-2.5-1.8-5.8-1.8-8.3,0-1.3.9-2.3,2.3-2.6,3.9-.3,1.6,0,3.2,1,4.6,2.3,2.8,4.6,5.6,7.1,8.2,2.5,2.7,5.3,5.2,7.9,7.9,2.1,2.2,3.6,4.8,4.5,7.6.6,1.8,1.2,3.7,1.6,5.5.6,3,.1,6.1-1.2,8.8-1.1,2.8-3.1,5.1-5.8,6.6-6.8,3.9-15.5,2.6-20.9-3.1-1.5-2.1-2.7-4.3-3.6-6.7-.5-1.3-.8-2.6-1-3.9h0Z"/>
      <path class="cls-2" d="M207,32.6h7.9c0,1.6,0,3,0,4.4-.1,3.5-.4,7-.4,10.5,0,3,0,6.1.2,9.1.3,2,.3,4.1-.3,6.1-.1.4-.1.8,0,1.2.9,3,0,6,.3,9.1.3,3.3.2,6.6.2,9.8,0,3.2-1.1,6.4-3.1,8.9-2.3,3-5.8,4.8-9.5,4.8-3.4.3-6.8-.3-9.8-1.9-4-2.4-6.5-6.7-6.6-11.4-.2-2.6,0-5.2,0-7.8,0-10.8,0-21.6,0-32.3v-9.8c2.6-1.1,5.5-1.2,8.2-.3v2.6c0,14,0,28,0,42,0,1.2,0,2.5,0,3.7,0,1.7.7,3.3,1.7,4.6,1.2,1.8,3.4,2.7,5.5,2.2,2.6-.5,4.7-1.3,5.1-4.2.2-1.4.4-2.9.4-4.3,0-14.6,0-29.2,0-43.9,0-1,0-2,.1-3.3h0Z"/>
      <path class="cls-2" d="M234,70.1v26.2c-2.8,1.5-5.3,0-8.2,0,.1-21.1-.1-41.9,0-62.9,2.8-1,5.7-1.2,8.6-.8,1.6,0,5.4.3,7.1.5,3.2.5,5.9,2.6,7.2,5.6,2.5,5.1,3.3,10.8,2.4,16.4-.4,3.8-1.6,7.4-3.7,10.7-1.9,2.6-4.9,4.1-8.1,4.2-.9.1-4,0-5.4,0h0ZM234,41c0,3.4.2,6.9-.2,10.4-.3,3.5-.2,7.1.4,10.5.5,0,1.3,0,1.7,0,3.4.6,6.6-1.6,7.3-5,.2-.9.2-1.9.3-2.8.5-2.8.5-5.7-.1-8.5-.9-4.3-4.7-5.3-9.4-4.6h0s0,0,0,0Z"/>
      <path class="cls-2" d="M268,70.1v26.2c-2.8,1.5-5.3,0-8.2,0,.1-21.1-.1-41.9,0-62.9,2.8-1,5.7-1.2,8.6-.8,1.6,0,5.4.3,7.1.5,3.2.5,5.9,2.6,7.2,5.6,2.5,5.1,3.3,10.8,2.4,16.4-.4,3.8-1.6,7.4-3.7,10.7-1.9,2.6-4.9,4.1-8.1,4.2-.9.1-4,0-5.4,0h0ZM268,41c0,3.4.2,6.9-.2,10.4-.3,3.5-.2,7.1.4,10.5.5,0,1.3,0,1.7,0,3.4.6,6.6-1.6,7.3-5,.2-.9.2-1.9.3-2.8.5-2.8.5-5.7-.1-8.5-.9-4.3-4.7-5.3-9.4-4.6h0s0,0,0,0Z"/>
      <path class="cls-2" d="M292.2,61.8c-.6-4.4,1-9.8,2.2-15.1.6-2,1.5-3.9,2.6-5.7,1.6-3.3,4.1-6.1,7.3-7.9,2.9-1.6,6.2-2.1,9.4-1.6,3.2.6,6.1,2.3,8.3,4.7,2,2,3.5,4.4,4.5,7,1.6,3.8,2.7,7.8,3.4,11.8.1,1.2.4,2.3.4,3.5,0,3.1.2,6.2,0,9.3,0,3.8-.5,7.6-1.4,11.3-1.6,5.8-4.9,10.9-9.6,14.7-3.8,3-8.9,3.7-13.3,1.7-3.4-1.5-6.2-3.9-8.2-7-1.6-2.6-2.8-5.5-3.5-8.4-1.7-5.9-2.4-12.1-2.1-18.2h0ZM322.9,63.6c.3-5.1-.4-10.3-2.1-15.1-.7-3.6-3-6.7-6.2-8.6-2.6-1.8-6-1.3-8,1.1-2.6,2.7-4.4,6-5.2,9.7-2.1,8.4-2.1,17.2-.1,25.6.7,3.9,2.7,7.5,5.6,10.2,2.8,2.5,7.1,2.4,9.7-.3,3-3.5,5-7.7,5.6-12.3.4-3.5.7-6.9.7-10.4h0Z"/>
      <path class="cls-2" d="M340.1,33c1.3-.3,2.6-.4,3.9-.5,4.2,0,8.4.2,12.6.6,3.2.6,5.8,2.8,7,5.8,2.8,5.8,3.4,12.5,1.8,18.7-.5,2.9-1.6,5.7-3.3,8.1-.9,1.2-.5,2.6-.1,4,1,4,2,8,3,11.9,1.2,4.8,2.4,9.6,3.6,14.7-2,0-3.9.2-5.7.2-1.1,0-2.1-.7-2.3-1.8-1-4-1.8-8-2.7-12-.7-3-1.4-5.9-2.1-8.9-.3-1.3-.7-2.6-1-4h-7.2c-.3,2.1-.4,4.2-.4,6.3.3,6.5.1,13.1.1,19.6-2.6,1.4-4.6-.1-7.3,0-.2-3.5,0-7,0-10.4,0-3.5,0-7,0-10.5.2-3.5-.2-6.9-.1-10.4,0-3.5,0-7,0-10.5,0-3.5-.3-6.9,0-10.4-.2-3.6-.1-7.2.2-10.7h0ZM347.7,40.5v21.1h2.7c3.1,0,6.3-.6,7.2-3.6.5-1.5.8-3,.9-4.6.4-3,.2-6.1-.5-9.1-.5-2.3-2.5-3.8-4.8-3.8-1,0-4.2,0-5.5,0h0Z"/>
      <path class="cls-2" d="M392.1,95.9c-2.9,1.5-5.3,0-8.1.2-.4-9.3,0-18.6-.1-27.8-.1-9.3,0-18.6-.1-28.1h-10.1c-1.1-.9-1.5-2.4-1.1-3.7.3-1.1.4-2.3.6-3.7,9.7-.6,19.5,0,29.5,0,0,1.7,0,3.2,0,4.6,0,1.7-.3,2.1-1.9,2.4-1.1.2-2.3.3-3.5.3-1.7,0-3.3,0-5.3,0,0,4.8,0,9.4-.2,14.1-.3,4.7-.3,9.4,0,14.1.3,4.6,0,9.2.1,13.8-.2,4.6-.1,9.3.2,13.9h0Z"/>
      <path class="cls-2" d="M426.1,96.2l-1.9-9.5c-4.2-.5-8.5,0-13-.2l-1.7,9.6c-2.2.6-4.5.7-6.8.3-.4,0-.7-.2-.9-.5-.2-.3-.3-.7-.2-1.1.2-1.2.4-2.4.7-3.6.8-4.2,1.6-8.5,2.6-12.7,1.1-4.9,1.9-9.8,2.9-14.8,1-4.9,2-9.9,2.9-14.8.8-4.4,1.7-8.9,2.6-13.3.3-1.1.6-2.2,1.1-3.2h7c.5.9.9,1.8,1.1,2.8.3,3.4,1.5,6.6,1.6,10,.2,2.1.6,4.3,1.3,6.3.9,3.6,1.5,7.2,1.8,10.9.2,1.2.5,2.4.9,3.5,1.2,5.4,2.3,10.8,3.5,16.2.7,3.3,1.4,6.6,2.1,9.9.2.8.3,1.6.4,2.4,0,1.3-.2,1.8-1.5,1.9-2.1.2-4.2.1-6.3-.3h0ZM422.7,78.4c-.7-4.2-1.2-8.1-2.1-12-.5-4.1-1.5-8.1-2.9-12-1.4,3.9-2.3,8-2.7,12.2-.5,3.9-2.2,7.7-1.9,11.8h9.6Z"/>
      <path class="cls-2" d="M441.8,95.9c0-1.9,0-3.5,0-5.2.2-5.9-.4-11.8.4-17.7.1-2.6,0-5.2-.2-7.7,0-.5.2-1,.2-1.5.1-.9.2-1.9.1-2.8-.5-4.5-.6-9-.1-13.4,0-2.2,0-4.5-.3-6.7,0-2.5,0-4.9,0-7.5,2.8-1,5.8-1.2,8.8-.8,1.5,0,5.2.3,6.8.5,3.2.4,6,2.5,7.3,5.5,2.8,5.3,3.5,11.4,1.8,17.1-.5,1.8-1,3.6-1.6,5.6,2.5,2.8,4.3,6.3,5.1,10,.8,3.9.8,8,0,11.9-.5,2.8-1.5,5.5-2.9,8-1.8,3-4.9,4.8-8.3,5-3.1.3-8.4.5-11.5.5-1.8,0-3.7-.3-5.5-.6ZM450,88c.5.3.7.5.9.5,1,0,4.2,0,5.3,0,2.8.3,5.3-1.6,5.8-4.3,1.2-3.7,1.4-7.7.8-11.6-.1-1.6-.9-3.1-2.2-4.1-.5-.5-1.1-.9-1.9-1.1-3-.3-5.9-.2-8.9.1.1,7-.1,13.8.1,20.5h0ZM450.1,59c4.4.6,7.7-.1,8.9-3.8,1-2.9,1.2-6,.7-9.1-.4-2-1.8-3.8-3.6-4.8-1.9-1-4-1.1-6-.3v17.9Z"/>
      <path class="cls-2" d="M488.1,88.9c4.4,0,8.9.1,13.3.5.1.5.2,1.1.2,1.6,0,1.7,0,3.3,0,5.3-6.8.6-14.9,0-21.5.3-.4-2.6-.5-5.3-.3-7.9,0-2.6,0-5.3,0-7.9s0-5.3,0-7.9c0-2.7.1-5.5,0-8.2-.1-2.6.3-5.2,0-7.8-.2-2.6.2-5.3.2-7.9,0-2.6-.2-5.2-.2-7.9s0-5.2,0-7.9c2.6-1.2,5.2,0,8-.7.2,4,0,7.7,0,11.5,0,3.7,0,7.4,0,11.1,0,3.8-.2,7.6-.3,11.4-.1,3.6.5,7.2.1,10.9-.1,3.9,0,7.7.4,11.6h0Z"/>
      <path class="cls-2" d="M529.6,32.5c.6,2.3.7,4.7.2,7-3.8,1-8.7,0-12.8.7-.2,6.2-.1,12.4,0,18.7,3.2.8,7.6-.4,10.9.7,0,.9.2,1.7.2,2.5,0,1.6,0,3.1,0,4.8-3.4,1-7.8,0-11,.9v21c3.9.5,8.9-.3,12.9.6v6.9c-6.6.5-14.2,0-20.5.3-.1-.1-.3-.2-.4-.4,0,0-.1-.2-.1-.3,0-20.7-.1-41.3-.2-62,0-.5.1-1,.2-1.5h20.7Z"/>
    </g>
    <g>
      <path class="cls-3" d="M426.1,96.2l-1.9-9.5c-4.2-.5-8.5,0-13-.2l-1.7,9.6c-2.2.6-4.5.7-6.8.3-.4,0-.7-.2-.9-.5-.2-.3-.3-.7-.2-1.1.2-1.2.4-2.4.7-3.6.8-4.2,1.6-8.5,2.6-12.7,1.1-4.9,1.9-9.8,2.9-14.8,1-4.9,2-9.9,2.9-14.8.8-4.4,1.7-8.9,2.6-13.3.3-1.1.6-2.2,1.1-3.2h7c.5.9.9,1.8,1.1,2.8.3,3.4,1.5,6.6,1.6,10,.2,2.1.6,4.3,1.3,6.3.9,3.6,1.5,7.2,1.8,10.9.2,1.2.5,2.4.9,3.5,1.2,5.4,2.3,10.8,3.5,16.2.7,3.3,1.4,6.6,2.1,9.9.2.8.3,1.6.4,2.4,0,1.3-.2,1.8-1.5,1.9-2.1.2-4.2.1-6.3-.3h0ZM422.7,78.4c-.7-4.2-1.2-8.1-2.1-12-.5-4.1-1.5-8.1-2.9-12-1.4,3.9-2.3,8-2.7,12.2-.5,3.9-2.2,7.7-1.9,11.8h9.6Z"/>
      <path class="cls-3" d="M441.8,95.9c0-1.9,0-3.5,0-5.2.2-5.9-.4-11.8.4-17.7.1-2.6,0-5.2-.2-7.7,0-.5.2-1,.2-1.5.1-.9.2-1.9.1-2.8-.5-4.5-.6-9-.1-13.4,0-2.2,0-4.5-.3-6.7,0-2.5,0-4.9,0-7.5,2.8-1,5.8-1.2,8.8-.8,1.5,0,5.2.3,6.8.5,3.2.4,6,2.5,7.3,5.5,2.8,5.3,3.5,11.4,1.8,17.1-.5,1.8-1,3.6-1.6,5.6,2.5,2.8,4.3,6.3,5.1,10,.8,3.9.8,8,0,11.9-.5,2.8-1.5,5.5-2.9,8-1.8,3-4.9,4.8-8.3,5-3.1.3-8.4.5-11.5.5-1.8,0-3.7-.3-5.5-.6ZM450,88c.5.3.7.5.9.5,1,0,4.2,0,5.3,0,2.8.3,5.3-1.6,5.8-4.3,1.2-3.7,1.4-7.7.8-11.6-.1-1.6-.9-3.1-2.2-4.1-.5-.5-1.1-.9-1.9-1.1-3-.3-5.9-.2-8.9.1.1,7-.1,13.8.1,20.5h0ZM450.1,59c4.4.6,7.7-.1,8.9-3.8,1-2.9,1.2-6,.7-9.1-.4-2-1.8-3.8-3.6-4.8-1.9-1-4-1.1-6-.3v17.9Z"/>
      <path class="cls-3" d="M488.1,88.9c4.4,0,8.9.1,13.3.5.1.5.2,1.1.2,1.6,0,1.7,0,3.3,0,5.3-6.8.6-14.9,0-21.5.3-.4-2.6-.5-5.3-.3-7.9,0-2.6,0-5.3,0-7.9s0-5.3,0-7.9c0-2.7.1-5.5,0-8.2-.1-2.6.3-5.2,0-7.8-.2-2.6.2-5.3.2-7.9,0-2.6-.2-5.2-.2-7.9s0-5.2,0-7.9c2.6-1.2,5.2,0,8-.7.2,4,0,7.7,0,11.5,0,3.7,0,7.4,0,11.1,0,3.8-.2,7.6-.3,11.4-.1,3.6.5,7.2.1,10.9-.1,3.9,0,7.7.4,11.6h0Z"/>
      <path class="cls-3" d="M529.6,32.5c.6,2.3.7,4.7.2,7-3.8,1-8.7,0-12.8.7-.2,6.2-.1,12.4,0,18.7,3.2.8,7.6-.4,10.9.7,0,.9.2,1.7.2,2.5,0,1.6,0,3.1,0,4.8-3.4,1-7.8,0-11,.9v21c3.9.5,8.9-.3,12.9.6v6.9c-6.6.5-14.2,0-20.5.3-.1-.1-.3-.2-.4-.4,0,0-.1-.2-.1-.3,0-20.7-.1-41.3-.2-62,0-.5.1-1,.2-1.5h20.7Z"/>
    </g>
  </g>
</svg>