<?xml version="1.0" encoding="utf-8"?>
<!-- Generator: Adobe Illustrator 28.0.0, SVG Export Plug-In . SVG Version: 6.00 Build 0)  -->
<svg version="1.1" id="Layer_1" xmlns="http://www.w3.org/2000/svg" xmlns:xlink="http://www.w3.org/1999/xlink" x="0px" y="0px"
	 viewBox="0 0 400 100" style="enable-background:new 0 0 400 100;" xml:space="preserve">
<style type="text/css">
	.st0{fill:#FFFFFF;}
	.st1{fill:#C55F55;}
	.st2{fill:#6D883F;}
	.st3{fill:#E2A724;}
	.st4{fill:#F2F2F2;}
</style>
<g>
	<circle class="st0" cx="52.5" cy="50" r="42.3"/>
	<g>
		<path class="st1" d="M83.3,24.3c-2.8-3.4-6.2-6.3-9.9-8.6c-8.1,10-12.7,23.4-12.7,23.4L83.3,24.3z"/>
		<path class="st1" d="M92.6,47.6c-0.1-2.1-0.4-4.1-0.8-6L82.3,50C83.9,48.9,89.4,48.1,92.6,47.6z"/>
		<path class="st2" d="M54.1,39.8c-2.5-1.4-8.8-7.1-15-12.9v22c2.6,3,10.9,17.2,10.9,17.2C49,56.5,54.1,39.8,54.1,39.8z"/>
		<path class="st1" d="M17.6,30c-3.4,5.9-5.4,12.7-5.4,20c0,0.4,0,0.8,0,1.2l25.4,6.5C36.4,52.5,23.4,36.8,17.6,30z"/>
		<path class="st3" d="M89.3,33.9c-1.2-2.7-2.6-5.2-4.3-7.5L68.9,37.9C79.6,36.5,86.1,34.9,89.3,33.9z"/>
		<path class="st1" d="M47,10.2c-5.4,0.7-10.5,2.5-15,5.2c8.4,8.8,19.2,15.9,19.2,15.9C50.2,29.4,48.4,19.1,47,10.2z"/>
		<path class="st3" d="M34.1,41.8l1.7-17.9c-2.5-2.4-4.8-4.6-6.8-6.5c-3.2,2.3-6.1,5.1-8.5,8.2C28,33.2,34.1,41.8,34.1,41.8z"/>
		<path class="st2" d="M45.5,72.1c-1.4-2.9-2.7-6-2.7-6c-5.7-3.6-23.2-8.1-30.1-9.8c2.7,16.9,15.8,30.2,32.5,33.3
			c0.1-0.2,0.2-0.5,0.4-0.7C48.2,83.6,48.1,77.4,45.5,72.1z"/>
		<path class="st3" d="M56.8,33.2c0.9-3.4,10.5-15.8,13.3-19.3c-5.3-2.6-11.3-4.1-17.7-4.1c-0.7,0-1.3,0-2,0.1L56.8,33.2z"/>
		<path class="st3" d="M73.3,57.8c7.8,3.4,13.8,3.7,17.9,3.1c0.9-3.4,1.5-6.9,1.5-10.6C77,53.2,73.3,57.8,73.3,57.8z"/>
		<path class="st2" d="M89.8,64.9c-10.4-0.4-21.3-3.1-21.3-3.1c-2.8-0.4-11.5,7.3-11.5,7.3c0.5,8.8,2.5,15.3,5.2,20
			C74.7,85.9,85,76.8,89.8,64.9z"/>
		<path class="st2" d="M56.7,59.3c16.4-5.1,27.2-14.5,33.8-22.4c0-0.1-0.1-0.2-0.1-0.3l-26.8,6C53.8,44.2,56.7,59.3,56.7,59.3z"/>
	</g>
</g>
<g>
	<path class="st4" d="M119.1,47.5c-2.2-0.2-3.8-0.6-5-1.2c-1.2-0.6-1.9-1.2-2.4-2c-0.4-0.8-0.6-1.6-0.6-2.4c0-1.6,0.7-2.9,2.1-3.6
		c1.4-0.8,3.1-1.2,5.2-1.1c1.2,0,2.2,0.2,3,0.5c0.9,0.3,1.6,0.8,2.2,1.3c0.6,0.6,1.2,1.2,1.6,2c0.3,0.5,0.8,0.9,1.4,1.1
		c0.6,0.2,1.2,0.1,1.7-0.2c0.5-0.3,0.7-0.7,0.8-1.3c0.1-0.5-0.1-1.1-0.5-1.7c-0.7-1.1-1.5-2.1-2.5-3c-0.9-0.8-2-1.5-3.3-2
		c-1.3-0.5-2.7-0.7-4.4-0.7c-2.2,0-4.1,0.3-5.9,1c-1.8,0.7-3.2,1.6-4.2,2.9c-1,1.3-1.5,2.8-1.5,4.7c0,2.5,1,4.6,3,6.3s4.7,2.7,8.1,3
		c2.6,0.3,4.5,1,5.7,2.2c1.2,1.2,1.7,2.5,1.7,4c0,1.2-0.3,2.1-1,2.9c-0.7,0.8-1.6,1.4-2.7,1.8c-1.1,0.4-2.4,0.6-3.7,0.6
		c-1.2,0-2.3-0.2-3.4-0.5c-1.1-0.4-2-0.8-2.8-1.4c-0.8-0.6-1.3-1.2-1.6-1.9c-0.2-0.5-0.6-0.9-1.1-1.2c-0.5-0.3-1-0.3-1.5-0.2
		c-0.7,0.1-1.2,0.5-1.5,1c-0.3,0.5-0.3,1,0,1.6c0.6,1.3,1.4,2.5,2.6,3.5c1.2,1,2.6,1.8,4.2,2.3c1.6,0.6,3.3,0.8,5.1,0.8
		c1.5,0,2.9-0.2,4.3-0.6s2.7-1,3.7-1.8c1.1-0.8,2-1.8,2.6-2.9c0.7-1.2,1-2.5,1-4.1c0-2.7-0.9-5-2.8-6.6
		C125,48.8,122.4,47.8,119.1,47.5z"/>
	<path class="st4" d="M157.7,33.6c-0.6,0-1.1,0.2-1.5,0.6c-0.4,0.4-0.6,0.9-0.6,1.6v19.4c0,1.5-0.4,2.8-1.1,4
		c-0.8,1.2-1.8,2.1-3.2,2.7c-1.3,0.7-2.9,1-4.6,1c-1.8,0-3.4-0.3-4.8-1c-1.4-0.7-2.5-1.6-3.3-2.7c-0.8-1.2-1.2-2.5-1.2-4V35.8
		c0-0.6-0.2-1.2-0.6-1.6c-0.4-0.4-0.9-0.6-1.6-0.6c-0.6,0-1.1,0.2-1.5,0.6c-0.4,0.4-0.6,0.9-0.6,1.6v19.4c0,2.2,0.6,4.2,1.7,6
		c1.2,1.7,2.8,3.1,4.8,4.1c2.1,1,4.4,1.5,7.1,1.5c2.6,0,4.9-0.5,6.9-1.5c2-1,3.6-2.4,4.7-4.1c1.1-1.7,1.7-3.7,1.7-6V35.8
		c0-0.6-0.2-1.2-0.6-1.6C158.9,33.8,158.4,33.6,157.7,33.6z"/>
	<path class="st4" d="M179.9,35c-1.6-0.9-3.5-1.4-5.5-1.4h-8.3c-0.6,0-1.1,0.2-1.5,0.6c-0.4,0.4-0.6,0.9-0.6,1.6V64
		c0,0.6,0.2,1.1,0.6,1.5c0.4,0.4,0.9,0.6,1.5,0.6c0.6,0,1.2-0.2,1.6-0.6c0.4-0.4,0.6-0.9,0.6-1.5v-9.1h6.2c2.1,0,3.9-0.4,5.5-1.3
		c1.6-0.9,2.9-2.1,3.8-3.7c0.9-1.6,1.4-3.4,1.4-5.4c0-2.1-0.5-4-1.4-5.6C182.8,37.2,181.5,35.9,179.9,35z M180.1,47.7
		c-0.6,1-1.3,1.7-2.3,2.3c-1,0.6-2.1,0.8-3.4,0.8h-6.2V37.6h6.2c1.3,0,2.4,0.3,3.4,0.9c1,0.6,1.7,1.4,2.3,2.4c0.6,1,0.8,2.2,0.8,3.5
		C180.9,45.7,180.6,46.8,180.1,47.7z"/>
	<path class="st4" d="M204.7,35c-1.6-0.9-3.5-1.4-5.5-1.4h-8.3c-0.6,0-1.1,0.2-1.5,0.6c-0.4,0.4-0.6,0.9-0.6,1.6V64
		c0,0.6,0.2,1.1,0.6,1.5c0.4,0.4,0.9,0.6,1.5,0.6c0.6,0,1.2-0.2,1.6-0.6c0.4-0.4,0.6-0.9,0.6-1.5v-9.1h6.2c2.1,0,3.9-0.4,5.5-1.3
		c1.6-0.9,2.9-2.1,3.8-3.7c0.9-1.6,1.4-3.4,1.4-5.4c0-2.1-0.5-4-1.4-5.6C207.5,37.2,206.3,35.9,204.7,35z M204.8,47.7
		c-0.6,1-1.3,1.7-2.3,2.3c-1,0.6-2.1,0.8-3.4,0.8H193V37.6h6.2c1.3,0,2.4,0.3,3.4,0.9c1,0.6,1.7,1.4,2.3,2.4c0.6,1,0.8,2.2,0.8,3.5
		C205.6,45.7,205.3,46.8,204.8,47.7z"/>
	<path class="st4" d="M241.1,37.9c-1.5-1.5-3.2-2.6-5.2-3.5c-2-0.8-4.2-1.2-6.7-1.2c-2.4,0-4.7,0.4-6.7,1.2c-2,0.8-3.8,2-5.2,3.5
		c-1.5,1.5-2.6,3.2-3.4,5.3c-0.8,2-1.2,4.3-1.2,6.7c0,2.4,0.4,4.7,1.2,6.7c0.8,2,1.9,3.8,3.4,5.3c1.5,1.5,3.2,2.6,5.2,3.5
		c2,0.8,4.3,1.2,6.7,1.2c2.4,0,4.7-0.4,6.7-1.2c2-0.8,3.8-2,5.2-3.5c1.5-1.5,2.6-3.2,3.4-5.3c0.8-2,1.2-4.3,1.2-6.7
		c0-2.4-0.4-4.7-1.2-6.7C243.7,41.1,242.6,39.4,241.1,37.9z M240.7,54.9c-0.6,1.6-1.4,2.9-2.6,4.1c-1.1,1.2-2.4,2.1-3.9,2.7
		c-1.5,0.7-3.2,1-5,1s-3.5-0.3-5-1c-1.5-0.7-2.8-1.6-3.9-2.7c-1.1-1.2-2-2.5-2.6-4.1c-0.6-1.6-0.9-3.2-0.9-5c0-1.8,0.3-3.5,0.9-5
		c0.6-1.6,1.5-2.9,2.6-4.1c1.1-1.2,2.4-2,3.9-2.7c1.5-0.6,3.2-1,5-1s3.5,0.3,5,1c1.5,0.6,2.8,1.5,3.9,2.7c1.1,1.2,2,2.5,2.6,4.1
		c0.6,1.6,0.9,3.2,0.9,5C241.6,51.7,241.3,53.3,240.7,54.9z"/>
	<path class="st4" d="M264.5,52.6c0.2-0.1,0.3-0.1,0.5-0.2c1.6-0.8,2.9-2,3.8-3.5c0.9-1.5,1.4-3.1,1.4-5c0-2-0.5-3.8-1.4-5.3
		c-0.9-1.5-2.2-2.7-3.8-3.6c-1.6-0.9-3.5-1.3-5.5-1.3H252c-0.6,0-1.1,0.2-1.5,0.6c-0.4,0.4-0.6,0.9-0.6,1.6V64
		c0,0.6,0.2,1.1,0.6,1.5c0.4,0.4,0.9,0.6,1.5,0.6c0.6,0,1.2-0.2,1.6-0.6c0.4-0.4,0.6-0.9,0.6-1.5V53.6h5.3c0.3,0,0.5,0,0.8,0
		l7.2,11.5c0.2,0.4,0.5,0.6,0.8,0.8c0.3,0.2,0.7,0.2,1.1,0.2c0.9,0,1.5-0.4,1.9-1.1c0.4-0.7,0.3-1.5-0.2-2.3L264.5,52.6z
		 M254.1,49.6v-12h5.3c1.3,0,2.4,0.3,3.4,0.8c1,0.5,1.7,1.3,2.3,2.2s0.8,2,0.8,3.2c0,1.1-0.3,2.1-0.8,3c-0.6,0.9-1.3,1.6-2.3,2
		c-1,0.5-2.1,0.7-3.4,0.7H254.1z"/>
	<path class="st4" d="M295.8,33.6h-9h-4.3h-9c-0.6,0-1.1,0.2-1.4,0.6c-0.4,0.4-0.6,0.9-0.6,1.4c0,0.6,0.2,1.1,0.6,1.4
		c0.4,0.4,0.9,0.6,1.4,0.6h9V64c0,0.6,0.2,1.1,0.6,1.5c0.4,0.4,0.9,0.6,1.5,0.6c0.6,0,1.1-0.2,1.5-0.6c0.4-0.4,0.6-0.9,0.6-1.5V37.6
		h9c0.6,0,1.1-0.2,1.4-0.6c0.4-0.4,0.6-0.9,0.6-1.4c0-0.6-0.2-1.1-0.6-1.4C296.9,33.8,296.4,33.6,295.8,33.6z"/>
	<path class="st4" d="M306.9,34.5c-0.2-0.6-0.7-0.9-1.2-0.9c-0.6,0-1,0.3-1.2,0.9l-12.6,29.8c-0.2,0.4-0.2,0.7,0,1.2
		c0.2,0.4,0.6,0.6,1.1,0.6c0.3,0,0.5-0.1,0.7-0.2c0.2-0.1,0.3-0.3,0.5-0.6l3.1-7.4h16.9l3.1,7.4c0.1,0.3,0.3,0.5,0.5,0.6
		c0.2,0.1,0.4,0.2,0.7,0.2c0.5,0,0.8-0.2,1.1-0.6c0.2-0.4,0.3-0.8,0-1.2L306.9,34.5z M298.2,55.7l7.5-18l7.5,18H298.2z"/>
	<path class="st4" d="M337.6,48.4c1.4-0.6,2.5-1.5,3.3-2.7c0.8-1.2,1.3-2.6,1.3-4.2c0-1.5-0.4-2.9-1.2-4.1c-0.8-1.2-1.8-2.1-3.1-2.8
		c-1.3-0.7-2.7-1-4.2-1h-10.2c-0.4,0-0.7,0.1-0.9,0.3c-0.2,0.2-0.4,0.5-0.4,0.9v30c0,0.4,0.2,0.7,0.5,0.9c0.3,0.2,0.7,0.3,1.2,0.3
		h10.4c1.9,0,3.5-0.4,5-1.2c1.4-0.8,2.6-1.9,3.4-3.4c0.8-1.4,1.2-3.1,1.2-4.9c0-2.1-0.6-3.9-1.7-5.3C341,49.9,339.5,49,337.6,48.4z
		 M324.7,36.1h9c1.7,0,3.2,0.5,4.3,1.4c1.1,0.9,1.7,2.3,1.7,4c0,1.8-0.6,3.2-1.7,4.3c-1.1,1.1-2.6,1.6-4.3,1.6h-9V36.1z M340.5,60.3
		c-0.6,1-1.4,1.9-2.5,2.5c-1.1,0.6-2.3,0.9-3.7,0.9h-9.6V49.9h9.6c1.4,0,2.6,0.3,3.7,0.9c1.1,0.6,1.9,1.4,2.5,2.4
		c0.6,1,0.9,2.2,0.9,3.5C341.4,58,341.1,59.2,340.5,60.3z"/>
	<path class="st4" d="M363.2,63.9h-13.2v-29c0-0.4-0.1-0.7-0.4-0.9c-0.2-0.2-0.5-0.4-0.9-0.4c-0.3,0-0.6,0.1-0.9,0.4
		c-0.2,0.2-0.4,0.5-0.4,0.9v30c0,0.4,0.1,0.7,0.4,0.9c0.2,0.2,0.5,0.4,0.9,0.4h14.4c0.4,0,0.7-0.1,0.9-0.3c0.2-0.2,0.3-0.5,0.3-0.8
		s-0.1-0.6-0.3-0.8C363.9,64,363.6,63.9,363.2,63.9z"/>
	<path class="st4" d="M385.5,63.6h-14.8V51.1h13.8c0.4,0,0.7-0.1,0.9-0.4c0.2-0.2,0.4-0.6,0.4-0.9c0-0.4-0.1-0.7-0.4-0.9
		c-0.2-0.2-0.5-0.4-0.9-0.4h-13.8V36.1h14.8c0.3,0,0.6-0.1,0.9-0.4c0.2-0.3,0.4-0.5,0.4-0.9c0-0.4-0.1-0.7-0.4-0.9
		c-0.2-0.2-0.5-0.4-0.9-0.4h-16.1c-0.4,0-0.7,0.1-0.9,0.4c-0.2,0.2-0.4,0.5-0.4,0.9v30c0,0.4,0.1,0.7,0.4,0.9
		c0.2,0.2,0.5,0.4,0.9,0.4h16.1c0.3,0,0.6-0.1,0.9-0.4c0.2-0.2,0.4-0.5,0.4-0.9c0-0.3-0.1-0.6-0.4-0.9
		C386.1,63.8,385.8,63.6,385.5,63.6z"/>
</g>
</svg>
