<?xml version="1.0" encoding="utf-8"?>
<!-- Generator: Adobe Illustrator 28.3.0, SVG Export Plug-In . SVG Version: 6.00 Build 0)  -->
<svg version="1.1" id="a" xmlns="http://www.w3.org/2000/svg" xmlns:xlink="http://www.w3.org/1999/xlink" x="0px" y="0px"
	 viewBox="0 0 398.7 84.7" style="enable-background:new 0 0 398.7 84.7;" xml:space="preserve">
<style type="text/css">
	.st0{fill:#FFFFFF;}
	.st1{fill:#C55F55;}
	.st2{fill:#6D883F;}
	.st3{fill:#E2A724;}
	.st4{fill:#404041;}
	.st5{fill:#5E5DA8;}
</style>
<g>
	<circle class="st0" cx="42.3" cy="42.3" r="42.3"/>
	<g>
		<path class="st1" d="M73.2,16.6c-2.8-3.4-6.2-6.3-10-8.6c-8.1,10-12.7,23.4-12.7,23.4L73.2,16.6z"/>
		<path class="st1" d="M82.5,40c-0.1-2.1-0.4-4.1-0.8-6l-9.5,8.4C73.8,41.2,79.3,40.4,82.5,40L82.5,40z"/>
		<path class="st2" d="M44,32.2c-2.5-1.4-8.8-7.1-15-12.9v22c2.6,3,10.9,17.2,10.9,17.2C38.9,48.9,44,32.2,44,32.2L44,32.2z"/>
		<path class="st1" d="M7.5,22.3c-3.4,5.9-5.4,12.8-5.4,20c0,0.4,0,0.8,0,1.2L27.5,50C26.3,44.8,13.3,29.1,7.5,22.3L7.5,22.3z"/>
		<path class="st3" d="M79.2,26.2c-1.2-2.7-2.6-5.2-4.3-7.5L58.7,30.2C69.5,28.9,75.9,27.2,79.2,26.2z"/>
		<path class="st1" d="M36.9,2.5c-5.4,0.7-10.5,2.5-15,5.2c8.4,8.8,19.2,15.9,19.2,15.9C40,21.8,38.3,11.4,36.9,2.5L36.9,2.5z"/>
		<path class="st3" d="M24,34.1l1.7-17.9c-2.5-2.4-4.8-4.6-6.8-6.5c-3.2,2.3-6.1,5.1-8.5,8.2C17.9,25.5,24,34.1,24,34.1L24,34.1z"/>
		<path class="st2" d="M35.4,64.4c-1.4-2.9-2.7-6-2.7-6C27,54.8,9.5,50.3,2.6,48.6c2.7,16.9,15.8,30.2,32.5,33.3
			c0.1-0.2,0.2-0.5,0.4-0.7C38.1,75.9,38,69.7,35.4,64.4L35.4,64.4z"/>
		<path class="st3" d="M46.7,25.6C47.6,22.1,57.2,9.8,60,6.2c-5.3-2.6-11.3-4.1-17.7-4.1c-0.7,0-1.3,0-2,0
			C40.4,2.2,46.7,25.6,46.7,25.6z"/>
		<path class="st3" d="M63.1,50.2c7.8,3.4,13.8,3.7,17.9,3.1c0.9-3.4,1.5-6.9,1.5-10.6C66.8,45.5,63.1,50.2,63.1,50.2z"/>
		<path class="st2" d="M79.7,57.3c-10.4-0.4-21.3-3.1-21.3-3.1c-2.8-0.4-11.5,7.2-11.5,7.2c0.5,8.8,2.5,15.3,5.2,20
			C64.6,78.3,74.9,69.2,79.7,57.3L79.7,57.3z"/>
		<path class="st2" d="M46.5,51.6C63,46.5,73.7,37.1,80.3,29.2c0-0.1-0.1-0.2-0.1-0.3l-26.8,6C43.7,36.6,46.6,51.6,46.5,51.6
			L46.5,51.6z"/>
	</g>
</g>
<g>
	<path class="st4" d="M109,39.8c-2.2-0.2-3.8-0.6-5-1.2c-1.2-0.5-1.9-1.2-2.4-2c-0.4-0.8-0.6-1.6-0.6-2.4c0-1.6,0.7-2.9,2.1-3.6
		s3.1-1.2,5.2-1.1c1.2,0,2.2,0.2,3,0.5s1.6,0.8,2.2,1.3c0.6,0.6,1.2,1.2,1.6,2c0.3,0.5,0.8,0.9,1.4,1.1c0.6,0.2,1.2,0.1,1.7-0.2
		s0.7-0.7,0.8-1.3s-0.1-1.1-0.5-1.7c-0.7-1.1-1.5-2.1-2.5-3c-0.9-0.8-2.1-1.5-3.3-2c-1.3-0.5-2.7-0.7-4.4-0.7c-2.2,0-4.1,0.3-5.9,1
		s-3.2,1.6-4.2,2.9s-1.5,2.8-1.5,4.7c0,2.5,1,4.6,3,6.3s4.7,2.7,8.1,3c2.6,0.3,4.5,1,5.7,2.2s1.7,2.5,1.7,4c0,1.2-0.3,2.1-1,2.9
		s-1.6,1.4-2.7,1.8c-1.1,0.4-2.3,0.6-3.7,0.6c-1.2,0-2.3-0.2-3.4-0.5s-2-0.8-2.8-1.4c-0.8-0.6-1.3-1.2-1.7-1.9
		c-0.2-0.5-0.6-0.9-1.1-1.2s-1-0.3-1.5-0.2c-0.7,0.1-1.2,0.5-1.5,1s-0.3,1,0,1.6c0.6,1.3,1.4,2.5,2.6,3.5s2.6,1.8,4.2,2.3
		s3.3,0.8,5.1,0.8c1.5,0,2.9-0.2,4.3-0.6s2.7-1,3.8-1.8s2-1.8,2.6-2.9c0.7-1.2,1-2.5,1-4.1c0-2.8-0.9-5-2.8-6.6S112.3,40.1,109,39.8
		L109,39.8z"/>
	<path class="st4" d="M147.6,25.9c-0.6,0-1.1,0.2-1.5,0.6s-0.6,0.9-0.6,1.6v19.4c0,1.5-0.4,2.8-1.1,4s-1.8,2-3.2,2.7s-2.9,1-4.6,1
		s-3.4-0.3-4.8-1c-1.4-0.7-2.5-1.5-3.3-2.7s-1.2-2.5-1.2-4V28.1c0-0.6-0.2-1.2-0.6-1.6s-1-0.5-1.7-0.5s-1.1,0.2-1.5,0.6
		s-0.6,0.9-0.6,1.6v19.4c0,2.2,0.6,4.2,1.7,6c1.2,1.8,2.8,3.1,4.8,4.1c2.1,1,4.4,1.5,7.1,1.5s4.9-0.5,6.9-1.5s3.6-2.3,4.7-4.1
		s1.7-3.8,1.7-6V28.1c0-0.6-0.2-1.2-0.6-1.6S148.3,26,147.6,25.9L147.6,25.9z"/>
	<path class="st4" d="M169.8,27.3c-1.6-0.9-3.5-1.4-5.5-1.4H156c-0.6,0-1.1,0.2-1.5,0.6s-0.6,0.9-0.6,1.6v28.2
		c0,0.6,0.2,1.1,0.6,1.5c0.4,0.4,0.9,0.6,1.5,0.6s1.2-0.2,1.6-0.6c0.4-0.4,0.6-0.9,0.6-1.5v-9.1h6.2c2.1,0,3.9-0.4,5.5-1.3
		c1.6-0.9,2.9-2.1,3.8-3.7c0.9-1.6,1.4-3.4,1.4-5.4s-0.4-4-1.4-5.6C172.7,29.5,171.4,28.2,169.8,27.3L169.8,27.3z M169.9,40.1
		c-0.6,1-1.3,1.7-2.3,2.3s-2.1,0.8-3.4,0.8H158V29.9h6.2c1.3,0,2.4,0.3,3.4,0.9s1.7,1.4,2.3,2.4s0.8,2.2,0.8,3.5
		C170.8,38,170.5,39.1,169.9,40.1L169.9,40.1z"/>
	<path class="st4" d="M194.5,27.3c-1.6-0.9-3.5-1.4-5.5-1.4h-8.3c-0.6,0-1.1,0.2-1.5,0.6s-0.6,0.9-0.6,1.6v28.2
		c0,0.6,0.2,1.1,0.6,1.5c0.4,0.4,0.9,0.6,1.5,0.6s1.2-0.2,1.6-0.6c0.4-0.4,0.6-0.9,0.6-1.5v-9.1h6.2c2.1,0,3.9-0.4,5.5-1.3
		c1.6-0.9,2.9-2.1,3.8-3.7c0.9-1.6,1.4-3.4,1.4-5.4s-0.4-4-1.4-5.6C197.4,29.5,196.1,28.2,194.5,27.3L194.5,27.3z M194.7,40.1
		c-0.6,1-1.3,1.7-2.3,2.3s-2.1,0.8-3.4,0.8h-6.2V29.9h6.2c1.3,0,2.4,0.3,3.4,0.9s1.7,1.4,2.3,2.4s0.8,2.2,0.8,3.5
		S195.2,39.1,194.7,40.1L194.7,40.1z"/>
	<path class="st4" d="M231,30.2c-1.5-1.5-3.2-2.6-5.2-3.5s-4.2-1.2-6.7-1.2s-4.7,0.4-6.7,1.2c-2,0.8-3.8,2-5.2,3.5
		c-1.5,1.5-2.6,3.2-3.4,5.3c-0.8,2-1.2,4.3-1.2,6.7s0.4,4.7,1.2,6.7s1.9,3.8,3.4,5.3s3.2,2.6,5.2,3.5c2,0.8,4.3,1.2,6.7,1.2
		s4.7-0.4,6.7-1.2s3.8-2,5.2-3.5s2.6-3.2,3.4-5.3c0.8-2,1.2-4.3,1.2-6.7s-0.4-4.7-1.2-6.7C233.6,33.5,232.5,31.7,231,30.2z
		 M230.6,47.2c-0.6,1.5-1.4,2.9-2.6,4.1s-2.4,2-3.9,2.7s-3.2,1-5,1s-3.5-0.3-5-1s-2.8-1.5-3.9-2.7c-1.1-1.2-1.9-2.5-2.6-4.1
		c-0.6-1.5-0.9-3.2-0.9-5s0.3-3.5,0.9-5c0.6-1.5,1.5-2.9,2.6-4.1c1.1-1.1,2.4-2,3.9-2.7c1.5-0.6,3.2-1,5-1s3.5,0.3,5,1
		c1.5,0.6,2.8,1.5,3.9,2.7c1.1,1.2,2,2.5,2.6,4.1c0.6,1.5,0.9,3.2,0.9,5S231.1,45.6,230.6,47.2z"/>
	<path class="st4" d="M254.4,44.9c0.1-0.1,0.3-0.1,0.5-0.2c1.6-0.8,2.9-2,3.8-3.5s1.4-3.2,1.4-5c0-2-0.5-3.8-1.4-5.3
		s-2.2-2.7-3.8-3.6s-3.5-1.3-5.5-1.3h-7.5c-0.6,0-1.1,0.2-1.5,0.6s-0.6,0.9-0.6,1.6v28.2c0,0.6,0.2,1.1,0.6,1.5
		c0.4,0.4,0.9,0.6,1.5,0.6s1.2-0.2,1.6-0.6c0.4-0.4,0.6-0.9,0.6-1.5V45.9h5.3c0.3,0,0.5,0,0.8,0l7.2,11.5c0.2,0.4,0.5,0.6,0.8,0.8
		s0.7,0.2,1.1,0.2c0.9,0,1.5-0.3,1.9-1.1c0.4-0.7,0.3-1.5-0.2-2.3L254.4,44.9L254.4,44.9z M244,41.9v-12h5.3c1.3,0,2.4,0.3,3.4,0.8
		s1.7,1.3,2.3,2.2s0.8,2,0.8,3.2c0,1.1-0.3,2.1-0.8,3c-0.6,0.9-1.3,1.5-2.3,2s-2.1,0.7-3.4,0.7L244,41.9L244,41.9z"/>
	<path class="st4" d="M285.7,25.9h-22.3c-0.6,0-1.1,0.2-1.4,0.6c-0.4,0.4-0.6,0.9-0.6,1.4s0.2,1.1,0.6,1.4c0.4,0.4,0.9,0.6,1.4,0.6
		h9v26.4c0,0.6,0.2,1.1,0.6,1.5s0.9,0.6,1.5,0.6s1.1-0.2,1.5-0.6c0.4-0.4,0.6-0.9,0.6-1.5V29.9h9c0.6,0,1.1-0.2,1.4-0.6
		c0.4-0.4,0.6-0.9,0.6-1.4s-0.2-1.1-0.6-1.4C286.7,26.1,286.2,25.9,285.7,25.9L285.7,25.9z"/>
	<path class="st5" d="M296.8,26.8c-0.2-0.6-0.6-0.9-1.2-0.9s-1,0.3-1.2,0.9l-12.6,29.8c-0.2,0.4-0.2,0.8,0,1.2s0.6,0.6,1.1,0.6
		c0.3,0,0.5-0.1,0.7-0.2c0.2-0.1,0.4-0.3,0.5-0.6l3.1-7.4h16.9l3.1,7.4c0.1,0.3,0.3,0.5,0.5,0.6s0.4,0.2,0.7,0.2
		c0.5,0,0.8-0.2,1.1-0.6c0.2-0.4,0.3-0.8,0-1.2C309.5,56.7,296.8,26.8,296.8,26.8z M288.1,48l7.5-18l7.5,18H288.1L288.1,48z"/>
	<path class="st5" d="M327.5,40.8c1.4-0.6,2.5-1.5,3.3-2.7s1.3-2.6,1.3-4.2c0-1.5-0.4-2.9-1.2-4.1c-0.8-1.2-1.8-2.1-3.1-2.8
		c-1.3-0.7-2.7-1-4.2-1h-10.2c-0.4,0-0.7,0.1-0.9,0.3c-0.2,0.2-0.4,0.5-0.4,0.9v30c0,0.4,0.1,0.7,0.5,0.9c0.3,0.2,0.7,0.3,1.2,0.3
		h10.5c1.9,0,3.5-0.4,5-1.2c1.4-0.8,2.6-1.9,3.4-3.3s1.2-3.1,1.2-4.9c0-2.1-0.6-3.9-1.7-5.3C330.9,42.2,329.3,41.3,327.5,40.8z
		 M314.6,28.4h9c1.8,0,3.2,0.5,4.3,1.4c1.1,0.9,1.7,2.3,1.7,4s-0.6,3.2-1.7,4.3s-2.6,1.6-4.3,1.6h-9
		C314.6,39.7,314.6,28.4,314.6,28.4z M330.3,52.6c-0.6,1-1.4,1.9-2.5,2.5c-1,0.6-2.3,0.9-3.7,0.9h-9.6V42.2h9.6
		c1.4,0,2.6,0.3,3.7,0.9c1,0.6,1.9,1.4,2.5,2.4s0.9,2.2,0.9,3.5S330.9,51.6,330.3,52.6L330.3,52.6z"/>
	<path class="st5" d="M353.1,56.2h-13.2v-29c0-0.4-0.1-0.7-0.4-0.9c-0.2-0.2-0.5-0.4-0.9-0.4c-0.3,0-0.6,0.1-0.9,0.4
		c-0.2,0.2-0.4,0.5-0.4,0.9v30c0,0.4,0.1,0.7,0.4,0.9c0.2,0.2,0.5,0.3,0.9,0.3H353c0.4,0,0.7-0.1,0.9-0.3c0.2-0.2,0.3-0.5,0.3-0.8
		s-0.1-0.6-0.3-0.8S353.5,56.2,353.1,56.2z"/>
	<path class="st5" d="M375.3,56h-14.8V43.5h13.8c0.4,0,0.7-0.1,0.9-0.4c0.2-0.2,0.4-0.5,0.4-0.9s-0.1-0.7-0.4-0.9
		c-0.2-0.2-0.5-0.3-0.9-0.3h-13.8V28.5h14.8c0.3,0,0.6-0.1,0.9-0.4s0.4-0.5,0.4-0.9s-0.1-0.7-0.4-0.9c-0.2-0.2-0.5-0.4-0.9-0.4
		h-16.1c-0.4,0-0.7,0.1-0.9,0.4c-0.2,0.2-0.4,0.5-0.4,0.9v30c0,0.4,0.1,0.7,0.4,0.9s0.5,0.3,0.9,0.3h16.1c0.3,0,0.6-0.1,0.9-0.3
		c0.2-0.2,0.4-0.5,0.4-0.9c0-0.3-0.1-0.6-0.4-0.9S375.7,56,375.3,56L375.3,56z"/>
</g>
<g>
	<path class="st4" d="M380.9,26.7c-0.2,0-0.3,0-0.4-0.2c-0.1-0.1-0.1-0.2-0.1-0.4c0-0.2,0-0.3,0.1-0.4s0.2-0.1,0.4-0.1h6.5
		c0.2,0,0.3,0,0.4,0.1s0.1,0.2,0.1,0.4c0,0.1,0,0.3-0.1,0.4s-0.2,0.2-0.4,0.2H380.9z M384.2,35.1c-0.2,0-0.3-0.1-0.4-0.2
		c-0.1-0.1-0.2-0.2-0.2-0.4v-8.8h1.1v8.8c0,0.2-0.1,0.3-0.2,0.4S384.3,35.1,384.2,35.1z"/>
	<path class="st4" d="M389.9,35.1c-0.2,0-0.3-0.1-0.4-0.2c-0.1-0.1-0.2-0.2-0.2-0.4v-8.2c0-0.2,0.1-0.3,0.2-0.4s0.2-0.2,0.4-0.2
		c0.2,0,0.4,0.1,0.5,0.3l3.9,7.7h-0.4l3.8-7.7c0.1-0.2,0.3-0.3,0.5-0.3s0.3,0.1,0.4,0.2s0.2,0.2,0.2,0.4v8.2c0,0.2-0.1,0.3-0.2,0.4
		s-0.2,0.2-0.4,0.2c-0.2,0-0.3-0.1-0.4-0.2c-0.1-0.1-0.2-0.2-0.2-0.4v-6.7h0.2l-3.3,6.7c-0.1,0.2-0.3,0.3-0.5,0.3s-0.4-0.1-0.5-0.3
		l-3.3-6.6l0.2-0.1v6.7c0,0.2-0.1,0.3-0.2,0.4S390,35.1,389.9,35.1z"/>
</g>
<g>
	<path class="st4" d="M106.7,72.5V73c0,0.3-0.1,0.4-0.4,0.4H106c-0.3,0-0.4-0.1-0.4-0.4v-7.2c0-0.3,0.2-0.4,0.4-0.4h0.3
		c0.3,0,0.4,0.1,0.4,0.4v2.9c0.5-0.7,1.2-1,2-1c1.6,0,2.7,1.3,2.7,2.9c0,1.6-1.1,2.9-2.7,2.9C108,73.5,107.2,73.3,106.7,72.5z
		 M110.3,70.7c0-1-0.6-1.9-1.8-1.9c-1.1,0-1.8,0.8-1.8,1.9c0,1.1,0.8,1.9,1.8,1.9C109.6,72.5,110.3,71.7,110.3,70.7z"/>
	<path class="st4" d="M113.3,75.4l0.8-2.2l-2.1-4.8c-0.1-0.3,0-0.5,0.3-0.5h0.4c0.2,0,0.4,0.1,0.5,0.3l1.5,3.7l1.4-3.7
		c0.1-0.2,0.2-0.3,0.5-0.3h0.5c0.3,0,0.4,0.2,0.3,0.5l-3.1,7.2c-0.1,0.2-0.2,0.3-0.5,0.3h-0.3C113.3,75.9,113.2,75.7,113.3,75.4z"/>
	<path class="st4" d="M121.4,73v-6.9c0-0.3,0.1-0.4,0.4-0.4h2.1c2.5,0,4,1.7,4,3.9s-1.5,3.9-4,3.9h-2.1
		C121.5,73.4,121.4,73.3,121.4,73z M123.9,72.5c1.7,0,2.8-1.3,2.8-2.9s-1.1-2.9-2.8-2.9h-1.3v5.8H123.9z"/>
	<path class="st4" d="M128.8,70.7c0-1.6,1.1-2.9,2.7-2.9c0.7,0,1.5,0.3,2,1v-0.5c0-0.3,0.2-0.4,0.4-0.4h0.3c0.3,0,0.4,0.1,0.4,0.4
		V73c0,0.3-0.1,0.4-0.4,0.4h-0.3c-0.3,0-0.4-0.1-0.4-0.4v-0.5c-0.5,0.7-1.2,1-2,1C129.9,73.5,128.8,72.2,128.8,70.7z M133.5,70.7
		c0-1.1-0.7-1.9-1.8-1.9c-1.1,0-1.7,0.9-1.7,1.9c0,1,0.6,1.9,1.7,1.9C132.8,72.5,133.5,71.7,133.5,70.7z"/>
	<path class="st4" d="M135.9,72.5c-0.1-0.3,0-0.4,0.3-0.5l0.2-0.1c0.2-0.1,0.4,0,0.5,0.2c0.2,0.3,0.6,0.5,1,0.5
		c0.5,0,0.9-0.3,0.9-0.7c0-0.4-0.3-0.5-0.7-0.7l-0.7-0.3c-0.8-0.3-1.4-0.7-1.4-1.5c0-0.9,0.7-1.7,1.8-1.7c0.7,0,1.3,0.2,1.7,0.9
		c0.1,0.3,0,0.5-0.3,0.5l-0.2,0c-0.2,0.1-0.4,0-0.5-0.2c-0.2-0.2-0.4-0.3-0.7-0.3c-0.5,0-0.8,0.3-0.8,0.7c0,0.4,0.3,0.5,0.6,0.6
		l0.8,0.3c1.1,0.3,1.3,1,1.3,1.6c0,1.1-0.9,1.7-2,1.7C137.1,73.5,136.3,73.2,135.9,72.5z"/>
	<path class="st4" d="M141.2,73v-7.2c0-0.3,0.2-0.4,0.4-0.4h0.3c0.3,0,0.4,0.1,0.4,0.4V69c0.2-0.8,0.9-1.2,1.8-1.2
		c1.2,0,2.1,0.8,2.1,2.5V73c0,0.3-0.2,0.4-0.4,0.4h-0.3c-0.3,0-0.4-0.1-0.4-0.4v-2.7c0-1.1-0.5-1.5-1.1-1.5c-0.6,0-1.7,0.4-1.7,2.1
		V73c0,0.3-0.1,0.4-0.4,0.4h-0.3C141.3,73.4,141.2,73.3,141.2,73z"/>
	<path class="st4" d="M149,72.5V73c0,0.3-0.1,0.4-0.4,0.4h-0.3c-0.3,0-0.4-0.1-0.4-0.4v-7.2c0-0.3,0.2-0.4,0.4-0.4h0.3
		c0.3,0,0.4,0.1,0.4,0.4v2.9c0.5-0.7,1.2-1,2-1c1.6,0,2.7,1.3,2.7,2.9c0,1.6-1.1,2.9-2.7,2.9C150.2,73.5,149.5,73.3,149,72.5z
		 M152.5,70.7c0-1-0.6-1.9-1.8-1.9c-1.1,0-1.8,0.8-1.8,1.9c0,1.1,0.8,1.9,1.8,1.9C151.9,72.5,152.5,71.7,152.5,70.7z"/>
	<path class="st4" d="M154.5,70.7c0-1.6,1.3-2.9,2.9-2.9c1.6,0,2.9,1.3,2.9,2.9c0,1.6-1.3,2.9-2.9,2.9
		C155.8,73.5,154.5,72.3,154.5,70.7z M159.2,70.7c0-1-0.8-1.9-1.8-1.9c-1,0-1.8,0.8-1.8,1.9c0,1,0.8,1.9,1.8,1.9
		C158.4,72.5,159.2,71.7,159.2,70.7z"/>
	<path class="st4" d="M161.2,70.7c0-1.6,1.1-2.9,2.7-2.9c0.7,0,1.5,0.3,2,1v-0.5c0-0.3,0.2-0.4,0.4-0.4h0.3c0.3,0,0.4,0.1,0.4,0.4
		V73c0,0.3-0.1,0.4-0.4,0.4h-0.3c-0.3,0-0.4-0.1-0.4-0.4v-0.5c-0.5,0.7-1.2,1-2,1C162.3,73.5,161.2,72.2,161.2,70.7z M165.9,70.7
		c0-1.1-0.7-1.9-1.8-1.9c-1.1,0-1.7,0.9-1.7,1.9c0,1,0.6,1.9,1.7,1.9C165.2,72.5,165.9,71.7,165.9,70.7z"/>
	<path class="st4" d="M168.7,73v-4.7c0-0.3,0.2-0.4,0.4-0.4h0.3c0.3,0,0.4,0.1,0.4,0.4v0.8c0.2-0.9,0.8-1.4,1.5-1.4l0.2,0
		c0.2,0,0.3,0.2,0.3,0.4v0.3c0,0.3-0.1,0.4-0.3,0.3c-0.1,0-0.2,0-0.3,0c-0.4,0-1.4,0.2-1.4,2.5V73c0,0.3-0.1,0.4-0.4,0.4h-0.3
		C168.8,73.4,168.7,73.3,168.7,73z"/>
	<path class="st4" d="M172.3,70.7c0-1.6,1.1-2.9,2.7-2.9c0.7,0,1.5,0.3,2,1v-2.9c0-0.3,0.2-0.4,0.4-0.4h0.3c0.3,0,0.4,0.1,0.4,0.4
		V73c0,0.3-0.1,0.4-0.4,0.4h-0.3c-0.3,0-0.4-0.1-0.4-0.4v-0.5c-0.5,0.7-1.2,1-2,1C173.4,73.5,172.3,72.2,172.3,70.7z M177,70.7
		c0-1.1-0.7-1.9-1.8-1.9c-1.1,0-1.7,0.9-1.7,1.9c0,1,0.6,1.9,1.7,1.9C176.2,72.5,177,71.7,177,70.7z"/>
	<path class="st4" d="M187.9,66.1v0.2c0,0.3-0.1,0.4-0.4,0.4h-2.1V73c0,0.3-0.1,0.4-0.4,0.4h-0.4c-0.3,0-0.4-0.1-0.4-0.4v-6.3h-2.1
		c-0.2,0-0.4-0.1-0.4-0.4v-0.2c0-0.3,0.2-0.4,0.4-0.4h5.4C187.8,65.7,187.9,65.9,187.9,66.1z"/>
	<path class="st4" d="M188,73v-4.7c0-0.3,0.2-0.4,0.4-0.4h0.3c0.3,0,0.4,0.1,0.4,0.4v0.8c0.2-0.9,0.8-1.4,1.5-1.4l0.2,0
		c0.2,0,0.3,0.2,0.3,0.4v0.3c0,0.3-0.1,0.4-0.3,0.3c-0.1,0-0.2,0-0.3,0c-0.4,0-1.4,0.2-1.4,2.5V73c0,0.3-0.1,0.4-0.4,0.4h-0.3
		C188.1,73.4,188,73.3,188,73z"/>
	<path class="st4" d="M191.5,70.7c0-1.6,1.1-2.9,2.7-2.9c0.7,0,1.5,0.3,2,1v-0.5c0-0.3,0.2-0.4,0.4-0.4h0.3c0.3,0,0.4,0.1,0.4,0.4
		V73c0,0.3-0.1,0.4-0.4,0.4h-0.3c-0.3,0-0.4-0.1-0.4-0.4v-0.5c-0.5,0.7-1.2,1-2,1C192.6,73.5,191.5,72.2,191.5,70.7z M196.3,70.7
		c0-1.1-0.7-1.9-1.8-1.9c-1.1,0-1.7,0.9-1.7,1.9c0,1,0.6,1.9,1.7,1.9C195.5,72.5,196.2,71.7,196.3,70.7z"/>
	<path class="st4" d="M198.6,70.7c0-1.6,1.1-2.9,3.1-2.9c0.4,0,1,0.1,1.7,0.5c0.2,0.1,0.3,0.4,0.1,0.6l-0.1,0.1
		c-0.2,0.2-0.3,0.2-0.6,0.1c-0.5-0.2-0.9-0.2-1.1-0.2c-1.2,0-2,0.8-2,1.9c0,1.1,0.9,1.9,2,1.9c0.1,0,0.6,0,1.1-0.2
		c0.2-0.1,0.4-0.1,0.6,0.1l0.1,0.1c0.2,0.2,0.1,0.5-0.3,0.6c-0.5,0.3-1.1,0.4-1.5,0.4C199.8,73.5,198.6,72.3,198.6,70.7z"/>
	<path class="st4" d="M205.1,71.7v-2.9h-0.7c-0.1,0-0.2-0.1-0.2-0.2v-0.4c0-0.1,0.1-0.2,0.2-0.2h0.7l0.2-1.3c0-0.2,0.2-0.3,0.4-0.3
		h0.2c0.2,0,0.3,0.1,0.3,0.3v1.2h1.5c0.1,0,0.2,0.1,0.2,0.2v0.4c0,0.1-0.1,0.2-0.2,0.2h-1.5v2.9c0,0.6,0.3,0.8,0.6,0.8
		c0.3,0,0.6-0.2,0.6-0.6c0,0,0-0.1,0-0.2c0-0.2,0-0.3,0.2-0.3h0.5c0.1,0,0.2,0.1,0.3,0.2c0,0.2,0,0.4,0,0.4c0,0.8-0.6,1.4-1.7,1.4
		C206,73.5,205.1,73.1,205.1,71.7z"/>
	<path class="st4" d="M209.3,66.2c0-0.4,0.3-0.8,0.8-0.8c0.5,0,0.8,0.3,0.8,0.8c0,0.4-0.3,0.7-0.8,0.7
		C209.7,66.9,209.3,66.6,209.3,66.2z M209.5,73v-4.7c0-0.3,0.2-0.4,0.4-0.4h0.3c0.3,0,0.4,0.1,0.4,0.4V73c0,0.3-0.1,0.4-0.4,0.4H210
		C209.7,73.4,209.5,73.3,209.5,73z"/>
	<path class="st4" d="M212,70.7c0-1.6,1.3-2.9,2.9-2.9c1.6,0,2.9,1.3,2.9,2.9c0,1.6-1.3,2.9-2.9,2.9C213.3,73.5,212,72.3,212,70.7z
		 M216.7,70.7c0-1-0.8-1.9-1.8-1.9c-1,0-1.8,0.8-1.8,1.9c0,1,0.8,1.9,1.8,1.9C215.9,72.5,216.7,71.7,216.7,70.7z"/>
	<path class="st4" d="M219,73v-4.7c0-0.3,0.2-0.4,0.4-0.4h0.3c0.3,0,0.4,0.1,0.4,0.4V69c0.2-0.8,0.9-1.2,1.8-1.2
		c1.2,0,2.1,0.8,2.1,2.5V73c0,0.3-0.2,0.4-0.4,0.4h-0.3c-0.3,0-0.4-0.1-0.4-0.4v-2.7c0-1.1-0.5-1.5-1.1-1.5c-0.6,0-1.7,0.4-1.7,2.1
		V73c0,0.3-0.1,0.4-0.4,0.4h-0.3C219.2,73.4,219,73.3,219,73z"/>
</g>
</svg>
