<?xml version="1.0" encoding="utf-8"?>
<!-- Generator: Adobe Illustrator 28.2.0, SVG Export Plug-In . SVG Version: 6.00 Build 0)  -->
<svg version="1.1" id="sunglasses" xmlns="http://www.w3.org/2000/svg" xmlns:xlink="http://www.w3.org/1999/xlink" x="0px" y="0px"
	 viewBox="0 0 400 200" style="enable-background:new 0 0 400 200;" xml:space="preserve">
<style type="text/css">
	.st0{fill:#0F0F0F;}
</style>
<path class="st0" d="M231.3,68.9c0,0-213.3,12-215.7,16.4c-7.1,12.7,2.1,19,6.7,8.6c1.2-2.8,82.9-7.5,82.9-7.5s0.5,47,34.6,44.6
	c34.1-2.4,34.1-39.1,34.1-39.1s5.8,36.5,37.6,33.5S231.3,68.9,231.3,68.9z M161,112c-5,7-16,11-16,11s11-7,14-13s6-16,6-16
	S166,105,161,112z M225.7,103.4c-3.6,7.8-13.6,13.8-13.6,13.8s9.5-9,11.3-15.4s2.8-16.8,2.8-16.8S229.2,95.6,225.7,103.4z"/>
</svg>
