<?xml version="1.0" encoding="UTF-8"?>
<svg id="hero-highlight-2" xmlns="http://www.w3.org/2000/svg" version="1.1" viewBox="0 0 613 142">
  <defs>
    <style>
      .cls-1 {
        fill: #0cc;
        stroke-width: 0px;
      }
    </style>
  </defs>
  <path class="cls-1" d="M132.5,19.3c-.9.5-2.3,1.2-4.9,1.8-1.6.4-2,.9-3.3,1.2-.9.2-1.3.4-1.3.7,0,.2.3.2,1,0,1.5-.2.8.2-2.2,1.4-1,.5-2.5,1-3,1.4-.9.9-4.7,3.1-.6,1.5.1,0,.2,0,.2,0,.5.3,2.2-.4,5.5-1.9.8-.4.9-.3,1.2-.3,1.1-.2,4.2-1.5,3.7-.9,1.6-.5,3.3-1.1,4.3-1.1,7.9-1.8,14-2.1,22.6-3,7.7-.8,15-1,22.9-1.6,2.6-.2,5-.3,7.5-.4,2.5-.1,4.8-.2,7.4-.4,2.7-.2,4.6-.2,6.9-.3,2.3-.1,4.9-.3,7.2-.4,1.6,0,3.6,0,4.9-.2,2.5-.4,2.7,0,4.8-.3,3.2-.5,3.1-.1,4.4-.1.2,0,.8,0,1.2-.1,2.3-.3,4.2-.3,5.6-.3,2.6,0,5.9,0,9.1-.2,7-.2,14-.5,21.1-.6,1.7,0,3.1,0,5.2-.2,2.1-.2,2.3.2,4.4,0,4.4-.3,7.4-.3,11.1-.3,1.8,0,3.4,0,5.2,0,1.8,0,3.3.1,5.4-.2,0,0,1,0,1,0,.7.3,7-.3,6.2.3,0,0,.9,0,1.1,0,2.5-.4,4.4-.1,6.3-.1,3.5,0,6.7.2,10.3.2,2.2,0,4.1.1,4.7.3,1,.3,3.3.4,5.6.4,3.1,0,5.6.3,7.9.5,2.8.2,5.8.5,9,.7l6.5.5c2.2.2,4.3.4,6.5.6,4.3.4,8.7.8,13,1.2,2,.2,4.6.3,5.6.7.6.3,4.4.2,6.8.5,7.7.9,15.8,1.8,23.7,2.7,1.7.2,3.5.4,4,.7.3.2,1.4.3,2.8.3.5,0,1.1,0,1.8,0,1.5.2,3.1.4,4.5.6,1.5.2,3.6.2,4.6.5.5.2,2.8.2,4.1.5,1.5.3,4.3.5,4.6.9,3.9.3,6.7.9,10.1,1.3,2,.2,5,.2,5.1.4.3.4,2.6.5,4.3.7,3.3.4,7.1.8,10.5,1.1,3.5.4,7.2.8,10.8,1.1,2.8.3,5.7.5,8.9.7,3.7.2,7.2.4,10.2.7,2.6.3,6.1.4,8.8.6,1.3.1,4.4,0,5.2.2,1,.3,3.4.1,4.4.3.7.1,3.7,0,4.4.3,3.4,0,4.7.4,7.6.6,2.9.2,5.9.4,8.6.7,2.7.3,5.9.6,9,1,3.8.4,7.5.9,11.3,1.4,1.1.1,2.7.3,3.1.5,1,.3,2.2.6,5.1.7.5,0,.8,0,.7.1-.4.2,1.7.4,3.1.6,4.1.6,8.3,1.3,12.2,2,2.5.5,4.6,1.1,7.3,1.6.8.1,1.5.3,2.2.5.7.2,1.3.3,1.8.5.3,0,.6.2.9.3.3,0,.6.2.8.3.6.2,1.2.5,2,.7.5.4,1.5.9,2.6,1.5,1.1.6,2.3,1.2,3.1,1.7.3.2.6.4.8.6.2.2.2.2.3.3l.2.3.3.5c.2.3.4.7.6,1.1.4.8.8,1.5,1.2,2.3.5,1.1,1,2.3,1.4,3.5.2.6.4,1.2.5,1.7.1.5.2,1.2.3,1.8.2,1.5.3,3.2.7,5.5,0,1.3-.2,2.1-.3,4.2-.3,6-1.6,11.7-3.8,17-.4.9-.8,1.6-1.2,2.9-.4,1.1-.8,2-1.3,2.6-.4.7-.8,1.1-1.1,1.5-.3.3-.5.6-1.1,1.2-.8,1.1-1.2,2-2,2.8-.6.5-.3-.1-1.4,1.1-.5.5-1,.9-1.5,1.3-.5.4-1,.8-1.5,1.3-2,1.9-3.7,2.8-5.5,3.7-.4.2-.9.4-1.3.6-.4.2-.9.4-1.3.6-.8.4-1.9.7-2.8,1.1-1,.3-2,.7-3,1.1-1,.3-2.1.7-3.1,1-6.3,2-13,3.8-18.9,4.9-.7.2-2,.4-2.9.7-2.6.7-4.7,1.1-6.9,1.5-4,.7-8.1,1.4-12.3,2-2.7.4-5.3.7-8.7,1.5-.6.1-1.6.2-2.3.3-2.2.3-4.4.5-6.7.8-2.2.3-4.6.6-7.1.9-2.4.3-4.6.5-6.8.7-2.5.2-5,.5-7.3.7-2.1.1-4.5.7-6.6.8-5.6.4-11.5,1-16.9,1.2-1,0-2.3,0-3.5.3-2.6.4-4.6.5-6.5.6-3.8.2-8.6.6-12,.6-.7,0-1.8,0-2.9.2-.8.1-1.6.2-2.3.2-4.1,0-9,0-14.9.5-.7,0-1.7,0-2,0-1.1-.2-3.3,0-5.1,0-2.7,0-6.3.3-8.5.3-3.4,0-7.2,0-10.8,0-3.9,0-7.8,0-11.7,0-4.5,0-9.1,0-13.7,0l-13.1-.2c-4.6,0-9.3-.1-13.7-.2-4.3-.1-9.1-.1-13.4-.2-1.5,0-3.4,0-4.5,0-1.5-.1-3.3,0-5.3,0,.2-.5-2.9,0-4.2,0-.5,0-1.5,0-1.5,0-.1-.4-3.4-.3-5.7-.3-6.8,0-13.7,0-20.6,0-2.1,0-4.3,0-4.9-.2-.1,0-1.6,0-1.9,0-3.4.4-3.9.1-5.4,0-1.3-.1-3.6-.2-5.4-.1-2.9,0-4.9,0-6.7,0-1.5-.1-4.4,0-6.2,0-1.8,0-2.7-.3-5.6,0-.9,0-1.6,0-2.1,0-1.4-.2-4.3-.2-6.8-.2-1.2,0-2,0-3,0-4.6-.1-9.2-.4-14.2-.3-4.5,0-7.5-.4-12.2-.4-.6,0-1.2-.1-1.6-.2-.6-.1-1.5-.2-2.5-.2-3.2,0-6.9-.2-8.8-.6-2.5.2-2.9-.3-5.3-.3-2.4,0-3.3-.4-5.3-.5-2.8-.2-4.3-.6-6.8-.8-2.6-.2-4.9-.5-7.3-.8-1.3-.1-2.7-.3-2.6-.5,0-.2-1-.3-2.1-.3-.5,0-1.2,0-1.2-.1.2-.2-1.3-.4-2.6-.6-2.2-.3-4.2-.7-6.9-.9-1.2-.3-2.7-.5-4.4-.8-1.7-.3-3.4-.6-5.1-.9-3.4-.6-6.2-1.3-10-1.9-1-.1-2.3-.4-2.2-.5.2-.2-1.5-.6-3-.9-3.1-.6-5.2-1.1-7.6-1.7-1.4-.3-2-.7-4.4-1-2.9-.6-5.7-1.4-8.6-2.1-2.8-.7-5.7-1.4-8.5-2.1-1.6-.4-3.3-.9-4.3-1.2-1.5-.5-4.1-1-5.5-1.5-.9-.4-3.5-1-5.3-1.5-2.4-.7-4.8-1.4-7.2-2.1-2.8-.7-5.5-1.5-8.3-2.3-1.1-.3-2.2-.7-3.3-1-.7-.2-1.6-.5-1.6-.6-.1-.4-2.4-.9-4.7-1.5-1.3-.3-3.2-.7-3.1-1,0,0-1.3-.5-2.5-.7-.7-.2-1,0-1.8-.5-1.2-.6-2.8-1.4-7-2.3-.5-.1-.7-.2-.8-.3-.6-.4-3-1.2-4.6-1.9-4.1-1.8-8-3.5-13-6.1-.8-.4-1.8-1-2.2-1.4-1.5-1.1-3.8-2.6-5.4-3.9-2-1.7-4-3.5-5.8-5.7-1.9-2.3-3-4-4.9-7-.5-.7-.8-1.5-.6-1.5.1,0,0-.3-.4-.8-.1-.2-.2-.4-.4-.6,0-.2-.2-.4-.3-.6-.2-.4-.4-.7-.5-1-.3-.6-.5-1.2-.6-1.7-.2-.5-.3-1-.3-1.4,0-.4,0-.8,0-1.2,0-.6-.1-1.3-.2-2.1,0-1.5,0-2.5,0-4.4.2.2.3-.2.3-.9,0-.3,0-.7.1-1,0-.3.1-.6.2-.8.3-.7.6-1.7,1-2.4.5-.9,1-1.5,1.1-1.3,1.5-2.6,2.7-3.5,5-6.6.3-.4.8-.9.9-.9,0,.1.4,0,.8-.4.4-.3,1-.8,1.6-1.3.8-.7,1.3-1,1.9-1.4.6-.3,1.1-.7,2-1.3.8-.6,1.5-1,2.3-1.5,1.1-.6,1.3-1,1.3-1.1,0,0-.8.3-.8.2,0-.2-.4,0-1.6.8-.4.3-1,.7-1.1.7-.3,0-.2-.1-.9.2-.4.2-.3,0,0-.2.3-.3.8-.6,1.3-.9,3.6-2.2,6.8-3.4,10.7-5.1,1.6-.7,2.8-1.1,4.3-1.9.5.2,2.6-.9,4.3-1.6.9-.3,1.8-.7,2.7-1l1.3-.5,1.2-.4c.8-.3,1.6-.6,2.4-.8.8-.2,1.7-.5,2.5-.7,2-.5,3.9-.8,5.8-1.1,1.8-.2.2.3-.4.5-2,.6-.6,0-1,0-.8,0-1.6.6-2.3.6-.3,0-.7,0-1.3.2-.5.1-1.1.3-1.7.5-.6.2-1.2.4-1.7.5-.5.2-.9.3-1.3.3-.1,0-.6.2-1.1.4-.5.2-1.1.4-1.5.6-1.5.7-2.7,1.3-2.8,1.1,0,0-1.3.4-2,.8-1.6.9-2.7,1.6-2.5,1.7.1.1,1.8-.8,2.8-1.2,1.3-.5,2.6-1,3.8-1.5.5-.2,1.1-.4,1.6-.6l1.4-.5c.5-.2,1-.3,1.5-.5.5-.2,1-.3,1.5-.5,2-.7,4-1.2,5-1.1,3.2-.7,6.4-1.1,8.9-1.1,0,0,.4,0,.6,0,4.8-.5,8.9-.4,12.5,0,1.1,0,2.3.2,3.4.3,1.2.1,2.3.2,3.6.3,2.8.3,5.6.6,8.5,1,.8.1,1.4.2,1.6.3.5.3,3,.7,5,.9,2.4.2,3.8.9,6.7.8,0,0,.2,0,.2,0-.3.3.9.4,2.5.4,1.4,0,2.1.3,2.8.4,2,.3.3.2-.3.2-1.1,0-.3.1.5.2.9.1,2,.5,2.8.3.5,0,1.6,0,2.5.1,1.4.2,1,.3.6.4-.5,0,.2.2,1.2.4,1,.2,1.6.2,2,.1.8,0,1.9,0,3.2.3,2.6.4,4.7.8,5.3,1.3.6.4,1.4.2,2.1.2.9,0,2.2.1,2.3.3.1.2,0,.2,1.8.3,1.3,0,2.1,0,2.9,0,1.3,0,2.2.4,3.6.4.7,0,1.5,0,.5-.2-2.1-.5-1.8-.6,1.4-.4.4,0,.8,0,1.3.1,1.4.1,1,0,.8-.1-.5-.2-.6-.3-3-.5-2.7-.2-3-.3-3.1-.6,0-.2-.9-.2-1.5-.2-3.8-.2-6-.6-8.1-1.2-.3,0,.2-.1-.9-.2-3.7-.4-5.3-.8-4.4-1,.8-.2-1.4-.4-2-.6-.6-.2-2-.4-2.9-.6-.2,0-.3-.1-.2-.1.1,0,.7,0,.8,0,1.5.3,3.4.4,5.1.8,1.8.4,3.3.9,6.6,1.1,1.6.4,3.2.7,5.8.8.6,0,1.7.2,2.2.4,1.5.4,2.2.5,4.3.7,4.6.2,4.6.2,5.9.8.7.3,2.6.5,4.7.4.5,0,.9,0,1.4,0,.5.1-.1.2-.2.2-.1,0-.1,0,.8.1,1.2,0,2.4,0,3.5.1,1.1,0,2.2.1,3.2.2,1.5,0,2.3,0,3.5-.1,1.4-.2,1.7-.4,2.7-.5,1.8-.3,2.3-.7,2.9-1,.6-.3,1.3-.6,3.5-1.1.5-.1.3-.3-.2-.3-2.5.1-1.3-.2-1.1-.5.3-.3,1.4-.7,2.5-1.1.7-.2.5-.3-1-.2-.9,0-1.8.1-2.7.2-.9,0-1.8,0-3,.2-2.3.1-2.9-.1-4.4-.2-.6,0-1.2,0-1.7,0-2.6.2-4.1-.1-5.4-.2-1.8-.2-3.8-.4-5.9-.6-1.9-.2-3.3-.4-5-.6-2.8-.2-1.2-.3-.7-.3.7,0,1.9,0,3.1.1,1.2.2,2.4,0,3.5.2,1,0,0,.2,1.6.3,3.3.3,7.5.2,10.1.5.4,0,.6,0,.9,0,.2,0,.3,0,.4-.1,0,0-.1,0-.2,0-.6-.3-5.1-.6-2.5-1.1,0,0-.7,0-1.1-.1-1.1,0-2.1-.2-3.3-.3-1.2,0-2.5-.2-4.1-.2-2.8-.5-7.6-.9-11.5-1.5-2.5-.4-5.1-.8-7.9-1.2-3-.4-4.6-1-8-1.3-4.6-1.1-12-2.1-17.5-3.2-.8-.2-1.7-.1-2.2-.2-1.4-.1-3.8-.4-3.9-.4-1.5-.5-4.7-.9-7.5-1.3-1.2-.2-1.9-.3-3.2-.3-1.5,0,0-.4-2.4-.3-.1,0-1-.3-3-.4-2.2,0-4.2-.2-6.1-.4-1.8-.1-4.1-.3-5.1-.5-1.4.2-2.3,0-3.4,0-2,0-2.7,0-4.2,0-.8,0-2,0-2.4.1-2.4.3-4.2.4-6,.5-5.1.4-10.8,1.4-15.6,2.7-1.9.5-4.6,1.5-6.7,2.4-.9.4-1.4.7-1.7.9-.3.2-.9.6-.6.5.4,0,1.3-.6,1.9-.9,1.5-.7,2.2-.9,2.2-.7,0,.1.6-.2,1-.4.5-.3,1.3-.6,1.6-.7.7-.1,1.2-.2,2.1-.4.8-.2,2-.6,4.1-1.3.2,0,.5,0,.4,0-.1.2.8,0,1.8-.2,1.1-.3,2.2-.4,3.3-.6,1.1-.2,2.3-.4,3.7-.7,0,.2,1,0,2,0,1-.1,2.2-.2,2.8-.2,0,0,.4,0,.6,0,3.2-.3,3.3-.2,2.5,0-.3.1-1.2.3-.4.4.8,0,1,.1-.1.3-1,.1-1.8.2-2.8.2-1.2,0-2.5,0-3.9.2-.7,0-1.4.1-2.1.2-.7.1-1.3.2-1.9.4-2.7.6-3.5.7-5.1,1.1-1.9.5-2.6.5-4.1,1-2.2.9-2.6.9-3.1.9,0,0-.8.3-1.1.4-.8.4-1.6.9-1.6.6,0,0-.7.1-.9.3-2.5,1.4-4.1,1.8-5.9,2.4-2.2.8-4.5,1.8-6.6,2.6-1,.4-2.1.8-3.1,1.3-1,.4-1.9.8-2.8,1.2-1,.4-1.9,1-2.9,1.5-2.2,1.2-5.4,3.9-5.7,3.5,0,0-1.2.9-1.8,1.3-2.6,2.1-5,4.6-7,7.3-.5.7-1,1.4-1.6,2.2-.5.8-.9,1.5-1.4,2.3-.5.7-.9,1.6-1.3,2.5-.2.4-.4.9-.5,1.3-.2.5-.3.9-.4,1.4-.5,1.9-.9,3.5-1.1,5.2-.2,1.7-.2,3.5.1,5.7,0,1.1.2,2.6.6,4.2.5,1.6,1.1,3.3,2,5,.3.6.6,1.2.8,1.6,1.1,2.6,2.9,5.8,5.4,8.8,1.1,1.4.2.9,1.9,2.6.8.9,1.5,1.6,2.2,2.4.7.8,1.6,1.5,2.8,2.4.6.6,1.4,1.3,2.4,2.1.9.8,2,1.5,3.1,2.2.4.3.9.6,1.3.9.5.3,1,.6,1.4.8,1,.5,1.8,1.1,2.6,1.5,1.7,1,3.7,2,5.5,2.9,3.6,1.8,7.5,3.3,11.3,4.8,1.2.4,1.4.7,3.1,1.2,1.1.3,2.2.6,3.2.9,1,.3,1.9.5,2.8.8,1.8.5,3.3,1,4.5,1.5,2.6.9,6.9,2.1,8.3,2.9.5.3,3,1,5,1.6,6.8,1.9,12.9,3.6,19.4,5.4,1.2.3,1,.6,3.2,1,1.5.3,3.3.7,3.1.9-.3.3,2.5.3,2.4.6,0,.3,1.4.2,2.3.5,1.7.4,0,.3,2,.8.4,0,.9,0,1.1.2,2,.5,5.6,1,5.6,1.5,0,0,.6.3,1.1.4,2.1.5,3.9,1,5.8,1.4,1.8.4,3.7.8,5.7,1.3,1.2.3,2.2.5,3.5.5.7,0,1.9.3,1.8.4-.3.2,1.5.6,2.9.9,1.3.3,2.5.5,3.8.8,1.2.2,2.5.5,3.7.7,2.4.5,4.6.9,6.6,1.4,1,.2,2,.4,3.1.6,1.7.3,4.4.7,4.2,1,0,0,.6.2,1.1.3,4.1.6,7.2,1.2,11.5,1.7,1.8.2,3.6.5,5.1.7,1.5.2,2.6.4,3.3.7.5-.2,2.1,0,3.6,0,2,.1,1.6.3,1.6.4.1.3,1.2,0,1.8.1,2.1.2,4.2.4,6.2.6,1.4.1,2.6.2,4.1,0,.8,0,1.5,0,1.9.1.2,0-.8.1,1,.2,4.4,0,5.9.2,8.1.7.6.1,1.3.1,1.9,0,2.3-.3,3.6,0,5.2,0,1.2,0,1.4.2,1.9.3.4.1,1.3.1,2.1,0,2.1-.1,3.2-.1,2.7.2-.1,0,.4.1,1.4.2,3.6,0,5.7.4,8.7.5.2,0,.2,0,0,.1-.2,0-.9.1-1.5.1-1.8,0-3.4,0-5.2-.1-1.1,0-2.2-.2-3.5,0-.9.1-1.6,0-1.8,0-.5-.2-2.2-.4-4-.4-2.1,0-3,0-4-.2-.7-.1-2.1-.1-3.1,0-1.4.2-1.7.1-1.6-.1,0-.2-.4-.3-2.6-.4-2.9,0-5.8-.2-7.6-.5-1.2-.2-2.7-.3-4.2-.5-1.5-.2-3.1-.4-4.5-.6-1.7-.2-3.7-.4-5.7-.6-2-.2-.4-.5-2.9-.6-.6,0-.9.2-2.4,0-2.6-.2-4.6-.8-7.7-.9-.9-.3-3.4-.6-4.7-.9-1.3-.3-2.8-.5-4.3-.8-.6-.1-.6-.2-1.8-.3-3.4-.4-6-.9-9-1.4-1.4-.2-2.5-.5-4.3-.7-1.6-.1-3-.3-2.8-.5,0,0-.1-.1-.5-.1-.4,0-.8,0-.9,0-2.3.2,4.4,1.1,4.4,1.5,0,.1,1.2.1,1.8.2,1.7.2,4.7.4,3.1.7-.4,0,1.2.3,2.1.5,2,.4,3.9.7,5.9,1.1,2,.3,4,.6,6,.9,3.1.5,6.1.9,9.1,1.4.8.1,1.5.2,2.3.3.8,0,1.5.2,2.3.3,1.5.2,3.1.3,4.7.5,2.8.3,5.6.6,8.4.9,2.8.3,5.4.4,7.8.7,1.3.1,3,.3,4.9.2,1.1,0,1.4,0,1.4.2,0,.2.9.2,2.1.2.4,0,1.3,0,1.3,0,0,.2,1.2.3,2.7.3,3.9,0,6.3.5,10.6.4,5.6.3,9.9.7,17,.7.4,0,.7.1,1.2.1,3.7,0,6.3.2,10,.2,1.7,0,2.4.2,4.1.1,1.8,0,3.1,0,4.7,0,2.1,0,1.4.2,2.7.2,2.9,0,5.3.1,8.4.1,3.9,0,7.6,0,11.4,0,1.5,0,1.4.1.5.3h1.1c.4-.2,1-.3,2.4-.3,1,0,.3.2-.2.3h1.1c2-.3,3.9-.4,5.7-.3,1.2,0,.6.2,0,.3h2.3c.4-.1.8-.3,1.9-.3,1.6,0,1,.1.3.3,15.2,0,30.4,0,45.6.3l22.8.4c7.7.1,15.3.2,23,.2.6-.1.8-.3,2.3-.3,1.4,0,.5.2,0,.3h2.3c.6-.2,1.3-.3,2.9-.3,1.6,0,1.3.1.5.3h6.9c.5-.2,1-.2,1.6-.3,2.4-.2,2.7-.2,1.9.2h1.1c.4-.2.9-.3,2.3-.4,1.2,0,2.4,0,3.4,0,4.6,0,10.4-.3,15.3-.4.7,0,1.5,0,2.3,0,3.6-.3,3,0,1.9.3h1.1c.3-.2.8-.3,2.2-.4,1.4,0,2.4,0,4.1-.3,1.8-.3,3.2-.3,3.5-.1.1,0,.5.2,1.5,0,3.4-.5,5.7-.5,8.4-.6,2.9-.2,5.7-.2,8.7-.5,2.4-.3,4.5-.3,6.6-.6,3.7-.6,4-.3,5.8-.3.3,0,.9,0,1.2-.1,1-.2,1.8-.4,2.1-.2.5.2,2.1-.1,3.4-.3,1.9-.3.8.3,2.5,0,2.6-.5,4.2-.6,5.8-.7,9.3-.7,20.2-2.2,29.5-3.3.4,0,.8-.1,1.2-.2,7.6-1.1,15.2-2.4,22.2-3.6,2-.3,3.9-.7,6-1.4,1.3-.4,2-.6,2.9-.6.7,0,2.6-.5,3.8-.8,2.7-.5,7.1-1.8,7.8-1.5,0,0,.1,0,.2,0,.1,0,.3,0,.5-.2.4-.1.8-.2.9-.2,1.6-.1,7.1-2.5,7.3-2,.4-.2.8-.3,1.2-.5,1-.4,2-.8,3-1.1,1.9-.7,3.2-1,5.8-2.1,1.2-.5,2.2-1,3.2-1.4.5-.2,1-.4,1.5-.7.5-.3,1-.6,1.6-.9,2.8-1.7,5.3-3.4,7.7-5.7,2.4-2.2,4.5-4.8,6.1-7,1.7-2.3,3.3-5,4.6-7.8,2.4-5.1,3.9-10.4,4.7-15.9.3-2.4.7-4.5.6-7.6,0-1.7,0-3.4,0-4.6,0-1.8,0-4-.8-7-.4-1.8-1-3.5-1.3-4.4-.5-1.9-1.1-3.7-2.6-6.2-.4-.7-.7-1.2-1-1.8-.2-.3-.3-.5-.5-.8-.2-.3-.3-.5-.6-.9-.2-.3-.5-.6-.7-.9-.3-.3-.5-.5-.8-.8-.5-.4-1.2-.9-1.8-1.3-.3-.2-1.4-.9-1.8-1.3-1.7-1.2-4-2.5-6.7-3.7-2.9-1.2-5.5-1.7-7.6-2.4-2.3-.4-3.8-.7-4.3-1-.4-.2-2-.5-3.3-.7-1.2-.3-2.3-.3-3.5-.4-1.3-.1,0-.2-1.6-.5-.6,0-1.2-.2-1.8-.2-4.7-.4-5-.5-7.5-1.2-.6-.2-1.8-.4-2.4-.4-1.9,0-2.6-.4-4.9-.5-1.8,0-1.9-.5-3.7-.6-1.9-.2-2.7-.4-4.1-.5-1.5-.2-3-.4-4.6-.5-1.8-.1-3-.3-4.2-.5-1.4-.2-3-.3-4.6-.2.2-.3-1.7-.3-3.2-.3-.7,0-1.2,0-1.4-.2-.3-.1,0-.4-1.7-.3-2.6.1-1.5-.3-2.3-.2-1.9.1-3.2,0-4.7-.1-2.8-.2-5.9-.3-8.3-.5-2.7-.2-6.2-.2-8.3-.5-1.8-.2-3.8-.2-5.4-.3-1.7-.1-3.1-.3-4.7-.5-1.7-.2-4.3-.2-5.7-.4-2.6.2-4.4-.2-6.2-.3-3.4-.3-5.3-.8-9.9-1-1.2-.3-4.2-.4-5.9-.7-2.2-.3-4.7-.5-6.9-.8-.7,0-1.5-.2-2.3-.2-2-.2-2.6,0-2.8.1-.4.2,1.3.2,1.9.2,2.1,0,1.7.2,2.2.4.5.1-.2.5,2.6.3.1,0,1.1,0,1.1,0,0,.3,4.5.1,3.7.5-.5.3,1.9.5,4.3.7,2,.2,4.3.3,5.6.6,1.5.2,4.8,0,5.3.5.2.2,2.1,0,3.2,0,1.5,0-.2.3,1.6.3.5,0,1,0,1.4,0,.5,0,.9,0,1.4,0,0,0,.2.1,0,.2-.4.1-.5.2.7.3,1.5.1,3.1.2,4.6.3,1.1,0,3-.2,3.3.2.2.2,2.6.3,3.1.5,0,0,2,0,3,0,1,0,1.7,0,1.8.2.2.3,2.5.1,3,.2.9.1,4.3-.5,2.8.1,0,0,0,0,.2,0,2.3.2,6.1.2,7.9.5,0,0,.7,0,1.1,0,1.2,0,2.3,0,2.3.1,0,.3,1.3.3,3,.3,1.4,0,3.1,0,3,.2-.2.4,2,.5,4.6.5,1.9,0,3.3.2,4.8.3,3.6.4,7.3.8,10.9,1.3,1.7.2,2.9.4,4.2.2.6,0,1.3,0,1.2.2-.2.2.1.4,3,.6,1,.3,2.7.4,4.6.7,2.4.3,4.8.7,6.4,1.1,1.4.3,1.8.6,4.7.8.8,0,2.1.3,2,.4-.2.2,1,.4,2.8.6,1.9.2,2.9.5,2.2.6-.6,0-1.1,0-5.2-.5-2-.2-1.2-.3-1.6-.4-.3-.1.9-.1-.6-.3-1.9-.2-3.5-.6-4.7-.6-3.3,0-1.3-.4-2.8-.5-.4,0-.8,0-1.2-.1-4.7-.3-8.2-.8-10.2-1.4-.5-.2-1.3-.3-2.5-.3-1.2,0-1.3,0-1.3-.2,0,0-.3-.2-.9-.2-1.5,0-2.9,0-2.8-.3-2.7-.2-4-.6-6-.7-3.2-.2-4.1-.6-6.8-.8-1.6-.1-2.8-.3-4.7-.4-2.2,0-5.6,0-5.4-.5,0,0-.3,0-.6,0-.4,0-.8,0-1.1,0-1.2,0-2.5,0-3.2-.1-3.9,0-6.5-.4-9.9-.5-3.3-.1-5.7-.5-9.4-.5-1.7-.5-5.8-.5-9-.7-.6,0-1.4,0-1.6-.1-1.6-.4-4.8-.5-7.5-.7-3-.2-6.1-.4-6.7-.9-.2-.2-1.1-.3-2.7-.3-1.3,0-2.5-.1-3.6-.2-2.6-.3-5.3-.6-7.8-.8-3.1-.3-5.7-.8-9.5-1.1-2.6-.2-4.9-.6-7.3-.9.8-.4-3.4-.6-5.2-.8-1.2-.2-2.9-.5-5.4-.6-3.3,0-1.7-.5-4-.6-.8,0-1.8-.2-2.4-.2-2.3,0-4.2-.3-6-.5-2-.3-4.5-.4-6.4-.8-1.9-.3-4.8-.6-7.2-.9-3.4-.4-6.8-.8-10.2-1.2-3.2-.4-7.2-.7-9.5-1.1-2.9-.5-7.2-.6-10.1-1-1.4-.2-3.2-.4-5.2-.4,0-.3-3-.4-3.7-.5-2.1-.5-6-.9-9.4-1.2-1.5-.1-3.7-.3-4.4-.5-1.5-.3-4-.6-6.4-.7-2.2-.2-4.2-.4-6.9-.5-2.6-.1-5.3-.3-7.4-.5-3.7-.3-7.9-.5-12.4-.4-1.3,0-2.5,0-3.7,0-1.9,0-4,0-5.8-.1-1.8,0-5.1.1-6.2-.2-.1,0-1.1,0-1.7,0-1.1,0-2.2.2-2.6,0-.2-.1-2.1.2-3.5.1-1.4,0-4.4,0-4.4-.2,0,0-.2,0-.6,0-2.7.3-4.3,0-6.4.2-2.8.2-3.6,0-5.7,0-1.5,0-2.6,0-3-.2-.1,0-.2-.2-1.1,0-1.8.3-3.1.2-4.6.3-3.7.2-5.9,0-9.2.2-2.6.1-4.2.1-6.2.1-1.5,0-2.5,0-4.7,0-1.8.2-1.2-.2-3.6,0-1.3,0-2.5,0-4.3.2-3.7.4-6,.4-7.6.2-.5,0-1.9,0-.9-.3,1.6-.4,1.7,0,2.6-.2.4,0,.9,0,1.1-.1,2.3-.4,3.6-.4,3.9-.2.1.1.7,0,1,0,.5-.1.8-.2,1.4-.4.5-.1,1.3-.2,1,0-1,.4,2.8,0,3.3.3.5.2,3.4-.1,5.1-.1,1.2,0,2.6-.3,3.4-.5.2,0,.7-.1,1-.2.4,0,.9-.1,1.2-.1.6,0,.3,0,.1.2-.8.3.1.3,2.1,0,1.8-.2,3.2-.4,3.4,0,0,.2,1.8-.3,2.5-.1.4.1.6.2,2.1.2.4,0,.9,0,1.2,0,1.2-.2,1.7-.3,1.9-.5.2-.1-.8,0-1.5,0-2.3,0-4.4,0-6.9,0-1.8,0-3.2.1-3.7,0-.7-.2-1.7,0-3.2.2-.9.1-1.5,0-1.8,0-.2,0,.7-.3-.9,0-1.1.2-1.4.2-1.3,0,0-.2-.8,0-1.6,0-1.8.3-2.1.2-2.5,0-.4-.1-1,0-1.7.1-.7.1-.9,0-1.1,0-.4-.2-2.1-.1-3.1-.2-1,0-4.4.2-5.1,0-1.3-.2-3.5.3-5.2.3-1.4,0-4.1.3-5.7.3-1.5,0-3.7.4-5,.3-1.2,0-3.9.3-5.3.2-1.4,0-1.9.1-3,.3-1.5.3-2.8.4-2.9.2,0-.1.3-.3.3-.5,0,0-.2-.2-1.2-.1-4.4.3-8.5.5-13.3,1-1.3.1-1.9.2-2.5.4-.2,0-.6.1-.9.2-.5,0,0-.1,0-.2.1,0,0-.1,0-.2-.3,0-.7.1-.9.2-.9.2-.9.4-2.4.7-1.1.2-2.5.4-3.4.3-.4,0-.6,0-.5-.1.4-.2,1.5-.3,2.5-.4.9,0,1.6-.2,2.2-.3.5-.2,1.3-.4.8-.4-.8,0-1.7.2-2.5.3-.9,0-3.4.5-4.2.2-.9-.3-3.6-.1-8.1.5-2.1.3-2.4.3-2.8.1-.2-.1-1.5-.1-2.6,0-1.2,0-2.2.3-3.2.5-1.4.2-2.4.3-3.1.2-2.6-.2-3.7-.1-8,.6-1.3.2-2.4.4-3.7.5-1.3.1-2.7.2-4.1.4-.6,0-1.3.1-1.7.3-.3,0-.4.2-.1.2,1.5,0,2,.1.2.7-.3,0-.2.1-.2.2.5-.1,1.1-.2,1.6-.4.7-.1,1.5-.3,2.1-.3.3,0-.2.2-.8.3-1.1.2-.7.2.1.2,3.5-.2,6.9-.4,11-.8,1.1-.3,0-.4.9-.6.6-.2,1.7-.4,2.5-.4.9,0,1.7,0,2.2,0,.3,0,0,.2-.8.2-1.9.2-2.8.6-4.9.8-.3.1-.9.3-.2.3.7,0,1.4-.1,2.1-.3,1.9-.5,2.8-.5,2.7-.2,0,0,.1,0,.2,0,3-.4,2.7.1,5.1-.1,2.7-.3,4.6-.3,7.3-.6,2-.2,3.4-.3,4.7-.2,2.2.1,6-.3,8.7-.8,1.5-.3,2.8-.5,3.7-.4.8,0,1.8,0,3-.2,1.8-.1,3.5-.2,5-.3,1.6,0,1.3.3-.6.6-1.6.3-3.2.6-4.9.5-1,0-2.7,0-4.6.4-1.6.2-3,.4-2.9.1,0,0-.2,0-.6,0-2,.4-3.5.4-5.2.5-4.4.4-8.3.6-12.5,1-3.1.3-6.9.7-9.3.7-1.3,0-1.9,0-3.4.3-2.1.5-3.6.7-5.6.6-1.4,0-4.1.3-6.9.7-3.2.5-4.4.8-4.8,1.2-.3.3-.6.6-2.4,1.1-1,.3-1.4.6-2,.9-.2,0,0,.1-.1.2.3,0,.7-.2,1-.3,1-.4,3.1-.6,3.7-.9.2-.1,1-.3,2-.5,1.8-.3,3.4-.2,5.6-.8.3,0,.8,0,.5,0-2.3.6,2.1,0,1.1.3-.5.2-.5.3.7.2,2.3-.2,8.8-.7,11.8-1.1,1-.1,1.5-.2,1.7-.1.4.2,1.1,0,2.5-.2,1.1-.2,1.9-.2,1.6,0-.5.3-1.2.5-3.6.6-.6,0-2,.2-3,.4-1.4.3-3.2.7-3.3.3-.9.1-1.7.4-2.7.4-2,0-4.1.3-6.5.7-1.6,0-2.9,0-5.3.4-1.7.2-2.9.5-4.4.8-1.6.3-2.9.4-4.7.9-1.4,0-3.3.7-4.9,1.2h.1ZM510.7,130.1c-.6,0-1.3.3-1.3.1,0,0,.1-.1.3-.2,2.3-.7,3.8-.9,6.5-1,2.3-.4,2.7-.4,1.5,0-.4.2-.9.3-2,.5-1.1.1-.7,0-.5-.1.2,0,.6-.2.9-.3-1.8.4-3.7.7-5.5,1ZM304.5,9.6c-.6,0-1.8.1-1.8,0,0,0,.4-.2,1.4-.3.7,0,1.1.2,2.2,0,.8-.2.9-.4,2.8-.5-.2.2.4.4-.6.6.3,0,.8,0,1,.1.4,0,.2.2-.8.2-.4,0-.8,0-1.2,0,0,0,0-.1.2-.2.2,0,.6-.1.9-.2-1.5,0-2.3.3-4,.2ZM60,100.7c-.4,0-.9-.1-1.5-.3-.3,0-.4-.2-.6-.3.5.1,1.1.2,1.6.3.3,0,.8.2,1.1.3-.4-.3-.6-.6-3.2-1.2-.8-.2-1.4-.4-1-.5.3,0,.9,0,1.8.2.4,0,.9.2,1.2.3,1.5.5,2.6.4,3.9.9,1.2.4.2.4.8.7,1.1.6.9.6-2.2-.2-.4-.1-.8-.2-1.2-.3-.2,0-.4,0-.6,0ZM87.9,15.7c.3,0,.5,0,.8.1,1.8,0,3.3.2,3.8.5-1.6,0-3.2,0-4.8-.2-1.7-.1-3.2-.2-4.8-.3-1.6,0-3.3,0-5.3,0-.3,0,.2-.2.7-.3-.6,0-1.2,0-1.8.1-.7,0-2,.2-2.1.2-.4,0,.4-.2,1.1-.3,1.3-.2,2.9-.3,2.7,0,2-.2,3.6-.2,5.2-.1,1.6,0,3,.2,4.6.3ZM100.4,13.6c1.2,0,2,.2,2.4.3.5.2-.5.2-1.6.1-1,0-2.7-.3-2.3,0,0,0-.9,0-1.2,0-2.1-.2-3.4-.1-5.1,0-.2-.2,0-.3-2.3-.4-2.1,0-1.3-.3,0-.3.3,0,.5,0,.5-.1.2-.2,0-.5,2.9-.4,1.8.1-.2.3,0,.5.3.2,0,.2,2.9.2-.9-.1-1.2-.3-1.1-.4,0,0,1,0,1.5,0,1.1,0,.7.1.6.2-.3,0-.7.1-1.1.2,1.7.1,2.3,0,3.8,0ZM14.4,41.8c.6-.8.5-.5.4-.2,0,.3-.2.7-.6,1.6-.3.6-.1-.3-.6.5,0,.3-.2.6-.4,1-.2.4-.3.8-.6,1.4-.5,1.2-1,2.4-1,4.1,0,.6-.2,1.5-.2,1.2-.2-1-.3.4-.4,1.7,0,1,0,2.3.2,3.3,0,1,.2,1.9,0,2.1,0,.2.3,1.8.9,3.1.2.5.6,1.1.5,1.3,0,.1,0,.6-.3,0-.3-.5-.6-1.2-.8-1.8-.4-1.3-.7-2.6-.9-3.9-.2-1.3-.2-2.6-.2-3.9,0-2.2.6-5.1,1.1-5.5,0,0,.4-1.1.4-1.3.3-1.4.6-1.8.8-2.1.3-.3.4-.3.8-.9.1-.4.1-.8.8-1.8ZM24,31.9c2.2-1.5,4.9-3.1,7.8-4.5,2.8-1.4,5.7-2.6,8-3.3,3.2-1.6,5.7-2.1,9.1-3.8.4-.2.4-.2.7-.3.3,0,.8-.3,1.4-.5.6-.2,1.2-.4,1.9-.6.7-.2,1.3-.5,2-.6.7-.2,1.2-.3,1.7-.5,1.2-.4,3.1-.9,3.6-.9.4,0,1-.2,1.6-.3.6-.1,1.1-.3,1.3-.3,1,0,2.3-.3,3.5-.4,1.3-.1,1.5,0,3.2-.2,1.3-.1,1.2,0,1,.2-.3.2-1.5.2-2.4.4-1.2.2-2.3.2-3.4.4-1.1.2-2.3.4-3.7.9-.2,0-.5,0-.7,0-.4,0-.2-.2-1.9.4-1.5.6-.7,0-1,.1-1.2.5-2.3.8-3.4,1.1-1.1.4-2.1.7-3.4,1.4-1.3.7-4.7,1.9-5.5,2-.8.1-2,.6-3.6,1.4-1.3.7-2.5,1.4-2.3.9-1.3.6-3.3,1.6-3.3,1.4,0-.4-3.3,1.5-3.6,1.4,0,0-.8.5-1.6.9-.7.4-1.3.8-1.2.5-.8.4-1.5.8-2.3,1.2-.7.4-1.5.8-2.2,1.3-1.3.8-2.5,1.8-3.8,2.8-1.1,1-1.8,1.5-1.7,1.1-.7.9-1.3,1.7-2,2.4-.6.8-1.3,1.5-1.9,2.3-.3.4-.5.6-.5.4,0,0,.5-1,1.1-1.8.3-.4.6-.8.8-1.2.2-.3.4-.5.4-.5,0,.2.7-.6,1.3-1.3.6-.7,1.2-1.2.9-.6,0,0-.1.2-.2.3.6-.7,1.3-1.5,2-2.1.7-.6,1.4-1.2,2-1.5ZM8.4,55.5c0,1.3.1,2,.3,2.5.1.6.3,1,.7,1.8.2.4.3.6.7,1.4-.1,0-.2-.2-.4-.3-.3-.3.6,1.8.4,1.6-.3-.2-1-1.2-.4.4.4,1,.8,1.8,1.2,2.4.4.6.9,1.2,1.3,1.7.1.2.4.5.5.8,0,0,0,.2-.1,0-.2-.1-.4-.4-.6-.5-.1,0-.1,0-.2,0,.2.3.5.7.7.9.2.3.4.4.6.7.2.2.4.5.6.8,0,0,0,.3,0,.2-1.1-1,0,.9-.4.9,0,0-.3,0,.3.5,1.6,1.5,1.7,1.9,1.6,2.2,0,0-.4,0,.5.7.4.3.7.5,1.1.9.3.3.8.8.7.8-.2,0,.2.7-.7-.1-1.9-1.9-1.9-1.4-1.9-1,0,.3.2.5-.8-.7-.7-.9-1.2-1.5-1-1.6.2-.1.7.4,1.2.6.4.2-.2-.6-.9-1.5-.7-.9-1-1.3-1.1-1.7,0-.3-.2-.7-1-1.6-.2-.3-.4-.3-.6-.6-.3-.4-1-1.1-1-1.4-.1-.5-.7-1.5-1.2-2.5-.5-1-.8-1.9-.6-2,.1,0,0-.9-.6-2.6-.1-.5-.4-1.8-.5-3,0-.6,0-1.2,0-1.7,0-.5,0-.9,0-1,0-.3,0-.3,0-1.1,0-2.5.4-3.1.7-4.3.1-.6.5-1.6.5-1.3,0,.5-.3,1.6-.4,2.5-.3,2.7,0,3.3.5,2.1-.1-2.6,0-2.7.6-4.4.1-.2.2-.1.3-.8,0-.8.5-2.2-.1-1.1-.3.6-.4.8-.3,0,.2-.7.6-1.5.9-2.2.5-.9,1.1-1.8,1-1.4,0,.3-.3,1-.3,1.2,0,.2.5-.6.9-1.3.5-.9.8-1.5.7-1.6,0-.2-.6.2.9-1.9,2.1-2.7,2.8-3.4,2.2-2.3l-.3.6c-.3.6-.5,1.2.2.4.7-.8,2-2.2,2.7-2.9,0,0,.9-.9,1.1-1.2.4-.5.8-1.1,1-1.4.6-.8,1.6-1.7,3.1-2.7,4-2.7,8.8-5,13.4-6.8,2-.8,3.8-1.4,5.8-2.2,2-.8,4.1-1.6,5.4-1.9,3.9-1.8,6.9-2.5,10.4-3.4,2.3-.5,3.3-.7.6.3-.3,0,0,.2,0,.2,0,0,0,0,0,.1.3,0,.6-.2.8-.3.3-.1.4-.2.6-.3.7-.3.8-.5,2.9-1,1.9-.4,2.9-.4,4.8-.7,1-.2,1,0,.6.1-1.5.6-3.1,1.2-4.7,1.9-.2.1-.5.2-1.3.3-2.4.4-2.4.5-3.9,1.2-.3.1-.6.3-1.2.5-.1,0-.1,0,0-.1.4-.3,1-.6,1.5-.8.6-.3.8-.5-1.2.2-.7.3-.5,0-.4,0,.5-.3.7-.5-1.3.3-.9.4-1.9.6-2.6.8-.6.1-.9.2-1.6.6-.5.3-1.3.9-1.6.6-.2-.1-.8.4-.9.4-.6.4-1.1.7-1.7,1-.2,0-.4,0-.7,0-.3,0-.7,0-1.1.1-1.2.6-2.3,1-3.4,1.4-.8.3-1.3.6-1.3.7,0,0,.3,0-.6.4-.3.1-.7.3-.9.3-.8.2-.8,0-.4-.3.5-.4-.2-.1-1.3.4-1.7.7-2.9,1.2-3.1,1.7,0,0,.4,0-.4.4-.9.4-1.1.5-.9.2.5-.5.4-.7-1.9.8-.7.4-.9.5-1.1.5-.6.1-1,.2-3,1.6-.8.6-.5.3-.6.3-.2,0-.3-.3-1.3.5-.8.5-1.6,1.1-2.4,1.7-.8.6-1.5,1.2-2,1.8-.2.2-.4.5-.8.9,0,0,0,0,0-.2.4-1,.2-.9-2.4,1.4-.6.6-1.1,1.1-1.7,1.7-.5.6-1,1.3-1.6,2.2-.5.8-1.8,3.1-1.8,2.3-.2.3-.4.6-.5.9-.5,1.1-1,1.9-1.4,2.5-.4.5-.9,1.2-1.2,3.2,0,.3-.3,1.2-.5,2-.2.8-.4,1.6-.5,1.7,0,.1-.2-.3-.3.4,0,1.4.1,2.4.2,4.2ZM384.3,137.4c2.3,0,4.6-.3,5.8,0,.4,0,1.8,0,2.3-.2,2.3-.4,3.5-.3,4.9-.2,2.7.2,5.5.3,10.5-.2,1.5-.2,3-.2,3.1,0,0,.2.9.2,2.4,0,1.3-.2,2.9-.3,3.1-.1.3.2,1.6.2,3.7,0,1.4,0,2.2,0,4.2-.3,2-.3,4.1,0,6.6-.4,1.5.3,6.5-.3,8.3,0l4.1-.3c1.6-.2,3-.3,3.8-.2.8,0,2.3,0,3.6-.1,2.6-.3,4.5-.4,6.6-.5,1.4,0,2.4-.1,4.1-.4,1.4-.2,0,.2,1,0,.7,0,1.2-.2,2.2-.3,1.5-.2-.2.5,3,0,1.7-.3,3.2-.3,4.7-.4.9,0,1.5-.2,2.3-.3,1.7-.3,3-.4,3.5-.3.5.1,1.4,0,3.1-.2,1-.1.9.2,2.8-.3,1.1-.3,1.1,0,1.5,0,1.1,0,2.1,0,4.4-.4.6-.1,1.2-.2,1.7-.2,4.1-.2,8.9-.8,13.8-1.5.8-.1,1.5-.2,2.3-.2,1.2-.1.5.1.6.2.1.1-.8.2-1.5.4-2.8.6-5.6,1-7.7,1.1-1.9,0-4.4.4-6.5.6-1.4.1-2.9.3-4.2.6-2.7.6-4.3.5-6.5.8-.7-.3-4.4.4-5.8.3-.7,0-2.4.6-3.5.4-4.2.6-7.1.7-10.2.8-1.3,0-1.3,0-2.1-.1-1.1.2-2.2.3-3.5.4-2.3.1-5.6.6-6.9.4-.3,0-2.3.1-2.6.2-3.2.4-5.1.3-7.5.4-2.3.1-4.8.3-7.1.4-1.4,0-2.4,0-4,0-.8,0-1.4,0-2.4.2-4.3.5-6.6.6-8.4.4-.4,0,.3-.2-1.6,0-2,.3-4.1.4-6,.3-1.5,0-3.5-.1-6.1.3-.3-.2-4.3.2-3.7-.1,0,0-.8,0-1.4,0-2.5.3-3.8.2-5.2.1-2.6,0-7.8-.2-10.8-.1-3.3,0-6.1,0-8.7-.2-.5,0-.5,0-1.1,0-3.3.2-6.5.1-8.1,0-.4,0-.7,0-.4-.2.4-.1,1.3-.2,2.1-.2,2.1-.1,3.6,0,5.9,0,2.7.3,9.1-.2,11.8.2ZM348,137.6c-.2,0-.8,0-1.2-.1-1.9-.2-5.2-.2-8-.2-3.4,0-7.3.1-9.5-.2-.7,0-2.5,0-2.9,0-4.6.3-6.5,0-8.8-.2-.6,0-1,0-2,0-.6,0-1.6.2-2,0-.2-.1.5-.2,1.2-.4.7-.1,1.7-.2,2.2-.1,2.6.2,6.6,0,9.9,0,2.3,0,4.5,0,6.3,0,3.5.1,7.9,0,11.7.1,4,0,8.1.1,11.6.3,1.6,0,4.2,0,5.6.2.6,0,1.6.1,1,.3-.7.2-2,.2-3.2.2-2.1,0-3.2,0-4.4-.1-3.1.2-4.3-.2-7.5,0ZM77.2,12c3.7-.2,6.7,0,8.8.3.6.1,1.6.2,2.8.2,1.1,0,2.3,0,2,.2-.3.2-1.7,0-2.6,0-1.3,0-2.5,0-3.8,0-.6,0-1.1,0-.6.2.6,0,1.2.2,1.9.3.5,0,1.6,0,1.5.2,0,0-.9.1-1.9.2-1,.1-2,.2-2.4.2-1.1,0-.6,0-.7-.1,0,0,1.1-.2,0-.2-.4,0-1.2,0-1.7.1-.5,0-.8.1-1.2.2-.3,0-.7,0-1,.1,0,0-.1,0,0-.1,1-.4,0-.2-1.3,0-.2,0-.6,0-1,.1,0,0,0,0,0-.1,0,0,1.9-.5-1.1,0-1.2.2-1.7.1-2.3,0-1.7-.1-3.9,0-6.8.6-.4,0-.7.1-1.1.2,0,0-.2,0,0-.1,1.4-.6,3.2-1.3,4.5-1.8,1-.4,2.5-.5,4.1-.6.3,0,.6,0,1.2,0,.7,0,1.7,0,2.7,0ZM151.8,123.5c.8.1-.7.4,2.2.5.2.1.5.3.7.4,3,.4,2.3.5,1.9.6-.3.1-.4.2-2.5,0-1.4-.2.3.2.4.2.1.1-.1.2-.7.2-1,0-1.2-.2-1.7-.3-.6-.1-1.4-.3-2.1-.4-2.3-.5-2.3-.4-.3-.5,1.1,0,.3-.1-1.1-.3-.6,0-1.2-.2-1.3-.3l-.2-.2c-.3,0-.6,0-.9,0-.3,0-.4,0-.6,0-.7,0-1,.2-2.4,0-1.9-.3-.7-.3-.6-.4.2-.2-.6-.2-.9-.1-.8,0-1.5,0-3-.3-1.5-.3-.8-.4-.9-.5,0-.1.7,0,1.1,0,2.8.6,3.6.4,4.4.3.2,0,1,0,1.6,0,1.3.3,2.9.4,4.5.6.5.2,1.4.4,2.6.6ZM262.6,9.7c-.7.1-1.2.4-2.2.4-1.8,0-4.2.5-5.4.3-.4,0-1.1,0-2.4,0-.9,0-2,.3-2.7.2-.5,0-1.1-.2-.8-.3.7-.3,1.8-.6,3.2-1,.7-.2.6,0,.7,0,.1,0,.1.2.7,0,1.9-.5,3.8-.5,5.8-.5,1.3,0,2.6,0,3.7,0,1.2,0,2.8,0,1.2.3-.5.1-.8.2-1.2.3h0c-.2,0-.3.1-.6.2ZM199.5,12.4c-.7.2-3.2.5-4.3.5-1.7,0-2.8,0-5.4.2-1.3.1-1.3-.3-.1-.6.6-.1,1.4-.3,2.1-.4.4,0,.7-.1,1.1-.2,0,0,.1,0,0,.1,0,0-.3.1-.5.2-.3.1-.6.3-.9.4,1.3-.1,1.3-.3,2-.4,2.8-.5,6.2-.7,9.2-1.1,1-.1.8,0,.6,0-.5.2-1.1.4-1.7.6h.1c-.7.2-1.4.4-2.2.7ZM186.7,12.5c.2.1-.6.3-2.4.5-1.6.2-1.7.4-2.8.6-3,.5-5.2.6-5.2.2,0-.2-.6,0-1.4,0-.7.1-1.3.3-2,.4-.7.1-1.2.1-1.6.1-.2,0-.1,0,0-.1,2.8-.8,7.7-1.4,12.8-1.8,1.5-.1,2.2,0,2.4,0ZM589.1,110.2c-.5.4-1,.8-1.5,1.2-.5.4-1.1.8-1.7,1.2-1.4,1-.3,0-1.1.5-1.1.6-2.2,1.1-3.2,1.6-1.5.6-1.3.4,0-.4,1.1-.7,2.1-1.4,3.6-2.2,1.7-.9,3.8-2.8,5.2-3.6,1.3-.9,1.8-.9,3.8-2.8.5-.4.1,0-.2.5-.9,1.2-2.1,2.2-3.3,3.1-.5.4-.6.2-1.6,1.1ZM207.5,11.9c-.3-.2.4-.4,2.4-.6.2,0,.4,0,.6,0,2-.4,3.1-.4,3.9-.2.1,0,.5,0,.7,0,.3,0,.6-.1.8-.2.5-.1.9-.2,1.4-.4,0,0,.5,0,.6,0,.2,0,.5,0,.4,0-.7.3-1.5.5-2.3.8-.5.2,2.4-.2,1.4,0-.5.1-1.5.3-2.3.5-1.1.2-2.1.3-2.1,0,0-.3-1-.2-2.6.1-.3,0-.8,0-1.2.1-.5,0-1.3-.1-1.6-.3ZM247.9,136.4c-1,0-2.5.1-2.9,0-1.5-.2-2.7-.4-3.8-.6-.2,0,.5-.1.9-.2.5,0,1.4,0,1.7,0,1.9.3,7,0,8.6.3,2.9-.2,1,.4,4.1.2.3,0-.1.2-.6.2-1.5,0-3.4.2-4.3,0-1,0-2.3,0-3.6,0ZM114.8,17c-.5,0-1.2,0-1.7-.2-.3,0-.5-.1-.4-.2.6-.1,1.4-.2,2.1-.3.3,0,.5,0,0-.2-.9-.2-1.5-.2-2-.1-.4,0-.6,0-.9,0-.2,0-.4,0-.7,0-1.2,0-2.7-.2-4.1-.3,0,0,0-.1,0-.2-.3-.3,1.3,0,2.3,0,.9,0,2.5.2,1.2,0-.6-.1-.3-.2-.4-.3-.3-.2,1-.2,2.3,0,1.8.3,3.4.5,5.1.8.6.1.9.2.6.2-1.4,0-.6.5-1.3.5-1.2,0-1.5,0-2,0ZM20.9,75.9c.5.6.9,1,1.4,1.5.4.5.9,1,1.5,1.5.7.7.8.9-.2.2-.9-.5-1.9-1.4-2.2-1.9-.1-.3.3,0-.8-1-1.8-1.7-2.8-3-3.4-4.1-.2-.4-.9-1.2-1.4-1.9-.5-.7-.8-1.3-.5-1.1-.2-.3-.4-.6-.6-.9-.4-.6-.9-1.2-1.1-1.7-.1-.4.2,0,.6.4.5.5,1,1.3,1.5,2.1.2.4.3.7.5.9,1.6,2.3,3.3,4.3,4.8,6.1ZM376.3,14.8c-.7.1-1.9,0-2.9,0-2,0-1.3-.2-1.1-.3.3-.2-2-.3-2.6-.4-.4-.1-.6-.2,0-.3.7,0,.9,0,1.4.1,1.7.1,2.9.1,2.9,0,0-.1,0-.2.8-.3.3,0,.8,0,1.1,0,.7,0,1.2.1,1.1.2-.2.2-2.2.2-1.8.5,0,0,.3.1.5.2.3,0,.7,0,.9,0,.8-.1,1.5-.2,2.2-.3.4,0,1-.1,2,0,.9.1.5.2.1.3-1.6.1-3.5.2-4.8.4ZM206.7,8.8c-1.2,0-.2-.3.3-.4,2.1-.2,4-.8,6.1-.6.6,0,2-.4,2.1-.3.2.2,1.2.2.8.5-.3.2-3.3.6-5.2.6-.4,0-.7,0-1,0-1.5.2-2.2.2-3.1.1ZM277.3,8.8c.7-.2,1.7-.2,2.7-.2.8,0,1.3,0,.9.2-.4.1-.9.3-1.6.4-.5,0-1.3.1-.5.2,1.9.2,1.7.2-.9.4-1,0-2.1.1-3.1.2-1.2,0-1.6,0-1.1,0,.6-.2,1.3-.4,2-.6h0c.6-.2,1.1-.3,1.8-.5ZM594.4,38c.9.5.4.5-.4.2-1-.4-2.9-1.2-4.9-1.9-.9-.3-1.8-.5-2.4-.8-.6-.2-1.1-.3-1.1-.4,0-.1-.6-.4.3-.3,1,0,2,.5,3,.7.3,0,.6.2.9.3.3.1.6.2.9.4h0c1.3.6,2.6,1.2,3.6,1.8ZM248.5,10.1c-.3.2-.9.4-2.5.6-.5,0-1.4.2-1.5.1-.4-.1-.4-.3-.7-.4-.2,0,.4-.2,1.2-.3,1.4-.2,1.7-.4,2.4-.6.5-.1,1.2-.3,2.4-.3.9,0,1.2,0,.9.2-.1,0-.7.2-1,.2-1.6.2-1,.3-1.2.5ZM167.4,18.7c.3-.2,1.1-.3,2.1-.5,2.2-.4,4.2-.2,6.5-.7.4,0,2,0,1.6.3-.4.2-2.2.4-2.4.4-1.4-.1-2.9.2-4.6.4-.3,0-.9,0-1.3,0-.3,0-2.4.3-1.9,0ZM84.3,10c-1.1-.2-2-.3-3.6,0-1.5.3-1.6.1-2.5,0-1.8-.1-.1-.3.6-.5.3,0,.7,0,1,0,1.3.2,2-.2,3.7-.1,2.4.1,3.6.5,1.9.7-1.5.1-.8,0-1.1,0ZM67.4,102.3c.2-.2,1,0,2.2.4.7.3,1,.4,1.8.5.2,0,.6.1.9.2,0,.2-1.8,0,2.1,1-.1,0-.1.1-.4,0-.7,0-1.7-.2-3-.6-.3,0-.5-.2-.5-.2-3-.8-3.3-1.1-3.1-1.4ZM602.8,44.3c1,1.3.9,1.7.5,1.3-.3-.3-.6-.7-1.2-1.3-.4-.4-.8-.8-1.3-1.2-1-.8-1.3-1-1.4-1.1,0-.1,0-.2-.2-.4-1.9-1.3-2.3-1.6-2.3-1.9,0,0,.5,0,1.6.8.5.4.9.7,1.5,1.2.3.2.7.5,1,.8.2.2.4.4.7.6.2.2.5.5.7.8,0,.1.2.3.3.4ZM238.5,13.4c-1.2,0-.6-.2-.2-.3.3-.1,1.7-.2,2.1-.1.8,0,1.5,0,3.1-.1,1.7-.2,3.3,0,3,.1-.2.1-.9.2-1.8.3-.8,0-1.6,0-2.4.1-1.8.2-1.7-.1-3.8,0ZM154.4,24.6c-1.5-.2-4.3-.3-4.3-.7,0,0-.2,0-.4,0-.3,0-.6,0-1-.1-.8,0-1.8-.2-2.5-.3-1-.1-.9-.2-.5-.3,1.8.3,3.1.2,4.7.3,1.1,0,.8.1.8.2,0,0,0,.1.7.2.7.1,1.7,0,2.1.2.2,0,0,.1.2.2.2,0,1.3,0,1.4.2,0,0-.1,0-.2,0-.3,0-.8,0-1,0ZM229.4,13.8c-1.6,0-2.9,0-4.7.3-.9,0-1,0-.9,0,.2,0,.5-.2.9-.3,1.9-.2,3.8-.4,5.8-.6,1-.1,1.6.1.9.3-.5.1-1,.2-2,.3ZM393.1,16.8c-.9-.2-.6-.5-3.7-.5-1,0-.7-.1-.6-.1.3-.1,1.5-.1,2.7,0,1.7,0,4.9.6,5.1.8,0,0-.2,0-.3.1-.6,0-2.5,0-3.2-.3ZM95.5,111.6c1.5.1.6-.3.5-.6,0-.2,2.6.3,3.7.4.6,0,.6.2.7.2.5.6-2.3.2-3.8.3-.1,0-.6-.1-.9-.2,0,0-.2-.1-.1-.1ZM264.2,136c.5,0,2.1,0,1.1.3-.7.1-5.3.4-5.6.3-.4-.1-.8-.2,0-.4,1-.2,3.9-.3,4.5-.3ZM553.3,122.5c.4,0,.7,0,.3,0-.4.2-.8.3-1.5.5-.8.2-1.9.4-2.3.6-2.3.8-1.7.1-3.4.7,0,0,0-.2.3-.3.9-.4,2.6-.7,3.8-1.1,1-.2,1.9-.3,2.8-.5ZM304.3,8.9c-2.1.2-3.3.5-4.3.7-.2,0-.6,0-.9.1-.3,0-.7,0-.9-.1-.1,0-.2-.1.1-.2,1.7-.3,4-.6,6.4-.8.3,0,1.4,0,2,0,.2,0,0,0,0,.1-1,.2-1.3,0-2.4,0ZM389.5,15.5c-.5,0-1.3.2-1.6.3-.5.1.6.5-1.8.4-.6-.2-1.2-.5-1.7-.7-.3-.1.4-.2,1.3-.1,1.8.1,2.1,0,2.8,0,.2,0,.7,0,1.1,0,0,0,.2.1.1.1ZM227.3,7.5c0,0-.6.2-1.3.2-1.2,0-2.3.1-3.4.4-.1,0-.4,0-.5,0-.5-.1-.8-.3-.1-.5.6-.2,1.7-.4,3.2-.5-1.1.4,2,.1,2.2.3ZM135.1,117.5c2,.3,2.2.7,4.8,1,.2.1-.1.2-.8.1-1.2,0-6.3-1.1-6.7-1.4,0,0,0,0,.1,0,.5,0,1.6,0,2.6.3ZM183.7,126.4c-1.7-.1-.5-.3-.1-.2,1.7,0,3.5.2,5.1.3.8,0,1.2.5.7.5-1.2,0-2.4,0-3.5-.2-.9,0-.9-.2-2.2-.3ZM27.6,80.1c.5.3.1.3-.4,0-.3-.2-.8-.4-1.1-.7-.4-.6-1.9-1.5-2.7-2.3-.5-.5-1.1-1-.9-1,.2,0,1,.7,1.8,1.3.6.5,1.1.9,1.6,1.3.3.4.7.7,1.7,1.4ZM160.2,126.5c-.5,0-1.5,0-2.2-.2-.5,0-1-.2-1.1-.3,0,0,.6,0,1,0,3.4.3,3.8,0,5.3-.2.2,0,.7,0,1,0,0,0,.2.1,0,.1-.7,0-1.4.2-2,.3h0c-.7,0-1.3.2-2.1.2ZM197.8,127.6c-1.3.2-2.3,0-3.2-.2,0,0-.4,0-.6,0-2.1,0-3.1-.2-2.4-.4.6-.1,2.5-.1,3.5.1.1,0,.2,0,.3,0,1.5,0,4,0,2.4.3ZM166.6,126.8c-.2-.2.6-.3,2.2-.3.5,0,1.2,0,1.8.1,0,0,0,0,0,.1-.3,0-.6.2.2.3.6.1.5.2-.5.2-1,0-2.1-.2-3.2-.3-.2,0-.5-.2-.6-.2ZM123.7,118.9c-2.9-.3-3.7-1-6.4-1.4,0,0,0-.1.1-.2.1,0,.6,0,.9,0,.7.3,2,.6,3.3.8,1.2.2,2.4.5,2.9.7.1,0,.3.1.5.2-.4,0-.8-.1-1.2-.2ZM230.4,7.6c-1.2,0-2.4,0-1.8-.1.7-.3,2.5-.4,3.9-.5.6,0,1.1.2.6.4-.7.2-1.7.2-2.7.3ZM156.4,121.8c.2,0,.5.2-.2.1-1.4-.2-2.9-.4-4.2-.6-1.2-.2-1.3-.3-.7-.4.6,0,1.4,0,2.5.2.3,0,.4.1.7.2.6.1,1.6.2,2,.3ZM242.9,10.2c-.6.2-.8.3-2.2.5-.5,0-.7-.4,0-.5,1.2-.3,2.6-.5,4-.8.3,0,0,.2-1.6.7,0,0-.2,0-.3,0ZM48.6,95.7c.3,0,1.3.3,1,.3-.4,0,1.6.7,1,.7-.4,0-1,0-2.2-.5-1-.4-1.8-.7-1.4-.7.2,0,.5,0,.7,0,.3,0,.6,0,1,.1ZM233.3,135.8c-.6,0-.5-.2,0-.3.5,0,1.2-.2,2-.1,1,0,1.8.2,3.1.2.5,0,.4.1,0,.2-.5,0-1.1,0-1.6,0-.4,0-.8,0-1.2-.1-.8,0-1.7,0-2.4,0ZM123,118c0-.2.8,0,1.5,0,1.9.1,1,.2,1.3.3.6.2,1.5.4,2.1.7.4.2-.9.1-1.6,0,1.4-.2-3.3-.7-3.4-1ZM540.8,125.2c.4-.3,3.3-1,5.2-1.4.6-.1.5,0,.2.1-1.1.5-1.7.7-4.3,1.1-1,.2-1.5.3-1.1.1ZM30.6,82.7c.5.1,2.2.9,3.3,1.5.6.4.6.4.4.4-.5,0-2-.7-3.3-1.5-.6-.4-.6-.5-.4-.5ZM387,18.5c.2,0,0,0-.1.1-.2,0-.8,0-1,0-1.3-.1-2.6-.3-3.9-.4-.5,0-.8-.1-.3-.2.4,0,1,0,1.6,0,.6,0,1.1.1,2,.2.5,0,1.1.2,1.7.3ZM179,17.7c.9-.2,2-.6,4-.7.5,0,.6.1.8.2-1.2.2-1.9.6-3.6.5-.7,0-2.2.3-1.2,0ZM269.9,10.2c-.9-.2,1.2-.5,2-.8.6-.2,1.5-.4,2.3-.7.2,0,.7,0,1-.1,0,0,.3,0,.1.1-.7.2-1.5.4-2.5.7-.8.2-1.1.5-3,.7ZM124.7,115.3c.5.1,1,.3,1.2.4.1,0-.9,0-1,0-.8-.4-3.4-.6-4.6-1-.4-.1-.7-.2-1.1-.3.3,0,1.5.2,2.6.4,1.2.2,2.4.4,2.9.6ZM54.8,93.5c0,.2.9.5,1.8.9.5.2,0,.2-.3,0-.2,0-.8-.2-1.1-.3-2-.6-2.6-1-1.5-1,.4,0,1.1.2,1.1.3ZM132.5,119.9c-.3,0-2.6-.2-3.6-.4-.6-.1-.7-.2-.4-.2.6,0,1.7,0,3.5.3.2.1.6.3.4.3ZM598.2,101.3c-.2.4-1,1.6-1.5,2.2-.5.5-2.2,2.2-1.1.7.4-.5.9-1.2,1.4-1.9-.2.4.2,0,.6-.5.4-.5.7-.9.6-.5ZM178.8,24.5c-1.3,0-2.3,0-1.7-.1.3-.1.7-.3,1.8-.4.6,0,1.7.2,1.4.3-.3.1-.9.2-1.5.2ZM159.9,10.7c0,0-.3.2-.7.3-.4.1-.9.2-1.4.2-.4,0-.9,0-1.3,0-.6,0-1.6.1-1,0,.8-.3,1.8-.3,2.6-.3.8,0,1.7-.1,1.7,0ZM325.3,14.6c-1.1,0-1.6-.1-1.1-.3.5-.1,1.3-.2,2.5-.1,1.1,0,1.6.1.9.3-.4,0-1.2.1-2.3,0ZM452.3,23.2c.5,0,1,0,1.5-.1.8.2-.1.2-.6.3-.8.1-.9.2-.9.4,0,0-.7,0-1.4,0-.7,0-1.1-.1-.9-.2.4-.1,1-.2.9-.2.9-.1,1-.2,1.3-.2ZM47.6,92.8c.6,0,2,.4,2.9.7.8.3,1.1.5.3.5-.7,0-1.5-.3-2-.6-1.3-.4-1.8-.6-1.2-.6ZM40.8,89.8c0,0-.2,0-.5,0-.3,0-.7-.2-1.3-.5-.4-.3-1-.5-1.5-.8-.6-.3-1.1-.6-.5-.5.6.2,1.3.5,1.9.8.2,0,.3.2.4.2.6.3,1.5.7,1.5.8ZM10.6,67.9c.3.3.8,1,1.4,2.1.6,1,.8,1.4.4,1.1-.4-.3-.9-1-1.4-2-.7-1.1-.7-1.5-.4-1.2ZM25.6,80.5c.2,0,.9.4,1.1.7.3.3.9.7,1.4,1.1.5.3.9.6.9.7,0,.1-1.3-.6-2.1-1.2-.4-.4-1.8-1.5-1.3-1.3ZM381,15.2c-.4,0-.7,0-.9,0,0,0-.2,0-.2,0-.2-.1,2.7-.5,3.6-.4.2,0,.4,0,.3.1-.4,0-.9.2-1.6.3-.2,0-.6,0-1.1.1ZM40.2,92.3c.3,0,.6.2,1,.3,0,0,0,.1,0,.2,0,.1.4.5-1.4-.1-.7-.3-1.3-.4-2-.6-.3-.2,0-.2.5,0,.2,0,.4,0,.9.2,0,0,.4,0,.9.2ZM38.1,91.3c.2,0,.6.2.9.3,0,0,.2.2,0,.2-1.1-.2-2.3-.4-3.5-.7-.2,0-.6-.2-.9-.3,0,0,0-.1,0-.1.5,0,1,.2,1.6.3.5,0,1.1.2,1.7.4ZM266.2,8.9c.2,0,.7,0,1-.1,0,0,.2,0,0,.1-1.1.3-2.3.7-3.4,1-.2,0-.7,0-1,.1,0,0-.2,0,0-.1.6-.2,1.3-.4,2-.6h-.1c.5-.1,1-.3,1.6-.4ZM109.2,113.9c.2,0,.6,0,1,.1,0,0,.2.1,0,.1-1.2,0-2.3,0-3.5,0-.2,0-.6,0-1-.1,0,0-.2-.1,0-.1.4,0,1,0,1.4-.1.7,0,1.4,0,2,0ZM445.8,22.8c.9,0,1.9,0,2.9.2.1,0,.2,0,.2,0-.2,0-.7.1-1.8,0-1,0-1.6,0-2,0-.3,0-.6,0-1.3,0,0,0,0,0,.1-.1.1,0,.4,0,.7-.1.2,0,.6,0,1.1,0ZM581.1,34.1c-1.2-.3-.6-.3,0-.3.7,0,1.7.1,2.6.4.6.2,1.3.4.7.4-1-.1-2-.2-3.3-.4ZM231.4,15c-.2,0-.2-.1.1-.2.6-.1,1.5-.2,2.2-.2.9,0,2.6-.2,1.8.1-.1,0-.6.1-.9.2-.6,0-1.2,0-1.7.1-.6,0-1.3,0-1.5,0ZM102.6,11.8c-.1,0-.5,0-.5,0-.2,0-.5,0-.5-.1,0-.1.1-.3.4-.4.2,0,.8-.1,1.8,0,1.1.1.9.2.6.3-.2,0-.5,0-.8.1-.4,0-.7,0-1.1,0ZM11.8,55.1c0-.2-.1-.5-.1-.8h.1c.2-.3.3-.2.6,1.4.1.4.2.8.3,1.2,0,0-.1,0-.2,0,0-.1-.2-.4-.5-1,0,0-.1-.3-.2-.7ZM313,9.8c-.2,0-.7,0-1,0,0,0-.2,0,0-.1,1.1-.3,2.3-.5,3.5-.8.2,0,.7,0,1,0,0,0,.2,0,0,.1-.5.1-1.1.3-1.7.4h0c-.6.1-1.1.3-1.8.4ZM548.6,32.4c-1-.1-1.2-.3-.4-.4.3,0,.8,0,1.3,0,.4,0,1.9.5,1.7.5-.7,0-1.9,0-2.6,0ZM172.3,26.2c-1.2,0-.7,0-.6-.1.4-.2,1.3-.2,2.9-.2.7,0,1.5,0,1,.2-.7.2-2.2.2-3.3.2ZM166.3,18.8c-.4.1-.9.2-1.6.2-.8,0-.9,0-.7,0,.3-.1.8-.3,1.4-.5.3,0,.7-.1.7-.1.7.1,1,.2.2.4ZM286.8,136.7c-1.5,0-1.3-.2-1.7-.3-.1,0,.4-.1.7-.1,1.2,0,2.3.1,2.5.3,0,0-.2,0-.3,0-.4,0-.9,0-1.2,0ZM12.3,52.3c0,.2,0,.1-.1,0,0-.1,0-.5,0-.7.2-.4.2-1.7.4-2.4.1-.4.2-.6.2-.2,0,.2,0,.5,0,.8,0,.5-.1.9-.2,1.2,0,.5-.2,1-.2,1.3ZM14.6,44.9c0,0,0-.2,0-.2l1-1.7c.4-.5.7-1,1.1-1.6,0,0,0,.2,0,.4-.3.6-.8,1.2-1.1,1.8-.3.4-.7,1.3-.9,1.3ZM470.6,25.7c-.2,0-.6,0-1,0,0,0-.3,0-.1-.1.9-.2,1.9-.3,2.8-.5.2,0,.7,0,1,0,0,0,.3.1.2.1-.4,0-.9.2-1.4.3h0c-.5,0-.9.2-1.5.2ZM225.8,11.2c-.3,0-.9.2-1.3.2,0,0,0-.1.2-.2.4-.1.9-.3,1.5-.5.6-.2,1.2-.5,2-.5,1.4,0-.6.3-.9.5-.4.1-.8.3-1.4.4ZM50.2,97.4c1,.2.8.3,1,.4.9.5-.9,0-1.9-.2-.3,0-.9-.2-1-.3-.5-.2-.3-.2,0-.2.3,0,.6,0,1.1,0,.2,0,.5,0,1,.1ZM148.2,18.4c-.3-.2-2-.4-1.6-.5.2,0,.9,0,1.5,0,1.4.2,2.2.3,1.3.5-.3,0-.7,0-1.2,0ZM140.6,17.6c-.1,0-.3,0-.5,0-.4,0-.6,0-.5-.1.1,0,.4,0,.6-.1.2-.1-.4-.3,1.4-.2.2,0,.4,0,.6,0,1.3.3-.2.2-.4.3-.3,0-.7,0-1,0ZM606,85.6c.3-.8.5-1.3.8-2-.4,1.5-.5,2.7-.9,4-.1,0-.2,0-.3,0,0-.4.3-1.6.4-2ZM560,120.7c.7-.2.4,0,.5,0,0,0,.2,0,.5,0,.7-.1.9-.1.4.1-1.1.5-1.1.2-2.2.6-2,.6-.8,0-.7,0,0,0,.2,0,.4-.2.3-.1.7-.3,1.1-.5ZM58.6,96.9c-.9-.3-.9-.5-.2-.4.4,0,1.1.1,2,.4,1,.3.2.3-.1.3-.5,0-1,0-1.6-.2ZM273.5,12.6c-1.1,0-1-.2-.3-.4.4-.1,1.1-.2,2-.2,1.1,0,.2.2,0,.3-.5.1-.9.3-1.7.3ZM341.2,10.6c.5,0,1.2-.3,1.9-.2,1,0,.4.3,0,.4-.3,0-1.1.1-1.7.2-.5,0-.9,0-1.4.1,0,0,0-.1.2-.2.2,0,.6-.1.8-.2h0c0,0,.2,0,.3,0ZM95.5,10.1c.9.1,1.5.3.9.3-.6,0-1.8,0-2.8-.1-.8,0-.5-.2,0-.2.5,0,1.1,0,2,0ZM258.8,12.9c-.7,0-1.6,0-1.1-.1.4-.1,1.4-.2,2.1-.3,1.3,0,1,0,1.1.2-.5.2-1.3.2-2.1.2ZM557.4,121.3c1.1-.3.9-.1.6,0-.3.2-.8.4-1.8.7-1.1.3-.6,0-.7,0,.5-.2.9-.4,2-.7ZM373.4,16.9c.7,0,1.5.2,1,.3-.5,0-1.4,0-2,0-.7,0-1.5-.2-1.2-.2.8-.1,1.6,0,2.3,0ZM607.1,53.9c.2.3.6,1.4.9,2.4.2.8.2,1.9.1,1.5-.3-1-.5-1.8-.7-2.6-.1-.5-.6-1.8-.3-1.3ZM173.7,127.7c.3,0,.8,0,1.3,0,.7.2,1,.3.3.4-.3,0-.8,0-1.2,0-.7-.2-1.1-.4-.4-.4ZM151.8,119.5c-.6,0-1.6,0-3-.2-.6,0-.4-.2-.1-.2.6,0,1.6,0,3,.2.5.1.4.2.1.2ZM222.6,10.2c.1,0,.4,0,.5,0,.3,0,.7,0,.6,0-.6.2-1.4.3-2.1.5-.3,0-.7.1-1.1.2,0,0,0-.1,0-.2,0,0,.4-.1.6-.2.4,0,.9-.2,1.4-.2ZM251.6,12.6c.3,0,.9-.2,1.3-.2.6,0,2.3,0,1.5.2-.8.2-1.1,0-1.6,0-2,.2-2,.1-1.2-.1ZM553.5,120c.4-.2,1.2-.4,1.9-.6.7-.2,1.5-.4,1.2-.1-.3.2-1.2.4-1.9.6-.7.2-1.5.3-1.2.1ZM287.3,9.5c-.2,0-.6,0-1,.1,0,0-.2,0,0-.1.7-.2,1.4-.4,2.2-.6.2,0,.7,0,1-.1,0,0,.2,0,0,.1-.4.1-.9.2-1.4.4h0c-.3,0-.5.2-.9.2ZM166.4,20.1c-.3,0-.8.2-1.8,0-1,0-.8-.2-.5-.3.3,0,.8-.1,1.9,0,1,0,.8.2.4.2ZM222.6,11.2c-.2,0-.6.1-1,.2,0,0-.1,0,0-.1.6-.2,1.2-.4,1.9-.6.3,0,.9-.2,1.3-.3,0,0,0,.1-.2.2-.2,0-.5.2-.8.3h-.1c-.4.1-.7.2-1.2.4ZM130.8,23.6c-.2,0-.5-.1-.6-.2-.3-.1-.4-.3.4-.3.2,0,.6,0,1,0,.2,0,.5.1.6.2.3.2.3.3-.4.3-.3,0-.6,0-1,0ZM228.4,11c-.2,0-.6.1-.9.2,0,0-.1,0,0-.1.6-.2,1.2-.4,1.9-.6.3,0,.8-.2,1.3-.2,0,0,0,.1-.2.2-.2,0-.5.2-1.2.4,0,0,0,0-.2,0-.2,0-.4.1-.6.2ZM131.4,24.2c-.5-.1-.7-.2-.2-.2,1,0,1.9.2,2.7.4.6.1.6.2,0,.2-1,0-1.8-.2-2.6-.4ZM74.6,105c-.1,0-.4,0-.5-.1-.1,0-.4-.2-.3-.2.2,0,.5,0,.9,0,.6,0,1.5,0,2.1.2,1.4.5-.4.2-.8.2-.4,0-.8,0-1.3-.1ZM24.4,33.7c-.2.3-.7.8-1.2,1.2-.6.5-1.3,1.1-.9.5.2-.4.8-.9,1.4-1.3.4-.3,1-.7.8-.4ZM231.7,10.9c-.5,0-.7,0-.3-.2.4-.1,1.4-.3,2-.3,1.7-.1.1.2.2.2-.7.1-.6.3-1.9.3ZM292.8,9.7c-1,0-1,0-.7-.2.3-.1.8-.2,1.8-.2,1.1,0,.9,0,.7.2-.4.1-.9.2-1.9.2ZM82,17c-.5,0-.8,0-.3-.2,1-.1,1.9,0,2.7,0,.6,0,.7,0,.2.2-1,.1-1.8,0-2.6,0ZM47.3,91c.3,0,.9.1,1.8.5.9.4.6.4.3.3-.3,0-.9-.1-1.8-.5-.9-.4-.7-.4-.3-.3ZM225.4,129.2c-.3,0-.9.2-1.8.2-1,0-1-.1-.6-.2.3,0,.8-.2,1.9-.2,1,0,.9.1.6.2ZM134.6,24.1c-.7-.2-1.1-.3-.3-.3.4,0,1,0,1.6.2.8.2.4.2,0,.2-.3,0-.8,0-1.3,0ZM228.7,15c-.7.2-1.6.3-2.6.3-.2,0,0-.1.3-.2.4-.1,1.2-.2,2.1-.3.5,0,.6,0,.2.2ZM214.7,15.4c.2,0,.6-.1,1-.2.5,0,1.2,0,.5.3-.4.1-.9.2-1.8.2-.9,0-.3-.2.3-.3ZM425.2,23.2c-1.3-.2-.6-.2-.2-.3.3,0,.8,0,1.3,0,.7.1,1,.3.6.3-.6,0-1,0-1.7,0ZM100.5,11.1c0,0-.6.1-1.7,0-.7,0-.7-.1-.5-.2.2,0,.6-.1,1.8,0,.2.1.6.2.5.3ZM284.4,12.3c-.2,0,0-.1.2-.2.4,0,1-.2,1.9-.2.5,0,.7,0,.2.2-.5.1-1.4.2-2.4.2ZM135.4,121.3c.7.2.8.2.4.2-.6,0-1.5,0-2.6-.3,0,0,0-.1,0-.2.7,0,1,0,2.1.2ZM184.1,128.8c1.1.1.7.2.3.2-.2,0-.8,0-1.3,0-.4-.1-1.1-.3-.8-.3.6-.1,1.1,0,1.7,0ZM399.6,16.2c.3,0,.8.2.6.2-.5,0-1.5.1-2.7,0-.3,0,.1-.2.4-.2.5,0,.8-.1,1.7,0ZM78.9,106.5s.2.1,0,.1c-.5,0-1.6-.2-2.6-.5-.3,0-.5-.2-.7-.4,1,0,2.2.5,3.3.7ZM195.4,15.1c.2-.1.8-.3,1.6-.3.4,0,1.1,0,1,0-.1.1-1.1.3-2.2.4-.9,0-.6,0-.4,0ZM161.6,25.4c.5.1.4.3-.1.4-.2,0-1.5,0-1.6,0-.9-.2.3-.2.4-.3.5,0,1,0,1.4,0ZM487.5,26.4c.5,0,1.3,0,1.6,0,.8.1,0,.2-.5.3-.3,0-.7,0-1,0-.5-.1-.8-.2,0-.3ZM284.5,9.3c-.2.1-.6.3-1.8.3-.4,0-1.1,0-1.1,0,.2-.1,1.3-.2,2.3-.3.5,0,.7,0,.6,0ZM18.4,32.6c-.4.3-.7.4-.4,0,.2-.3.6-.7,1.1-1.1.7-.6.4-.2.2.2-.2.2-.3.5-.8.9ZM77.3,105.6c-.6-.2.2-.1.6-.1.3,0,.8,0,1.2.1.6.2,0,.2-.3.2-.4,0-.9,0-1.5-.2ZM81.7,106.5c.4,0,.7.2.5.2-.4,0-1.3-.1-2.3-.3-.5-.1-.7-.2-.6-.2.5,0,1.4.1,2.4.3ZM17.8,40.3c-.4.4-.6.7-.5.5,0-.3.3-.7.9-1.4.3-.4.5-.5.3-.2,0,.2-.3.6-.7,1.1ZM119.9,17c.2,0,.4-.1.8-.2.3,0,.8,0,1.2,0,.5.2-.1.2-.5.2-.5,0-.5.1-1.5,0ZM118.8,17.5c-.8,0-1.7,0-2.5,0,.1,0,0-.1.3-.2.4,0,.9,0,2,.1,0,0,.3.1.2.1ZM483.9,26.2c-.7,0-1-.2-.5-.3.2,0,1.2,0,1.7,0,.6,0,1.1,0,.4.2-.5,0-1.3,0-1.6,0ZM400.2,17.2c.5,0,.7.1.3.2-.4,0-.9,0-1.5,0-.5,0-.8-.1-.4-.2.6,0,1.1,0,1.7,0ZM211.2,15.6c.6,0,.7,0,.3.1-.4,0-.8.2-1.4.2-.5,0-.8,0-.3-.1.4-.1.8-.2,1.4-.2ZM335.5,10.6c-.7,0-.8,0-.6-.2.2,0,.8,0,1.4,0,.7,0,.8,0,.6.2-.2,0-.7,0-1.4,0ZM482.1,26.9c0,0-.2,0-.1-.1.5-.1,1.5,0,2.5,0,0,0,.1,0,.2.1-.6,0-1.5,0-2.5,0ZM170.9,10.2c-1.1,0-.9,0-.5-.1.3,0,.8-.2,1.5-.2.5,0,.8,0,.4.1-.3.1-.8.2-1.4.2ZM161.6,19.1c-.4.1-1,.2-1.4.2-.3,0-.6,0,0-.2.5-.1,1.1-.2,1.5-.3.7,0,.5.2-.1.3ZM160.4,122.4c-.2,0-.3.2-.6.2-.1,0-.4,0-.7,0-.1,0-.5,0-.5,0-.2,0-.4-.1-.4-.1,0,0,.3,0,.5,0,.5,0,.8,0,1.7,0ZM95.5,16.8c-.6,0-.7-.1-.3-.2.4,0,.8,0,1.5,0,.6,0,.7.1.3.2-.4,0-.8,0-1.5,0ZM431.3,23.8c-.3,0-.8,0-1.4,0-.7,0-.8-.1-.5-.2.3,0,.8,0,1.5,0,.8,0,.7.1.5.2ZM140.4,119c.3,0,.9,0,1.8.1.5.1.7.2.3.2-.3,0-.8,0-1.3-.1-.6-.1-1-.2-.8-.2ZM364,16.3c-.7,0-.8-.1-.5-.2.3,0,.7,0,1.4,0,.7,0,.7.1.6.2-.2,0-.7,0-1.4,0ZM183.2,15.9c-.3.1-.7.2-1.4.2-.7,0-.8,0-.6,0,.2-.1.8-.2,1.4-.2.8,0,.8,0,.6,0ZM18.7,78.2c-.3-.5.2,0,.6.2.3.2.7.5,1,.7.3.4-.3,0-.7-.2-.3-.2-.7-.5-1-.8ZM101.1,14.9c.2,0,.3-.2.5-.2.3,0,.9-.1,1.6,0,.5,0,0,.2-.2.2-.6,0-1,.1-1.9,0ZM198.8,14.9c.1-.1.7-.2,1.5-.3.3,0,.6,0,.7,0,.2.1-1,.2-1.6.3-1,.1-.7,0-.6,0ZM158.5,125.5c.2,0,.7,0,.9,0,1.3.2,0,.2.5.4-.3,0-.7,0-1,0-1.2-.2-.8-.3-.3-.3ZM262.2,12.7c-.6,0,0-.2.3-.3.2,0,.4-.1.7-.2.3,0,.7,0,1-.1,0,0,.1,0,0,.1,0,0-.3.1-.4.2-.4.1-1,.3-1.7.3ZM221.9,13.7c-.3,0-.8.2-1.3.3,0,0-.1-.1,0-.2.2,0,.8-.2,1.4-.3,0,.1,0,.2-.2.2ZM149.3,14.6c-.7,0-1,0-.6,0,.1,0,.6-.1.9-.2.3,0,.5,0,.7,0-.2,0-.5.2-1,.2ZM569.4,114.5c.5-.2.5,0,.2,0-.3.2-.9.5-1,.5-.6.2-.4,0-.1-.1.2-.1.7-.4,1-.5ZM373.5,13.4c-.2,0-.4.2-1.3.1,0,0-.4,0-.4-.1.3,0,.8-.1,1.3-.2.2,0,.5.1.4.1ZM73.6,105.1c.2,0,.5.2.4.2-.6,0-1.3-.2-2-.4-.1,0,0,0,.2,0,.4,0,.9.1,1.5.3ZM128.9,116.3c1,.2.9.3.8.3,0,0-.6,0-1-.1-.9-.1-.7-.2-.7-.3.3,0,.7,0,.8,0ZM608.9,69c0-.7,0-1,.1-.8,0,.2.2.5.1,1.2,0,.4-.1.5-.2.7,0-.5,0-.8,0-1.1ZM187.9,129.1c-.3,0-.9,0-1.3,0,0,0,0-.1.2-.2.2,0,.8,0,1.5,0-.1,0,0,.2-.4.2ZM18.4,77.3c0,0,0,.2-.2,0-.2-.1-.7-.6-1.1-.9,0,0,.1,0,.2-.1.4.3.8.7,1.1,1ZM34,86.1c.6.3.7.4.3.3-.2,0-.6-.2-.8-.4-.3-.2-.3-.3-.5-.5.4.2.8.4,1,.5ZM161.3,19.8c-.3,0-.8,0-1.3,0,0,0,0-.1.2-.2.2,0,.8,0,1.4,0-.2,0-.1.2-.4.2ZM220.4,15.6c-.3,0-.1-.2.4-.3.2,0,.7-.2.9-.2.9,0,.3.1,0,.2-.4,0-.8.1-1.3.2ZM200.6,12.6c.1,0,.1-.1.3-.2.1,0,.6-.1.9-.2.6,0,.1.1-.3.3-.3,0-.7.1-1,.2ZM34.7,88.5c.7.3.4.3.1.2-.3,0-.8-.2-1-.3-.7-.3-.3-.2-.1-.2.3.1.7.2,1,.4ZM337.9,15.4c-.6,0-1.1,0-.8-.2.1,0,.5,0,.8,0,.3,0,.6.1.7.2,0,0-.2.1-.7,0ZM13.3,61.1c.1,0,.3.5.4.9.1.4.2.6,0,.3,0-.1-.2-.4-.4-.7,0-.2,0-.4,0-.4ZM67.3,17.8c-.2,0,0-.1.2-.2.2,0,.7-.2,1.2-.3.3,0,0,.1,0,.2-.4.1-.9.3-1.3.3ZM265.7,9.8c0,0-.2-.1,0-.2.3,0,.5-.2,1.5-.2.2,0,0,.1,0,.2-.5,0-1,.1-1.5.2ZM215.2,128.7c.2,0,.6,0,1,0,.6,0,.2.2-.3.2-.2,0-.6,0-1.2,0,.2,0,.3-.2.5-.2ZM103.5,112.7c-.1,0-.2.1-.4.1-.1,0-.8,0-.9,0-.5-.2-.2-.2,0-.2.3,0,.8,0,1.2.1ZM493.9,27.7c0,0,0-.1.3-.2.2,0,.8,0,1.3,0,0,0,0,.1-.1.2-.5,0-1,0-1.4,0ZM19.4,72.2c.4.4.2.4,0,.2-.2-.2-.6-.5-.8-.7-.4-.4-.2-.4,0-.2.2.2.5.4.8.7Z"/>
  <path class="cls-1" d="M294.3,5.2c.1,0,.4-.1.8-.2,1-.2,1.1-.1,1.1,0,0,0,.5,0,1,.1.9,0,1.8-.4,2.5-.1.6.2,1.4,0,2.1,0,.8,0,1.6,0,2.4,0,1.9,0,2.1.4,2.9.3,2.2-.2,3.6-.1,5.3-.1,1.5,0,2.9.2,4.8,0,1.8.2,4.8.3,7.3.4,2.7.2,5.6.2,8.4,0,2.5-.1,2.3.3,4.5.2.8,0-.8.3,1.1.4,1,0,2.3,0,3.4-.1.1,0,.4,0,.6,0,.7,0,.1.4,2.7.2.2.2,3.3.1,2.5.4,0,0,.2,0,.3,0,.8.2,2.6-.2,3,.1.3.2,1.4.3,2.5.4,2.6.3,4.9.5,7.8.8,1.8.2,3.6.4,5.1.6,1.5.2,4,.4,6.1.6,1.3.1,1.8.3,1.9.4,0,.2,2.1-.1,2.2.2.1.3,1.8,0,2.3.2.3.1.2.2.5.4.2,0,1.1,0,1.6.1,2.6.2,5,.5,7.1.8,2.2.3,6.1.5,7.4.9,0,0,.8,0,1.2,0,1.3.1,2.5.1,3.6.1.2.1.8.3,1.2.4.8.3,3.4,0,3.7.4,7.3.9,14.5,1.8,21.8,2.7.9.1,1.6.1,2.3.1.3,0,.8,0,1.2,0,1.6.1,0,.4,1.6.3,1.7,0,1.8.2,3,.3,2,0,1.5.2,1.9.4.4.2,1.6.2,2.7.3,2.9.1,4.7.3,5.4.7.3.2,1.2.4,3.5.5,1.1,0,2.3.2,3.4.4,1.5.2,2.5.3,1.5.5-.9.1-3.1.1-4.7,0-.6,0,.6-.2-1.4-.3-1.5,0-2.9,0-4.3,0,.4-.2-1-.3-2-.5-.8-.1-1.1-.3-2.3-.2-.3,0-3.6-.5-4.1-.6-2.2-.4-5.1-.8-8.5-1.1-3.2-.3-3.4-.2-4.6-.5-1.9-.5-5.4-.8-8.4-1.1-1.9-.2-4.8-.5-5.6-.7-.5-.1-1.2-.2-2.3-.3-3.9-.4-8.7-.7-10.2-1.4-.3-.1-1-.1-1.4,0-.9,0-1.6.2-2.9-.1-.6-.1-2.4-.2-1.9-.4.5-.2-1.5-.2-2.4-.2-.8,0-1.7.1-1.2-.1.1,0,.2-.1.3-.2-.5,0-1,0-1.5,0-3.5,0-5.4-.1-7.3-.6-.5-.1-1.4-.2-1.3-.4,0-.2-.8-.1-1.5-.1-.2,0-.4,0-.7,0-.2,0-.4,0-.4,0-1.3-.4-4.6-.5-6.9-.7-.9,0-2.1-.2-1.9-.3.6-.4-3.2-.6-4.6-.9,0,0-.7,0-1,0-2.6.1-2.6-.1-3-.3-.2,0,.2-.3-.5-.2-2.1.2-1.5-.3-3-.2-.7,0-2,0-2.2,0-.9-.4-2.6-.5-5.6-.5.7-.3-2.2-.1-2.3-.2-.4-.4-2.7,0-3.7-.2-1.4-.2-4.1,0-5.7-.3-1.1-.1-4-.1-5.3-.3-1.4-.2-3.8,0-4,0-.9-.5-4.5-.3-7.4-.2-2.1,0-3.9-.3-6.4,0,0-.4-1.9,0-3,0-1.6,0-3.1,0-4.7,0-1.4,0-2.5-.1-4.6.1-1.2.1-.4-.2-1.4-.2-3-.1-2.8-.1-1.2-.6Z"/>
  <path class="cls-1" d="M110.1,118.8c3.9.5,4.7,1.3,8.3,2,0,.2,2.8.7,2.7.9,0,0-.2.2.7.2,3.6.3,4.4,1,7.4,1.4,1.3.2.8.3.3.3-.4,0-.8.1-2.1-.1-3.8-.8-7.5-1.5-11.8-2.4.4-.3-1.6-.4-2.8-.7-1.4-.3-1.3-.5-3-.9-2.3-.5-4.1-1.1-5.3-1.5-1.6-.6-4.5-.9-5.7-1.4-1.3-.5-4-1.1-5.6-1.6-4.5-1.4-9.5-2.8-14.4-4.2-1.2-.3-2.4-.7-3.5-1-1.4-.4-4-1-3.5-1.3,0,0-.3-.2-.7-.2-2.9-.4-3.8-1.1-6.2-1.7-1.2-.3-1.6-.8-3-1.3-.9-.3-.8-.5.7-.2.5,0,1.6.3,1.6.4,0,.1,0,.3.6.5,1.7.4,3.5.9,4.7,1.2,2.5.5,3.6.8,3.5,1.1,0,0,.2,0,.6.2.4.1.8.2,1.4.4,1,.3,2.2.6,2.6.7.7.2,1.3.3,1.3.4.2.3,1.6.7,3.9,1.1,2.7.5,4.3,1,5.2,1.5.3.2.2.4,1.6.6,3.9.6,0,.2,1.8.6,1,.2,2.3.6,3.5.8,1.6.4,3,.8,4.5,1.2,2,.5,2.8,1,5.7,1.4,1.3.5,4.1,1,5,1.5Z"/>
  <path class="cls-1" d="M9.7,72.6c.8,1.1,1.2,1.9,1.8,2.7.5.8,1.2,1.7,2.4,2.9-.1.3.9,1.3,2,2.5,1.2,1.1,2.6,2.4,3.3,3.1.5.6,1.5,1.5,2.7,2.4.6.5,1.2.9,1.9,1.4.7.4,1.3.9,1.9,1.3.5.3.9.6,1.4.9.4.3.9.5,1.3.8.8.5,1.5,1,1.9,1.4.4.3,1,.7,2.2,1.3,1.2.6,2.4,1.2,2.2,1.3,0,0,.2.2.3.2,1.3.4,2,1.1,3.6,1.5.2,0,.2.4,2.1,1-.6,0,.9.6,2.2,1.1.5.2,1.9.8,3.4,1.4.7.3,1.4.6,2,.9.6.2,1,.4,1.2.5.4.2.3.2-.2.2-.5,0-1.3-.3-1.6-.5-.6-.3-1-.6-2.7-1.1-1.8-.5-3.1-1.1-4.6-1.8-7.4-3.1-13.3-6.6-19.6-11.5-.4-.3-.7-.6-1-.9-1.2-1.2-1.9-1.8-3.9-3.6-.8-.7-.5-.5-.6-.7-.4-.6-1.1-1.5-2-2.6-.8-1.1-1.9-2.3-2.7-3.5-.7-.9-1.4-2.1-2.1-3.1-.6-1-1-1.8-.9-2,0,0,0-.2-.4-.8-1.2-1.8-1.9-3.3-2.2-4.4-.4-1.1-.4-1.8-.4-2.3,0-.1-.2-.8-.3-1.1,0-.5-.3-1.3.1-.2.2.5.5,1.4.6,1.8.2.8.5,1.6.9,2.4.4.8.7,1.7,1.2,2.5.4.8.8,1.6,1.3,2.3.4.8.8,1.5,1.2,2.2Z"/>
  <path class="cls-1" d="M40.6,16.9c-1.1.5-2,.9-1.9.6,0,0-.2,0-.3,0-4.2,2.2-6.9,3-10,4.6-1.1.6-2.5,1.3-3.6,2-1.1.7-2,1.1-2.2,1-2.6,2.2-2.2,1.4-3.5,2.4-1.5,1.2-2.7,2.2-4.3,4-.5.6-1,1.2-1.4,1.5-.4.3-.6.5-.7.3,0-.1-.2-.1,0-.4.2-.5.7-.9,1.2-1.3.5-.4,1-1.1,1.7-1.7.2-.2.5-.7.9-.9.2,0-.4.7.9-.6.3-.3.9-.9,1-.9.2.1.9-.4,1.9-1.1,1-.6,2.1-1.5,3-2,3.3-2,6.3-3.4,9.7-4.9,3.3-1.4,6.5-2.6,9.7-3.8,1.6-.6,1.7-.4.4.4-1.1.7-1.3.4-2.2.9Z"/>
  <path class="cls-1" d="M292.6,5.3c-.4.1-.6.2-1.2.3-1.6.2-.7,0-.9,0-1.8-.2-3-.2-5.5.2-2.4.4-2.6.2-3.1,0l-3.6-.2c-1.3.1-2,0-2.5,0-.4,0-2,0-1-.2,1.1-.2,1,0,2.2,0,1.4-.2,2.8,0,4.3-.2.3,0,.7,0,1.1-.1l-.4.2c-.4.3.5.1,1.4,0,.8-.1.9,0,1.3,0,2.6,0,4.7.2,8.3,0,1.1-.1.9,0,.7,0-.3.1-.7.2-1,.3h-.1Z"/>
  <path class="cls-1" d="M37.4,27.8c-.4.1-.8.2-1.1.4-.2,0-.4.1-.4,0,.1,0,.5-.3.8-.5,2.3-1.1,4.5-1.9,7-3.2.3-.2,1-.4.9-.3-.2.4-1.7,1.1-3.7,2-1.2.5-2.4,1-3.7,1.6Z"/>
  <path class="cls-1" d="M8.6,37.9c0,.2-1.8,3.5-1.9,3.7-.4.4-1.3,2.6-1.1,1.5,0-.3.3-1,.5-1.5.3-.3.8-1.3,1.3-2.1.5-.9,1-1.7,1.1-1.6,0,0,.1,0,.2,0Z"/>
  <path class="cls-1" d="M134.7,125c0,.2,1.9.3,2.3.5.3.1.8.3.2.3-.5,0-1,0-1.6-.2-.9-.2-1.9-.4-2.8-.6-1.2-.3-1.3-.4-.6-.4.8,0,1.7.2,2.5.4Z"/>
  <path class="cls-1" d="M142.7,12.6c-.7-.1.1-.5.2-.8,0,0,.7-.3,1.3-.3.4,0,.8,0,.8,0,0,.2-1.8.7-2.4,1.1h.1Z"/>
  <path class="cls-1" d="M51.1,102c.3,0,.6,0,.9.2,1.3.4,2.4.7,3.1,1,.2,0,0,.1,0,.1-.2,0-.7,0-.9-.1-1.2-.4-1.7-.7-3.2-1.1h.1Z"/>
  <path class="cls-1" d="M3.9,49.3c0,.2,0,.4,0,.6,0,1-.3,3.6-.4,3.6,0,0-.2-.5-.2-.9,0-.9,0-1.1,0-1.4.2-.7.3-1.3.5-1.9Z"/>
  <path class="cls-1" d="M11.2,34.7c-.2.3-.4.7-.9,1.3-.7.9-.6.6-.9.9.4-.7,1-1.8,1.3-2,.5-.6.9-.8.6-.2Z"/>
  <path class="cls-1" d="M3.4,54.6c.1.5.3.8.4,1.9.1,1.1.2,2,0,1.5-.2-.6-.4-2-.4-3,0-1,0-.4,0-.4Z"/>
  <path class="cls-1" d="M4.6,45.2c0,.3.1.5.2.7,0,.2-.1.4-.2.6-.4,1.4-.3.5-.3,0,0-.2.1-.7.2-1.3Z"/>
  <path class="cls-1" d="M142.6,12.6c.9-.1.7,0,.3.2-.3.1-.8.3-1.3.4,0,0,.1-.2.3-.3.2-.1.5-.2.8-.3h-.1Z"/>
  <path class="cls-1" d="M33.4,29.5c-.3,0,.2-.3.5-.6,0,0,.4-.3.4-.3.4-.1,0,.2-.3.4-.1,0-.4.3-.7.4Z"/>
  <path class="cls-1" d="M132.5,19.3c-.2,0-.4,0-.6.1-.5.1-1,.3-1.6.4.1,0,.1-.1.4-.2.5-.2,1.1-.3,1.5-.4.2,0,.1,0,.2,0h.1Z"/>
  <path class="cls-1" d="M28.2,26.4c.2-.2.4-.3,1-.7,0,0,0,0,0,.2-.2.2-.4.4-.6.6-.2.1-.4.3-.7.5,0,0-.2,0-.1,0,.1-.2.4-.4.5-.6Z"/>
  <path class="cls-1" d="M9.2,64c.5.7.8,1.6,1.2,2.4.1.3.2.4.2.6-.5-.9-1-1.8-1.4-2.7,0,0,0-.2,0-.3Z"/>
  <path class="cls-1" d="M70.9,13c-1.1,0-1.6,0-1.5,0,.2-.1.9-.3,1.7-.4.7,0,1.4-.1,2.1-.2.7,0,1.4,0,2.1,0,.1,0,0,.2-.2.2-1.6.1-3.2.3-4.2.4Z"/>
  <path class="cls-1" d="M79.9,12.5c-.3,0-.6.1-1.4.1-.5,0-.8,0-.7,0,.1,0,.4-.2,1.2-.2.6,0,1,0,.9.1Z"/>
  <path class="cls-1" d="M256.5,9.5c-.5,0-.8.2-1.8.2-.8,0-.4-.1,0-.2.4-.1,1-.2,1.9-.2.9,0,.3.1,0,.2Z"/>
</svg>