<?xml version="1.0" encoding="utf-8"?>
<!-- Generator: Adobe Illustrator 28.2.0, SVG Export Plug-In . SVG Version: 6.00 Build 0)  -->
<svg version="1.1" id="Layer_1" xmlns="http://www.w3.org/2000/svg" xmlns:xlink="http://www.w3.org/1999/xlink" x="0px" y="0px"
	 viewBox="0 0 512 512" style="enable-background:new 0 0 512 512;" xml:space="preserve">
<style type="text/css">
	.st0{fill:#5C5CB8;}
</style>
<path class="st0" d="M128,128c35.3,0,64-28.7,64-64S163.3,0,128,0S64,28.7,64,64S92.7,128,128,128z M105.6,160
	c-41.6,0-76.3,31.9-79.7,73.4l-4.1,49.3c-2.5,29.8,15.7,56.1,42.2,65.6V464c0,26.5,21.5,48,48,48h32c26.5,0,48-21.5,48-48V348.3
	c26.5-9.5,44.7-35.8,42.2-65.6l-4.1-49.3c-3.4-41.5-38.1-73.4-79.7-73.4H105.6z M384,128c35.3,0,64-28.7,64-64S419.3,0,384,0
	s-64,28.7-64,64S348.7,128,384,128z M368.3,160c-28.6,0-53.7,18.9-61.5,46.4l-39.1,136.8c-5.8,20.4,9.5,40.8,30.8,40.8H320v80
	c0,26.5,21.5,48,48,48h32c26.5,0,48-21.5,48-48v-80h21.6c21.3,0,36.6-20.3,30.8-40.8l-39.1-136.8c-7.8-27.5-33-46.4-61.5-46.4H368.3
	z"/>
</svg>
